<svg xmlns="http://www.w3.org/2000/svg" width="303.66" height="340.555" viewBox="0 0 303.66 340.555">
  <g id="_10_SCENE" data-name="10 SCENE" transform="translate(-1171.547 -311.9)">
    <g id="LEGS" transform="translate(1305.374 482.504)">
      <g id="LEFT_LEG" transform="translate(0 0)">
        <path id="Path_1" data-name="Path 1" d="M2362.342,2515.342l-2,5.442-9.22,25.1a21.969,21.969,0,0,1-12.727,4.014c-.579,0-1.275-.142-1.865-.177a24.146,24.146,0,0,1-13.435-5.454l2.751-30.27.2-2.2C2340.915,2517.562,2358.245,2516.594,2362.342,2515.342Z" transform="translate(-2320.054 -2422.691)" fill="#a0505a"/>
        <path id="Path_2" data-name="Path 2" d="M2382.979,2515.342l-3.907,10.625c-11.924,1.617-29.4-8.134-32.572-11.971l.2-2.2C2361.552,2517.561,2378.883,2516.593,2382.979,2515.342Z" transform="translate(-2340.692 -2422.691)" fill="#73325a"/>
        <g id="Group_1" data-name="Group 1" transform="translate(1.24 117.996)">
          <path id="Path_3" data-name="Path 3" d="M2337.829,2789.529l-2.822,29.55c-.508,7.792-6.481,13.753-13.565,13.753-.319,0-.637-.011-.968-.035-7.509-.567-13.163-7.638-12.632-15.784l1.712-26.114.177-2.8a21.081,21.081,0,0,0,5.218,3.577,22.537,22.537,0,0,0,8.087,2.172c.59.047,1.169.071,1.747.071a22.052,22.052,0,0,0,4.876-.543c.047-.012.106-.024.153-.035a20.432,20.432,0,0,0,7.8-3.66A.989.989,0,0,0,2337.829,2789.529Z" transform="translate(-2307.808 -2784.368)" fill="#fff" stroke="#ffcf2d" stroke-miterlimit="10" stroke-width="2"/>
          <path id="Path_4" data-name="Path 4" d="M2352.452,2803.141l-2,23.647c-.425,6.587-5.478,11.628-11.475,11.628q-.407,0-.815-.035c-6.339-.484-11.133-6.458-10.684-13.352l1.57-23.529" transform="translate(-2325.135 -2796.186)" fill="none" stroke="#ffcf2d" stroke-miterlimit="10" stroke-width="2"/>
          <path id="Path_5" data-name="Path 5" d="M2376.583,2765.2a25.653,25.653,0,0,1-4.994.378c-.579,0-1.157-.024-1.747-.059a23.874,23.874,0,0,1-8.087-2l-.779-3.825a2.481,2.481,0,0,1,2.456-3.211l11.333.331a2.486,2.486,0,0,1,2.408,2.715Z" transform="translate(-2354.602 -2756.487)" fill="#ffcf2d"/>
          <path id="Path_6" data-name="Path 6" d="M2375.927,2817.57l-1.428,17.957a5.951,5.951,0,0,1-6.67,5.49l-.248-.024c-4.439-.814-7.839-5.442-7.26-10.4l.9-14.592a23.948,23.948,0,0,0,8.087,2c.591.047,1.169.059,1.747.059A23.588,23.588,0,0,0,2375.927,2817.57Z" transform="translate(-2354.064 -2808.974)" fill="#ffcf2d"/>
          <path id="Path_7" data-name="Path 7" d="M2374.758,2839.054l-12.927-2.951a1.2,1.2,0,0,1,.13-2.361l12.361-1.452a1.384,1.384,0,0,0,.26-2.692l-11.841-3.754a1.838,1.838,0,0,1,.2-3.553l13.565-2.349s-10.129.885-14.71-1.641" transform="translate(-2354.63 -2811.002)" fill="none" stroke="#fff" stroke-linecap="round" stroke-linejoin="round" stroke-miterlimit="10" stroke-width="2"/>
        </g>
        <path id="Path_8" data-name="Path 8" d="M2363.979,1783.244l-24.391,66.407c-4.1,1.251-23.422,2.9-42.288-5.844l14.839-68.65A20.909,20.909,0,0,1,2332.871,1757h10.908A20.887,20.887,0,0,1,2363.979,1783.244Z" transform="translate(-2297.3 -1757)" fill="#fe5244"/>
        <path id="Path_9" data-name="Path 9" d="M2351.241,2437.262c-4.1,1.251-25.075,2.786-43.941-5.962" transform="translate(-2306.119 -2351.694)" fill="none" stroke="#fff" stroke-linecap="round" stroke-miterlimit="10" stroke-width="2"/>
      </g>
      <g id="RIGHT_LEG" transform="translate(14.898 1.086)">
        <path id="Path_10" data-name="Path 10" d="M2577.958,2541.787l-2.456,4.356-15.713,27.5a35.106,35.106,0,0,1-19.6,1.936l-.8-.224a20.4,20.4,0,0,1-8.689-4.416l11.463-30.636h.024C2546.142,2541.61,2559.742,2545.294,2577.958,2541.787Z" transform="translate(-2518.043 -2448.912)" fill="#a0505a"/>
        <path id="Path_11" data-name="Path 11" d="M2658.744,2541.876l-5.183,9.126c-19.951,3.188-31.261-8.819-31.261-8.819l.661-1.782C2626.928,2541.7,2640.528,2545.382,2658.744,2541.876Z" transform="translate(-2598.829 -2449)" fill="#73325a"/>
        <path id="Path_12" data-name="Path 12" d="M2697.306,1801.889l-27.212,55.912c-23.033,5.761-38.262,1.1-42.194-.2l28.475-76.158a24.919,24.919,0,0,1,22.962-15.241C2698.3,1766.2,2706.467,1785.278,2697.306,1801.889Z" transform="translate(-2603.768 -1766.2)" fill="#fe5244"/>
        <path id="Path_13" data-name="Path 13" d="M2692.466,2489.6c-23.033,5.761-38.734,1.1-42.666-.2" transform="translate(-2623.083 -2404.021)" fill="none" stroke="#fff" stroke-linecap="round" stroke-miterlimit="10" stroke-width="2"/>
        <line id="Line_1" data-name="Line 1" x1="41.851" y2="112.815" transform="translate(10.756 15.241)" fill="none" stroke="#fff" stroke-miterlimit="10" stroke-width="2"/>
        <g id="Group_2" data-name="Group 2" transform="translate(0 117.389)">
          <path id="Path_14" data-name="Path 14" d="M2465,2803.821l-.921,2.42-10.437,27.307c-2.987,9.362-12.809,14.922-21.439,12.786l-.472-.153c-6.056-1.5-9.9-8.8-7.532-15.241l11.924-29.137.248-.6a18.076,18.076,0,0,0,5.194,3.258,19.636,19.636,0,0,0,3.282,1.016l.8.224a32.271,32.271,0,0,0,10.33.437A35.959,35.959,0,0,0,2465,2803.821Z" transform="translate(-2423.49 -2796.4)" fill="#fff" stroke="#ffcf2d" stroke-miterlimit="10" stroke-width="2"/>
          <path id="Path_15" data-name="Path 15" d="M2489.487,2815.05l-9.149,24.178c-2.5,7.839-10.731,12.5-17.956,10.708l-.39-.13c-5.076-1.263-8.3-7.366-6.316-12.774l10.105-24.532" transform="translate(-2451.354 -2806.367)" fill="none" stroke="#ffcf2d" stroke-linecap="round" stroke-miterlimit="10" stroke-width="2"/>
          <path id="Path_16" data-name="Path 16" d="M2593.063,2766.621l-2.149,3.636a32.3,32.3,0,0,1-10.33-.437l-.8-.224a17.673,17.673,0,0,1-3.282-1.015l.85-5.9a2.49,2.49,0,0,1,2.975-2.078l11.1,2.325A2.479,2.479,0,0,1,2593.063,2766.621Z" transform="translate(-2558.436 -2760.546)" fill="#ffcf2d"/>
          <path id="Path_17" data-name="Path 17" d="M2542.238,2830.277l-.059.094-5.549,14.663c-1.523,4.758-6.505,7.579-10.9,6.493l-.236-.083a5.94,5.94,0,0,1-3.825-7.745l6.127-14.875.035-.224a19.666,19.666,0,0,0,3.282,1.015l.8.224A31.887,31.887,0,0,0,2542.238,2830.277Z" transform="translate(-2509.759 -2820.566)" fill="#ffcf2d"/>
          <path id="Path_18" data-name="Path 18" d="M2521.4,2846.133l12.75,1.381a1.443,1.443,0,0,0,.838-2.7l-9.928-5.3a1.436,1.436,0,0,1,.744-2.7l12.538.567a1.581,1.581,0,0,0,.815-2.975l-11.251-6a28.272,28.272,0,0,0,14.379,1.664" transform="translate(-2509.841 -2820.39)" fill="none" stroke="#fff" stroke-linecap="round" stroke-linejoin="round" stroke-miterlimit="10" stroke-width="2"/>
        </g>
      </g>
    </g>
    <g id="TIMER" transform="translate(1210.114 311.9)">
      <circle id="Ellipse_7" data-name="Ellipse 7" cx="87.055" cy="87.055" r="87.055" transform="translate(4.734 0)" fill="#d0f0e4"/>
      <path id="Path_19" data-name="Path 19" d="M1553.029,1136.367A91.833,91.833,0,0,1,1490.4,1049.3" transform="translate(-1490.4 -962.245)" fill="none" stroke="#ffcf2d" stroke-miterlimit="10" stroke-width="2"/>
      <g id="Group_3" data-name="Group 3" transform="translate(35.559 30.825)">
        <circle id="Ellipse_8" data-name="Ellipse 8" cx="56.23" cy="56.23" r="56.23" fill="none" stroke="#fff" stroke-linecap="round" stroke-miterlimit="10" stroke-width="2" stroke-dasharray="30.026 35.031"/>
      </g>
      <g id="Group_4" data-name="Group 4" transform="translate(91.789 30.836)">
        <line id="Line_2" data-name="Line 2" y2="9.362" fill="none" stroke="#fff" stroke-linecap="round" stroke-miterlimit="10" stroke-width="2"/>
        <line id="Line_3" data-name="Line 3" y2="9.374" transform="translate(0 103.075)" fill="none" stroke="#fff" stroke-linecap="round" stroke-miterlimit="10" stroke-width="2"/>
      </g>
      <g id="Group_5" data-name="Group 5" transform="translate(52.028 47.294)">
        <line id="Line_4" data-name="Line 4" x2="6.623" y2="6.635" fill="none" stroke="#fff" stroke-linecap="round" stroke-miterlimit="10" stroke-width="2"/>
        <line id="Line_5" data-name="Line 5" x2="6.623" y2="6.623" transform="translate(72.888 72.9)" fill="none" stroke="#fff" stroke-linecap="round" stroke-miterlimit="10" stroke-width="2"/>
      </g>
      <g id="Group_6" data-name="Group 6" transform="translate(35.559 87.055)">
        <line id="Line_6" data-name="Line 6" x2="9.374" fill="none" stroke="#fff" stroke-linecap="round" stroke-miterlimit="10" stroke-width="2"/>
        <line id="Line_7" data-name="Line 7" x2="9.362" transform="translate(103.087)" fill="none" stroke="#fff" stroke-linecap="round" stroke-miterlimit="10" stroke-width="2"/>
      </g>
      <g id="Group_7" data-name="Group 7" transform="translate(52.028 47.294)">
        <line id="Line_8" data-name="Line 8" y1="6.623" x2="6.623" transform="translate(0 72.9)" fill="none" stroke="#fff" stroke-linecap="round" stroke-miterlimit="10" stroke-width="2"/>
        <line id="Line_9" data-name="Line 9" y1="6.635" x2="6.623" transform="translate(72.888)" fill="none" stroke="#fff" stroke-linecap="round" stroke-miterlimit="10" stroke-width="2"/>
      </g>
      <g id="Group_8" data-name="Group 8" transform="translate(32.017 27.507)">
        <path id="Path_20" data-name="Path 20" d="M1821.372,664.22a59.723,59.723,0,0,1-59.772-59.772c0-16.563,6.422-31.769,17.98-42.264l4.758,5.242A43.987,43.987,0,0,0,1772.98,583.4a54.128,54.128,0,0,0-4.309,21.038,52.719,52.719,0,0,0,73.207,48.545,52.857,52.857,0,0,0,28.05-28.039,52.261,52.261,0,0,0,4.144-20.506,50.766,50.766,0,0,0-4.286-20.471,52.963,52.963,0,0,0-11.641-16.752,54.544,54.544,0,0,0-17.13-11.322,48.189,48.189,0,0,0-19.621-3.908V544.9a55.319,55.319,0,0,1,22.348,4.451,61.458,61.458,0,0,1,19.349,12.786,60.043,60.043,0,0,1,13.187,18.984,57.861,57.861,0,0,1,4.888,23.3,59.793,59.793,0,0,1-59.8,59.8Z" transform="translate(-1761.6 -544.9)" fill="#d0f0e4" stroke="#fff" stroke-linecap="round" stroke-linejoin="round" stroke-miterlimit="10" stroke-width="2"/>
      </g>
      <line id="Line_10" data-name="Line 10" x2="37.105" y2="38.062" transform="translate(62.322 57.033)" fill="none" stroke="#fe5244" stroke-linecap="round" stroke-miterlimit="10" stroke-width="2"/>
      <circle id="Ellipse_9" data-name="Ellipse 9" cx="2.94" cy="2.94" r="2.94" transform="translate(89.251 84.505)" fill="#d0f0e4" stroke="#fff" stroke-linecap="round" stroke-miterlimit="10" stroke-width="2"/>
      <path id="Path_21" data-name="Path 21" d="M2407.1,476.067l.531-3.79a2.892,2.892,0,0,1,3.707-2.338l3.707,1.122a2.9,2.9,0,0,1,1.782,4.014l-1.794,3.613" transform="translate(-2298.877 -451.169)" fill="none" stroke="#fff" stroke-linecap="round" stroke-miterlimit="10" stroke-width="2"/>
    </g>
    <g id="TABLE" transform="translate(1281.774 465.138)">
      <path id="Path_22" data-name="Path 22" d="M2192.8,2050.816V1898.7h137.69v152.116" transform="translate(-2181.537 -1864.605)" fill="none" stroke="#66b0f0" stroke-miterlimit="10" stroke-width="2"/>
      <path id="Path_23" data-name="Path 23" d="M2253.874,1679.951H2106.433a6.036,6.036,0,0,1-6.033-6.033v-22.986a6.036,6.036,0,0,1,6.033-6.033h147.441a6.036,6.036,0,0,1,6.033,6.033v22.986A6.036,6.036,0,0,1,2253.874,1679.951Z" transform="translate(-2100.046 -1640.768)" fill="#fff" stroke="#66b0f0" stroke-miterlimit="10" stroke-width="2"/>
      <path id="Path_24" data-name="Path 24" d="M2251.582,1644.951h-148.15a6.036,6.036,0,0,1-6.033-6.033v-22.986a6.036,6.036,0,0,1,6.033-6.033h148.15a6.036,6.036,0,0,1,6.033,6.033v22.986A6.036,6.036,0,0,1,2251.582,1644.951Z" transform="translate(-2097.4 -1609.9)" fill="#66b0f0"/>
    </g>
    <g id="BACKPACK" transform="translate(1402.144 563.078)">
      <path id="Path_25" data-name="Path 25" d="M3395.6,2468.637v-18.016a11.125,11.125,0,0,1,11.121-11.121h0a11.125,11.125,0,0,1,11.121,11.121v18.016" transform="translate(-3362.709 -2439.5)" fill="none" stroke="#ffcf2d" stroke-miterlimit="10" stroke-width="2"/>
      <path id="Path_26" data-name="Path 26" d="M3237.148,2626.3h41.426a8.752,8.752,0,0,0,8.748-8.748v-57.706a8.752,8.752,0,0,0-8.748-8.748h-41.426a8.752,8.752,0,0,0-8.748,8.748v57.706A8.744,8.744,0,0,0,3237.148,2626.3Z" transform="translate(-3215.248 -2537.925)" fill="#3fb1b5"/>
      <path id="Path_27" data-name="Path 27" d="M3336.7,2589.811a10.016,10.016,0,0,0-10.011-10.011h-32.277a10.016,10.016,0,0,0-10.011,10.011v39.88" transform="translate(-3264.637 -2563.237)" fill="none" stroke="#fff" stroke-miterlimit="10" stroke-width="2"/>
      <path id="Path_28" data-name="Path 28" d="M3379.158,2675.6h-28.251A8.6,8.6,0,0,1,3342.3,2667v-51.39a8.6,8.6,0,0,1,8.606-8.606h28.251a8.6,8.6,0,0,1,8.606,8.606V2667A8.6,8.6,0,0,1,3379.158,2675.6Z" transform="translate(-3315.701 -2587.226)" fill="#fff" stroke="#ffcf2d" stroke-miterlimit="10" stroke-width="2"/>
      <path id="Path_29" data-name="Path 29" d="M3448.3,2502.937v-18.015a11.125,11.125,0,0,1,11.121-11.121h0a11.125,11.125,0,0,1,11.121,11.121v18.015" transform="translate(-3409.188 -2469.751)" fill="none" stroke="#ffcf2d" stroke-miterlimit="10" stroke-width="2"/>
      <path id="Path_30" data-name="Path 30" d="M3415.575,2911.108h-27.79a4.086,4.086,0,0,1-4.085-4.085v-21.238a4.086,4.086,0,0,1,4.085-4.085h27.79a4.086,4.086,0,0,1,4.085,4.085v21.238A4.071,4.071,0,0,1,3415.575,2911.108Z" transform="translate(-3352.214 -2829.495)" fill="#ffcf2d"/>
      <line id="Line_11" data-name="Line 11" x1="3.494" transform="translate(18.04 66.454)" fill="none" stroke="#ffcf2d" stroke-miterlimit="10" stroke-width="2"/>
      <path id="Path_31" data-name="Path 31" d="M3130.69,2689.5c0,17.213-18.818,42.748-12.337,50.93,6.187,7.8,12.337-.012,12.337-.012Z" transform="translate(-3116.994 -2659.986)" fill="#fff" stroke="#3fb1b5" stroke-miterlimit="10" stroke-width="2"/>
      <line id="Line_12" data-name="Line 12" x2="31.226" transform="translate(33.706 60.091)" fill="none" stroke="#fff" stroke-linecap="round" stroke-miterlimit="10" stroke-width="2"/>
      <rect id="Rectangle_1" data-name="Rectangle 1" width="4.486" height="2.149" transform="translate(36.87 32.832)" fill="none" stroke="#ffcf2d" stroke-miterlimit="10" stroke-width="2"/>
      <rect id="Rectangle_2" data-name="Rectangle 2" width="4.486" height="2.149" transform="translate(59.029 32.832)" fill="none" stroke="#ffcf2d" stroke-miterlimit="10" stroke-width="2"/>
      <g id="Group_9" data-name="Group 9" transform="translate(33.706 60.091)">
        <line id="Line_13" data-name="Line 13" y1="1.44" fill="none" stroke="#fff" stroke-linecap="round" stroke-miterlimit="10" stroke-width="2"/>
        <line id="Line_14" data-name="Line 14" y1="1.44" transform="translate(2.833)" fill="none" stroke="#fff" stroke-linecap="round" stroke-miterlimit="10" stroke-width="2"/>
        <line id="Line_15" data-name="Line 15" y1="1.44" transform="translate(5.679)" fill="none" stroke="#fff" stroke-linecap="round" stroke-miterlimit="10" stroke-width="2"/>
        <line id="Line_16" data-name="Line 16" y1="1.44" transform="translate(8.512)" fill="none" stroke="#fff" stroke-linecap="round" stroke-miterlimit="10" stroke-width="2"/>
        <line id="Line_17" data-name="Line 17" y1="1.44" transform="translate(11.357)" fill="none" stroke="#fff" stroke-linecap="round" stroke-miterlimit="10" stroke-width="2"/>
        <line id="Line_18" data-name="Line 18" y1="1.44" transform="translate(14.19)" fill="none" stroke="#fff" stroke-linecap="round" stroke-miterlimit="10" stroke-width="2"/>
        <line id="Line_19" data-name="Line 19" y1="1.44" transform="translate(17.165)" fill="none" stroke="#fff" stroke-linecap="round" stroke-miterlimit="10" stroke-width="2"/>
        <line id="Line_20" data-name="Line 20" y1="1.44" transform="translate(20.011)" fill="none" stroke="#fff" stroke-linecap="round" stroke-miterlimit="10" stroke-width="2"/>
        <line id="Line_21" data-name="Line 21" y1="1.44" transform="translate(22.714)" fill="none" stroke="#fff" stroke-linecap="round" stroke-miterlimit="10" stroke-width="2"/>
        <line id="Line_22" data-name="Line 22" y1="1.44" transform="translate(25.547)" fill="none" stroke="#fff" stroke-linecap="round" stroke-miterlimit="10" stroke-width="2"/>
        <line id="Line_23" data-name="Line 23" y1="1.44" transform="translate(28.393)" fill="none" stroke="#fff" stroke-linecap="round" stroke-miterlimit="10" stroke-width="2"/>
        <line id="Line_24" data-name="Line 24" y1="1.44" transform="translate(31.226)" fill="none" stroke="#fff" stroke-linecap="round" stroke-miterlimit="10" stroke-width="2"/>
      </g>
      <path id="Path_32" data-name="Path 32" d="M3420.976,2954.775h0a1.264,1.264,0,0,1-1.252-1.428l.626-4.947h1.251l.626,4.947A1.257,1.257,0,0,1,3420.976,2954.775Z" transform="translate(-3383.976 -2888.321)" fill="#fff" stroke="#3fb1b5" stroke-miterlimit="10" stroke-width="2"/>
    </g>
    <g id="CHARACTER" transform="translate(1292.34 376.583)">
      <g id="TEST" transform="translate(47.518 88.543)">
        <rect id="Rectangle_3" data-name="Rectangle 3" width="52.83" height="27.944" fill="#fff"/>
        <g id="Group_16" data-name="Group 16" transform="translate(37.436 7.52)">
          <g id="Group_10" data-name="Group 10" transform="translate(0 12.266)">
            <circle id="Ellipse_10" data-name="Ellipse 10" cx="1.098" cy="1.098" r="1.098" transform="translate(8.11)" fill="#fe5244" stroke="#fe5244" stroke-miterlimit="10" stroke-width="2"/>
            <circle id="Ellipse_11" data-name="Ellipse 11" cx="1.098" cy="1.098" r="1.098" transform="translate(4.049)" fill="#fff" stroke="#fe5244" stroke-miterlimit="10" stroke-width="2"/>
            <circle id="Ellipse_12" data-name="Ellipse 12" cx="1.098" cy="1.098" r="1.098" fill="#fff" stroke="#fe5244" stroke-miterlimit="10" stroke-width="2"/>
          </g>
          <g id="Group_11" data-name="Group 11" transform="translate(0 8.17)">
            <circle id="Ellipse_13" data-name="Ellipse 13" cx="1.098" cy="1.098" r="1.098" transform="translate(8.11)" fill="#fe5244" stroke="#fe5244" stroke-miterlimit="10" stroke-width="2"/>
            <circle id="Ellipse_14" data-name="Ellipse 14" cx="1.098" cy="1.098" r="1.098" transform="translate(4.049)" fill="#fff" stroke="#fe5244" stroke-miterlimit="10" stroke-width="2"/>
            <circle id="Ellipse_15" data-name="Ellipse 15" cx="1.098" cy="1.098" r="1.098" fill="#fff" stroke="#fe5244" stroke-miterlimit="10" stroke-width="2"/>
          </g>
          <g id="Group_13" data-name="Group 13">
            <g id="Group_12" data-name="Group 12">
              <circle id="Ellipse_16" data-name="Ellipse 16" cx="1.098" cy="1.098" r="1.098" transform="translate(8.11)" fill="#fff" stroke="#fe5244" stroke-miterlimit="10" stroke-width="2"/>
              <circle id="Ellipse_17" data-name="Ellipse 17" cx="1.098" cy="1.098" r="1.098" transform="translate(4.049)" fill="#fe5244" stroke="#fe5244" stroke-miterlimit="10" stroke-width="2"/>
              <circle id="Ellipse_18" data-name="Ellipse 18" cx="1.098" cy="1.098" r="1.098" fill="#fff" stroke="#fe5244" stroke-miterlimit="10" stroke-width="2"/>
            </g>
          </g>
          <g id="Group_15" data-name="Group 15" transform="translate(0 4.085)">
            <g id="Group_14" data-name="Group 14">
              <circle id="Ellipse_19" data-name="Ellipse 19" cx="1.098" cy="1.098" r="1.098" transform="translate(8.11)" fill="#fff" stroke="#fe5244" stroke-miterlimit="10" stroke-width="2"/>
              <circle id="Ellipse_20" data-name="Ellipse 20" cx="1.098" cy="1.098" r="1.098" transform="translate(4.049)" fill="#fff" stroke="#fe5244" stroke-miterlimit="10" stroke-width="2"/>
              <circle id="Ellipse_21" data-name="Ellipse 21" cx="1.098" cy="1.098" r="1.098" fill="#fe5244" stroke="#fe5244" stroke-miterlimit="10" stroke-width="2"/>
            </g>
          </g>
        </g>
        <g id="Group_22" data-name="Group 22" transform="translate(5.442 3.435)">
          <g id="Group_17" data-name="Group 17" transform="translate(4.049 8.17)">
            <circle id="Ellipse_22" data-name="Ellipse 22" cx="1.098" cy="1.098" r="1.098" transform="translate(4.061)" fill="#fe5244" stroke="#fe5244" stroke-miterlimit="10" stroke-width="2"/>
            <circle id="Ellipse_23" data-name="Ellipse 23" cx="1.098" cy="1.098" r="1.098" fill="#fff" stroke="#fe5244" stroke-miterlimit="10" stroke-width="2"/>
          </g>
          <g id="Group_19" data-name="Group 19">
            <g id="Group_18" data-name="Group 18">
              <circle id="Ellipse_24" data-name="Ellipse 24" cx="1.098" cy="1.098" r="1.098" fill="#fff" stroke="#fe5244" stroke-miterlimit="10" stroke-width="2"/>
            </g>
          </g>
          <g id="Group_21" data-name="Group 21" transform="translate(0 4.085)">
            <g id="Group_20" data-name="Group 20">
              <circle id="Ellipse_25" data-name="Ellipse 25" cx="1.098" cy="1.098" r="1.098" transform="translate(8.11)" fill="#fff" stroke="#fe5244" stroke-miterlimit="10" stroke-width="2"/>
              <circle id="Ellipse_26" data-name="Ellipse 26" cx="1.098" cy="1.098" r="1.098" transform="translate(4.049)" fill="#fff" stroke="#fe5244" stroke-miterlimit="10" stroke-width="2"/>
              <circle id="Ellipse_27" data-name="Ellipse 27" cx="1.098" cy="1.098" r="1.098" fill="#fe5244" stroke="#fe5244" stroke-miterlimit="10" stroke-width="2"/>
            </g>
          </g>
        </g>
        <g id="Group_28" data-name="Group 28" transform="translate(20.79 7.52)">
          <g id="Group_23" data-name="Group 23" transform="translate(0 8.17)">
            <circle id="Ellipse_28" data-name="Ellipse 28" cx="1.098" cy="1.098" r="1.098" transform="translate(8.11)" fill="#fff" stroke="#fe5244" stroke-miterlimit="10" stroke-width="2"/>
            <circle id="Ellipse_29" data-name="Ellipse 29" cx="1.098" cy="1.098" r="1.098" transform="translate(4.049)" fill="#fff" stroke="#fe5244" stroke-miterlimit="10" stroke-width="2"/>
            <circle id="Ellipse_30" data-name="Ellipse 30" cx="1.098" cy="1.098" r="1.098" fill="#fe5244" stroke="#fe5244" stroke-miterlimit="10" stroke-width="2"/>
          </g>
          <g id="Group_25" data-name="Group 25">
            <g id="Group_24" data-name="Group 24">
              <circle id="Ellipse_31" data-name="Ellipse 31" cx="1.098" cy="1.098" r="1.098" transform="translate(8.11)" fill="#fe5244" stroke="#fe5244" stroke-miterlimit="10" stroke-width="2"/>
              <circle id="Ellipse_32" data-name="Ellipse 32" cx="1.098" cy="1.098" r="1.098" transform="translate(4.049)" fill="#fff" stroke="#fe5244" stroke-miterlimit="10" stroke-width="2"/>
              <circle id="Ellipse_33" data-name="Ellipse 33" cx="1.098" cy="1.098" r="1.098" fill="#fff" stroke="#fe5244" stroke-miterlimit="10" stroke-width="2"/>
            </g>
          </g>
          <g id="Group_27" data-name="Group 27" transform="translate(0 4.085)">
            <g id="Group_26" data-name="Group 26">
              <circle id="Ellipse_34" data-name="Ellipse 34" cx="1.098" cy="1.098" r="1.098" transform="translate(8.11)" fill="#fff" stroke="#fe5244" stroke-miterlimit="10" stroke-width="2"/>
              <circle id="Ellipse_35" data-name="Ellipse 35" cx="1.098" cy="1.098" r="1.098" transform="translate(4.049)" fill="#fe5244" stroke="#fe5244" stroke-miterlimit="10" stroke-width="2"/>
              <circle id="Ellipse_36" data-name="Ellipse 36" cx="1.098" cy="1.098" r="1.098" fill="#fff" stroke="#fe5244" stroke-miterlimit="10" stroke-width="2"/>
            </g>
          </g>
        </g>
      </g>
      <g id="BLOUSE" transform="translate(0 23.729)">
        <path id="Path_33" data-name="Path 33" d="M2322.854,1131.965h-54.483l.047-6.351H2235.6l-9.551-27.979-10.224,18.83,28.865,24.627-13.8,18.7-34.095-21.852a21.78,21.78,0,0,1-9.893-18.251h0a21.683,21.683,0,0,1,2.727-10.542l15.914-28.782a37.909,37.909,0,0,1,33.174-19.562h51.107a26.157,26.157,0,0,1,21.368,11.074l24.78,34.5A16.151,16.151,0,0,1,2322.854,1131.965Z" transform="translate(-2186.9 -1060.8)" fill="#fff" stroke="#fe5244" stroke-miterlimit="10" stroke-width="2"/>
        <path id="Path_34" data-name="Path 34" d="M2564.175,1748.645c-4.038,5.431-9.008,8.547-11.121,6.977s-.555-7.237,3.471-12.668,8.535-8.311,10.648-6.741S2568.2,1743.226,2564.175,1748.645Z" transform="translate(-2508.996 -1656.1)" fill="#fe5244"/>
        <path id="Path_35" data-name="Path 35" d="M2663.1,1061.2l16.351,22.655,15.088-22.655Z" transform="translate(-2606.881 -1061.153)" fill="none" stroke="#fe5244" stroke-miterlimit="10" stroke-width="2"/>
        <circle id="Ellipse_37" data-name="Ellipse 37" cx="1.712" cy="1.712" r="1.712" transform="translate(71.035 27.531)" fill="none" stroke="#fe5244" stroke-miterlimit="10" stroke-width="2"/>
        <circle id="Ellipse_38" data-name="Ellipse 38" cx="1.712" cy="1.712" r="1.712" transform="translate(71.035 38.392)" fill="none" stroke="#fe5244" stroke-miterlimit="10" stroke-width="2"/>
        <path id="Path_36" data-name="Path 36" d="M2905.916,1360.6l7.8,12.1H2880.9v24.083" transform="translate(-2798.969 -1325.207)" fill="none" stroke="#fe5244" stroke-miterlimit="10" stroke-width="2"/>
        <line id="Line_25" data-name="Line 25" x2="8.606" transform="translate(114.751 47.494)" fill="none" stroke="#fe5244" stroke-miterlimit="10" stroke-width="2"/>
        <ellipse id="Ellipse_39" data-name="Ellipse 39" cx="4.769" cy="12.242" rx="4.769" ry="12.242" transform="translate(77.162 47.093)" fill="#fe5244"/>
        <path id="Path_37" data-name="Path 37" d="M2920.9,1463.4c2.633,0,4.769,5.289,4.769,11.806s-2.137,11.806-4.769,11.806" transform="translate(-2834.246 -1415.87)" fill="none" stroke="#fe5244" stroke-miterlimit="10" stroke-width="2"/>
        <path id="Path_38" data-name="Path 38" d="M2521.954,1731.722c-2.113-1.57-.555-7.237,3.471-12.667s8.3-8.311,10.413-6.741" transform="translate(-2481.567 -1635.022)" fill="none" stroke="#fe5244" stroke-miterlimit="10" stroke-width="2"/>
      </g>
      <g id="HAIR" transform="translate(26.468 0)">
        <path id="Path_39" data-name="Path 39" d="M2440.969,873.79c.083-11.64,7.815-14.828,20.518-13.813,13.695,1.1,8.087,19.94,15.69,20.565,3.188.26,6.824-3.353,11.664-6.328a25.043,25.043,0,0,1,39.018,20.778c0,6.363-2.963,12.514-6.871,16.929,0,0-14.769-20.743-20.495-22.69-11.263-3.825-14.84,6.068-22.655,7.6a10.669,10.669,0,0,1-3.329.118c-11.121-1.275-9-19.609-9-19.609-2.881-1.181-3.506-4.167-3.613-5.974a12.5,12.5,0,0,0,.024-1.452,9.239,9.239,0,0,0-.024,1.452c-.236,3.4-2.314,11.534-13.9,8.618v3.955c0,23.954.39,28.605-4.463,34.626-.72.9-5.537,8.134,3.093,12.042,11.121,5.029,3.27,18.263,3.27,18.263h-23.529s-13.966-2.479-15.182-15.159c-1.735-18.122,20.991-22.974,23.954-23.529a14.054,14.054,0,0,1-11.392-13.447c0-6.1,4.687-11.263,9.5-12.963.012,0,.012,0,.024-.012l.425-.142c3.766-1.3,6.54-4.156,7.154-7.615Z" transform="translate(-2411.1 -859.8)" fill="#ffcf2d"/>
        <g id="Group_29" data-name="Group 29" transform="translate(50.564 7.497)">
          <path id="Path_40" data-name="Path 40" d="M2839.7,929.923h0a.3.3,0,0,1-.3-.3l.095-6.033a.292.292,0,0,1,.295-.3h0a.3.3,0,0,1,.3.3l-.095,6.033A.308.308,0,0,1,2839.7,929.923Z" transform="translate(-2839.4 -923.3)" fill="#a0505a"/>
        </g>
        <g id="Group_30" data-name="Group 30" transform="translate(33.769 17.465)">
          <path id="Path_41" data-name="Path 41" d="M2700.793,1011.262a.315.315,0,0,1-.142-.035c-2.857-1.5-3.459-3.034-3.495-3.093a.293.293,0,0,1,.177-.378.3.3,0,0,1,.378.165c.012.024.59,1.4,3.211,2.786a.307.307,0,0,1,.13.4A.294.294,0,0,1,2700.793,1011.262Z" transform="translate(-2697.138 -1007.737)" fill="#a0505a"/>
        </g>
        <circle id="Ellipse_40" data-name="Ellipse 40" cx="3.542" cy="3.542" r="3.542" transform="translate(73.538 3.648)" fill="#ffcf2d"/>
        <circle id="Ellipse_41" data-name="Ellipse 41" cx="2.845" cy="2.845" r="2.845" transform="translate(32.548 61.047)" fill="#ffcf2d"/>
      </g>
      <g id="ARMS" transform="translate(44.555 64.608)">
        <g id="Group_31" data-name="Group 31" transform="translate(0 39.282)">
          <path id="Path_42" data-name="Path 42" d="M2599.616,1742.71l-.012,2.149a1.4,1.4,0,0,1-.118.543l-5.171,11.522a4.692,4.692,0,0,1-4.262,2.727h-11.062a12.362,12.362,0,0,1-7.615-2.633l-.39-.307-6.587-5.183h0a28.238,28.238,0,0,1,2.975-4.935,22.665,22.665,0,0,1,7.308-6.694h15.879c1.263,2.822-2.845,5.088-2.845,5.088h7.178l2.6-2.821A1.247,1.247,0,0,1,2599.616,1742.71Z" transform="translate(-2564.388 -1739.888)" fill="#a0505a"/>
          <path id="Path_43" data-name="Path 43" d="M2726.677,1854.4a4.692,4.692,0,0,1-4.262,2.727H2713.1" transform="translate(-2695.533 -1840.871)" fill="none" stroke="#73325a" stroke-linecap="round" stroke-miterlimit="10" stroke-width="2"/>
          <path id="Path_44" data-name="Path 44" d="M2740.477,1823.5a4.692,4.692,0,0,1-4.262,2.727H2726.9" transform="translate(-2707.704 -1813.619)" fill="none" stroke="#73325a" stroke-linecap="round" stroke-miterlimit="10" stroke-width="2"/>
          <path id="Path_45" data-name="Path 45" d="M2755.376,1789.1a4.691,4.691,0,0,1-4.262,2.727H2741.8" transform="translate(-2720.845 -1783.28)" fill="none" stroke="#73325a" stroke-linecap="round" stroke-miterlimit="10" stroke-width="2"/>
          <path id="Path_46" data-name="Path 46" d="M2574.807,1751.948a23.007,23.007,0,0,1-3.908,4.675l-.012-.012-6.588-5.183h0a28.265,28.265,0,0,1,2.975-4.935,22.666,22.666,0,0,1,7.308-6.694h3.412A19.609,19.609,0,0,1,2574.807,1751.948Z" transform="translate(-2564.3 -1739.8)" fill="#73325a"/>
        </g>
        <g id="Group_33" data-name="Group 33" transform="translate(12.727)">
          <path id="Path_47" data-name="Path 47" d="M2749.2,1422.071s5.737-15.312,7.957-15.005-4.947,13.872-4.947,13.872Z" transform="translate(-2740.098 -1407.061)" fill="#fe5244"/>
          <g id="Group_32" data-name="Group 32" transform="translate(0 12.979)">
            <path id="Path_48" data-name="Path 48" d="M2701.52,1522.566c0,6.552-2.007,11.888-4.522,12.219a1.737,1.737,0,0,1-.248.012h-23.375a1.27,1.27,0,0,1-1.275-1.275v-7.461a5.063,5.063,0,0,1,3.27-4.746l9.787-3.707a7.959,7.959,0,0,1,2.774-.508h13.081A29.065,29.065,0,0,1,2701.52,1522.566Z" transform="translate(-2672.1 -1517.088)" fill="#a0505a"/>
            <path id="Path_49" data-name="Path 49" d="M2685.458,1566.8l-7.39,2.8a3.833,3.833,0,0,0-2.468,3.577" transform="translate(-2675.187 -1560.921)" fill="none" stroke="#73325a" stroke-linecap="round" stroke-miterlimit="10" stroke-width="2"/>
            <path id="Path_50" data-name="Path 50" d="M2685.458,1604.6l-7.39,2.8a3.833,3.833,0,0,0-2.468,3.577" transform="translate(-2675.187 -1594.258)" fill="none" stroke="#73325a" stroke-linecap="round" stroke-miterlimit="10" stroke-width="2"/>
            <line id="Line_26" data-name="Line 26" x1="7.39" y2="2.798" transform="translate(2.479 14.509)" fill="none" stroke="#73325a" stroke-linecap="round" stroke-miterlimit="10" stroke-width="2"/>
            <path id="Path_51" data-name="Path 51" d="M2850.039,1522.478c0,6.552-2.007,11.888-4.522,12.219a1.753,1.753,0,0,1-.248.012c-2.633,0-4.77-5.478-4.77-12.242a33.353,33.353,0,0,1,.555-5.466h8.417A32.337,32.337,0,0,1,2850.039,1522.478Z" transform="translate(-2820.619 -1517)" fill="#73325a"/>
          </g>
        </g>
      </g>
      <g id="HEAD" transform="translate(63.396 11.558)">
        <path id="HEAD_1_" d="M2745.244,966.318a3.04,3.04,0,0,1-.626,1.842,3,3,0,0,1-1.629,1.074l-1.629.425v1.818a7.94,7.94,0,0,1-7.945,7.945h-1.57a7.948,7.948,0,0,1-7.945-7.91v-5.194c11.581,2.928,13.659-5.218,13.9-8.618.094,1.724.673,4.51,3.223,5.8l.449-.118A3.043,3.043,0,0,1,2745.244,966.318Z" transform="translate(-2723.9 -957.7)" fill="#a0505a"/>
        <g id="FACE" transform="translate(2.149 7.638)">
          <path id="Path_52" data-name="Path 52" d="M2821.3,1042.958a5.839,5.839,0,0,1,3.8.956" transform="translate(-2811.95 -1040.514)" fill="none" stroke="#73325a" stroke-linecap="round" stroke-miterlimit="10" stroke-width="2"/>
          <path id="Path_53" data-name="Path 53" d="M2742.1,1045.434a4.568,4.568,0,0,1,3.754-.083c1.181.519,1.96,3.306,1.983,6.989" transform="translate(-2742.1 -1042.317)" fill="none" stroke="#73325a" stroke-linecap="round" stroke-miterlimit="10" stroke-width="2"/>
          <ellipse id="Ellipse_42" data-name="Ellipse 42" cx="0.46" cy="0.885" rx="0.46" ry="0.885" transform="translate(1.806 4.947)" fill="#73325a"/>
          <ellipse id="Ellipse_43" data-name="Ellipse 43" cx="0.46" cy="0.885" rx="0.46" ry="0.885" transform="translate(10.377 4.947)" fill="#73325a"/>
          <path id="Path_54" data-name="Path 54" d="M2875.6,1024.525a2.173,2.173,0,0,1,1.724-2.125" transform="translate(-2859.84 -1022.4)" fill="none" stroke="#73325a" stroke-linecap="round" stroke-miterlimit="10" stroke-width="2"/>
        </g>
      </g>
    </g>
    <g id="PLANT" transform="translate(1172.594 514.261)">
      <g id="Group_35" data-name="Group 35">
        <path id="Path_55" data-name="Path 55" d="M1965.423,2474.242c1.4,3.305.992,10.106-6.08,10.011-8.772-.118-8.547-23.753-8.547-23.753S1959.756,2460.913,1965.423,2474.242Z" transform="translate(-1858.924 -2409.204)" fill="#3fb1b5"/>
        <path id="Path_56" data-name="Path 56" d="M1376.95,2493.3c-2.2,4.652.756,8.394,3.235,7.107,4.333-2.255,6.2-8.051,6.2-8.051S1378.921,2489.146,1376.95,2493.3Z" transform="translate(-1352.146 -2436.256)" fill="#3fb1b5"/>
        <path id="Path_57" data-name="Path 57" d="M1723.474,2326.164c-4.7-9.409-10-13.884-18.488-13.884-14.3,0-23.47,15.3-25.217,35.086-.212-2.456-2.751-4.97-2.94-7.52-2.55-33.882,16.02-47.246,29.951-47.246C1718.185,2292.588,1721.031,2308.975,1723.474,2326.164Z" transform="translate(-1617.093 -2261.126)" fill="#fff" stroke="#3fb1b5" stroke-miterlimit="10" stroke-width="2"/>
        <path id="Path_58" data-name="Path 58" d="M1677,2407.546c-2.55-33.882,16.882-47.246,29.715-47.246,7.119,0,11.581,4.2,15.017,13.765" transform="translate(-1617.249 -2320.834)" fill="none" stroke="#3fb1b5" stroke-miterlimit="10" stroke-width="2"/>
        <path id="Path_59" data-name="Path 59" d="M1178.852,2127.742c-3.813,3.778-10.708,19.267-2.172,22.336s18.535-27.248,18.535-27.248S1187.978,2118.687,1178.852,2127.742Z" transform="translate(-1172.594 -2110.564)" fill="#ffcf2d" stroke="#ffcf2d" stroke-miterlimit="10" stroke-width="2"/>
        <g id="Group_34" data-name="Group 34" transform="translate(36.161 79.417)">
          <path id="Path_60" data-name="Path 60" d="M1519.37,2750.226l-3.046,16.516a17.479,17.479,0,0,1-34.378,0l-3.046-16.516a5.5,5.5,0,0,1,.52-2.326c2.444,2.455,10.389,4.25,19.8,4.25,9.279,0,17.118-1.747,19.692-4.132A5.518,5.518,0,0,1,1519.37,2750.226Z" transform="translate(-1478.9 -2742.092)" fill="#d0f0e4"/>
          <path id="Path_61" data-name="Path 61" d="M1533.338,2702.915c0,2.337-8.134,4.227-18.169,4.227s-18.169-1.889-18.169-4.227a1.026,1.026,0,0,1,.154-.543c1.157-2.078,8.783-3.672,18.015-3.672,9.515,0,17.319,1.7,18.1,3.86A.951.951,0,0,1,1533.338,2702.915Z" transform="translate(-1494.863 -2698.7)" fill="#66b0f0"/>
        </g>
        <path id="Path_62" data-name="Path 62" d="M1276.153,2084.993a96.522,96.522,0,0,1-3.742,27.129h-6.895c-.024-41.048-14.993-74.3-33.446-74.3-4.793,0-9.35,2.243-13.47,6.281,12.136-14.2,17.177-18.1,24.107-18.1C1259.259,2026,1276.153,2052.409,1276.153,2084.993Z" transform="translate(-1213.169 -2026)" fill="#fff" stroke="#ffcf2d" stroke-miterlimit="10" stroke-width="2"/>
        <path id="Path_63" data-name="Path 63" d="M1284,2074.6c3.943-2.869,6.481-4.2,11-4.2,18.464,0,37.152,30.813,32.229,80.869" transform="translate(-1270.848 -2065.158)" fill="none" stroke="#ffcf2d" stroke-miterlimit="10" stroke-width="2"/>
        <path id="Path_64" data-name="Path 64" d="M1420.854,2466.474s1.015-38.545-19.987-38.675c-5.56-.035-10.767,8.783-10.767,8.783s24.591-6.422,25.807,29.892Z" transform="translate(-1364.422 -2380.364)" fill="#fff" stroke="#3fb1b5" stroke-miterlimit="10" stroke-width="2"/>
        <path id="Path_65" data-name="Path 65" d="M1451.97,2489.559c.3-10.861-2.444-37.07-23.67-35.665" transform="translate(-1398.112 -2403.33)" fill="none" stroke="#3fb1b5" stroke-miterlimit="10" stroke-width="2"/>
        <circle id="Ellipse_44" data-name="Ellipse 44" cx="1.948" cy="1.948" r="1.948" transform="translate(23.636 15.761)" fill="#fff" stroke="#ffcf2d" stroke-miterlimit="10" stroke-width="2"/>
        <circle id="Ellipse_45" data-name="Ellipse 45" cx="2.845" cy="2.845" r="2.845" transform="translate(68.651 69.677)" fill="#fff" stroke="#ffcf2d" stroke-miterlimit="10" stroke-width="2"/>
        <circle id="Ellipse_46" data-name="Ellipse 46" cx="5.372" cy="5.372" r="5.372" transform="translate(61.402 9.74)" fill="#d0f0e4"/>
      </g>
      <g id="Group_36" data-name="Group 36" transform="translate(31.876 111.501)">
        <path id="Path_66" data-name="Path 66" d="M1491.605,2996.057l-4.758-23.694a2.263,2.263,0,0,0-4.156-.72h0c-6.564,10.92-24.391,10.991-31.061.106l-.118-.2a2.263,2.263,0,0,0-4.144.732l-4.769,23.765" transform="translate(-1442.6 -2970.471)" fill="none" stroke="#66b0f0" stroke-miterlimit="10" stroke-width="2"/>
        <line id="Line_27" data-name="Line 27" y2="16.28" transform="translate(24.509 9.413)" fill="none" stroke="#66b0f0" stroke-miterlimit="10" stroke-width="2"/>
      </g>
      <line id="Line_28" data-name="Line 28" x2="158.243" transform="translate(21.074 137.088)" fill="none" stroke="#66b0f0" stroke-miterlimit="10" stroke-width="2"/>
    </g>
  </g>
</svg>
