<svg xmlns="http://www.w3.org/2000/svg" width="320.538" height="229.946" viewBox="0 0 320.538 229.946">
  <g id="_8_SCENE" data-name="8 SCENE" transform="translate(-782.5 -520.859)">
    <g id="GIRL_x27_S_LEGS" transform="translate(870.01 628.761)">
      <g id="CHAIR" transform="translate(0 11.357)">
        <g id="Group_71" data-name="Group 71" transform="translate(0.512 8.609)">
          <line id="Line_48" data-name="Line 48" x1="9.941" y2="100.544" fill="none" stroke="#66b0f0" stroke-linecap="round" stroke-miterlimit="10" stroke-width="1"/>
          <line id="Line_49" data-name="Line 49" x2="9.941" y2="100.544" transform="translate(50.403)" fill="none" stroke="#66b0f0" stroke-linecap="round" stroke-miterlimit="10" stroke-width="1"/>
          <path id="Path_167" data-name="Path 167" d="M1760.6,2597.308s23.944-12.642,54.222,0" transform="translate(-1757.498 -2526.167)" fill="none" stroke="#66b0f0" stroke-linecap="round" stroke-miterlimit="10" stroke-width="1"/>
        </g>
        <path id="Path_168" data-name="Path 168" d="M1778.333,1804.609h-50.458a6.075,6.075,0,0,1-6.074-6.074V1796h62.607v2.525A6.078,6.078,0,0,1,1778.333,1804.609Z" transform="translate(-1721.8 -1796)" fill="#d0f0e4" stroke="#66b0f0" stroke-linejoin="round" stroke-miterlimit="10" stroke-width="1"/>
      </g>
      <g id="LEGS" transform="translate(7.254)">
        <g id="RIGHT_1_" transform="translate(3.771 0.834)">
          <g id="Group_72" data-name="Group 72" transform="translate(0 51.777)">
            <path id="Path_169" data-name="Path 169" d="M1918.188,2282.1l-1.845,2.078a3.082,3.082,0,1,0,4.612,4.09l1.956-2.2c0-.009.009-.568.009-.578a11.581,11.581,0,0,1-2.916-1.547A18.649,18.649,0,0,1,1918.188,2282.1Z" transform="translate(-1908.539 -2278.066)" fill="none" stroke="#9a3b82" stroke-linecap="round" stroke-miterlimit="10" stroke-width="1"/>
            <path id="Path_170" data-name="Path 170" d="M1841.691,2246.952l8.9-8.152,10.351,3.708-10.267,14.785a2.592,2.592,0,0,1-3.633.624l-4.929-3.559A4.8,4.8,0,0,1,1841.691,2246.952Z" transform="translate(-1840.139 -2238.8)" fill="#fff" stroke="#fe5244" stroke-miterlimit="10" stroke-width="1"/>
          </g>
          <g id="Group_73" data-name="Group 73" transform="translate(10.093)">
            <path id="Path_171" data-name="Path 171" d="M1982.984,1692.984a12.3,12.3,0,0,1-1.49,8.785l-21.875,36.754h0c-.2.829-2.842.959-5.879.242s-5.348-1.994-5.152-2.823l10.183-43.331a12.394,12.394,0,0,1,24.214.373Z" transform="translate(-1948.566 -1683.048)" fill="#e57281"/>
            <path id="Path_172" data-name="Path 172" d="M1983.117,1696.447a12.248,12.248,0,0,0-4.817-2.3,12.4,12.4,0,0,0-14.906,9.233l-8.4,35.757c-.438-.065-.885-.158-1.351-.27-3.047-.717-5.348-1.994-5.152-2.823l10.183-43.331a12.4,12.4,0,0,1,24.223.373A11.93,11.93,0,0,1,1983.117,1696.447Z" transform="translate(-1948.476 -1683.138)" fill="#9a3b82"/>
            <path id="Path_173" data-name="Path 173" d="M1954.186,1995.2l-5.6,23.813c-.2.829,2.105,2.115,5.152,2.823s5.683.587,5.879-.242h0l13.118-22.033Z" transform="translate(-1948.566 -1966.118)" fill="#d82f25"/>
            <line id="Line_50" data-name="Line 50" x1="18.549" y1="4.36" transform="translate(5.62 29.082)" fill="none" stroke="#fff" stroke-linecap="round" stroke-miterlimit="10" stroke-width="1"/>
            <line id="Line_51" data-name="Line 51" x2="17.58" y2="4.137" transform="translate(4.996 31.989)" fill="none" stroke="#fff" stroke-linecap="round" stroke-miterlimit="10" stroke-width="1" opacity="0.7"/>
            <line id="Line_52" data-name="Line 52" x2="16.509" y2="3.885" transform="translate(4.213 35.305)" fill="none" stroke="#fff" stroke-linecap="round" stroke-miterlimit="10" stroke-width="1" opacity="0.7"/>
            <line id="Line_53" data-name="Line 53" x2="15.438" y2="3.624" transform="translate(3.431 38.631)" fill="none" stroke="#fff" stroke-linecap="round" stroke-miterlimit="10" stroke-width="1" opacity="0.7"/>
            <line id="Line_54" data-name="Line 54" x2="14.357" y2="3.373" transform="translate(2.657 41.948)" fill="none" stroke="#fff" stroke-linecap="round" stroke-miterlimit="10" stroke-width="1" opacity="0.7"/>
            <line id="Line_55" data-name="Line 55" x2="13.295" y2="3.121" transform="translate(1.875 45.265)" fill="none" stroke="#fff" stroke-linecap="round" stroke-miterlimit="10" stroke-width="1" opacity="0.7"/>
            <line id="Line_56" data-name="Line 56" x2="12.223" y2="2.87" transform="translate(1.092 48.581)" fill="none" stroke="#fff" stroke-linecap="round" stroke-miterlimit="10" stroke-width="1" opacity="0.7"/>
            <line id="Line_57" data-name="Line 57" x2="11.292" y2="2.655" transform="translate(0.31 51.898)" fill="none" stroke="#fff" stroke-linecap="round" stroke-miterlimit="10" stroke-width="1" opacity="0.7"/>
          </g>
        </g>
        <g id="LEFT_1_">
          <path id="Path_174" data-name="Path 174" d="M1824.455,1745.949v-59.458a12.392,12.392,0,0,0-12.391-12.391h0a12.391,12.391,0,0,0-11.823,16.118l12.885,40.788-1.882,11.1a6.034,6.034,0,0,0,4.127,6.745l3.578,1.137A4.235,4.235,0,0,0,1824.455,1745.949Z" transform="translate(-1799.66 -1674.1)" fill="#e57281"/>
          <path id="Path_175" data-name="Path 175" d="M1877.632,2012.3v25.4c0,.857-2.534,1.574-5.664,1.574s-5.665-.727-5.665-1.584h0l-8-25.388Z" transform="translate(-1852.837 -1980.791)" fill="#fe5244"/>
          <path id="Path_176" data-name="Path 176" d="M1858.2,2009.3h19.341l.093,24.745" transform="translate(-1852.746 -1978.071)" fill="none" stroke="#fff" stroke-linecap="round" stroke-miterlimit="10" stroke-width="1"/>
          <path id="Path_177" data-name="Path 177" d="M1923.2,2293.81a6.034,6.034,0,0,0,4.127,6.745l3.578,1.136a4.226,4.226,0,0,0,5.506-4.025l-.317-14.944c0,.857-2.218,1.575-5.338,1.575s-5.45-.941-5.46-1.8Z" transform="translate(-1911.611 -2225.818)" fill="#fff" stroke="#fe5244" stroke-miterlimit="10" stroke-width="1"/>
          <path id="Path_178" data-name="Path 178" d="M1972.667,2319.787v2.776a3.084,3.084,0,0,1-6.167,0V2319.6a16.516,16.516,0,0,0,3.578.364A18.247,18.247,0,0,0,1972.667,2319.787Z" transform="translate(-1950.956 -2259.462)" fill="#fe5244"/>
          <line id="Line_58" data-name="Line 58" x1="17.832" transform="translate(6.674 35.422)" fill="none" stroke="#fff" stroke-linecap="round" stroke-miterlimit="10" stroke-width="1"/>
          <line id="Line_59" data-name="Line 59" x1="16.733" transform="translate(7.774 38.831)" fill="none" stroke="#fff" stroke-linecap="round" stroke-miterlimit="10" stroke-width="1"/>
          <line id="Line_60" data-name="Line 60" x1="15.633" transform="translate(8.873 42.232)" fill="none" stroke="#fff" stroke-linecap="round" stroke-miterlimit="10" stroke-width="1"/>
          <line id="Line_61" data-name="Line 61" x1="14.534" transform="translate(9.972 45.642)" fill="none" stroke="#fff" stroke-linecap="round" stroke-miterlimit="10" stroke-width="1"/>
          <line id="Line_62" data-name="Line 62" x1="13.425" transform="translate(11.081 49.052)" fill="none" stroke="#fff" stroke-linecap="round" stroke-miterlimit="10" stroke-width="1"/>
          <line id="Line_63" data-name="Line 63" x1="12.326" transform="translate(12.18 52.462)" fill="none" stroke="#fff" stroke-linecap="round" stroke-miterlimit="10" stroke-width="1"/>
          <line id="Line_64" data-name="Line 64" x1="11.366" transform="translate(13.14 55.871)" fill="none" stroke="#fff" stroke-linecap="round" stroke-miterlimit="10" stroke-width="1"/>
        </g>
      </g>
    </g>
    <g id="TEACHER_x27_S_LEGS" transform="translate(907.761 616.594)">
      <g id="CHAIR_1_" transform="translate(72.781 40.853)">
        <g id="Group_74" data-name="Group 74" transform="translate(0 10.537)">
          <path id="Path_179" data-name="Path 179" d="M2963.84,2095.1h7.444a10.676,10.676,0,0,1,10.677,10.677v44.953a10.675,10.675,0,0,1-10.677,10.677h-2.926a6.159,6.159,0,0,0-6.158,6.158" transform="translate(-2957.169 -2095.1)" fill="none" stroke="#66b0f0" stroke-linecap="round" stroke-miterlimit="10" stroke-width="1"/>
          <circle id="Ellipse_65" data-name="Ellipse 65" cx="5.31" cy="5.31" r="5.31" transform="translate(0 70.666)" fill="#fff" stroke="#66b0f0" stroke-linejoin="round" stroke-miterlimit="10" stroke-width="1"/>
        </g>
        <path id="Path_180" data-name="Path 180" d="M2912.467,1992.537h45.549a3.706,3.706,0,0,0,3.708-3.708v-3.121a3.705,3.705,0,0,0-3.708-3.708h-45.549a4.266,4.266,0,0,0-4.267,4.267v1.994A4.268,4.268,0,0,0,2912.467,1992.537Z" transform="translate(-2908.2 -1982)" fill="#d0f0e4" stroke="#66b0f0" stroke-linejoin="round" stroke-miterlimit="10" stroke-width="1"/>
        <g id="Group_75" data-name="Group 75" transform="translate(28.76 10.537)">
          <path id="Path_181" data-name="Path 181" d="M3235.021,2095.1h-7.444a10.676,10.676,0,0,0-10.677,10.677v44.953a10.676,10.676,0,0,0,10.677,10.677h2.926a6.159,6.159,0,0,1,6.158,6.158" transform="translate(-3216.9 -2095.1)" fill="none" stroke="#66b0f0" stroke-linecap="round" stroke-miterlimit="10" stroke-width="1"/>
          <circle id="Ellipse_66" data-name="Ellipse 66" cx="5.31" cy="5.31" r="5.31" transform="translate(14.18 70.666)" fill="#fff" stroke="#66b0f0" stroke-linejoin="round" stroke-miterlimit="10" stroke-width="1"/>
        </g>
      </g>
      <g id="LEGS_1_" transform="translate(0)">
        <g id="LEFT_2_" transform="translate(0 11.534)">
          <g id="Group_78" data-name="Group 78" transform="translate(0 101.057)">
            <g id="Group_76" data-name="Group 76">
              <path id="Path_182" data-name="Path 182" d="M2163.763,2752l3.354,6.866a16.846,16.846,0,0,1,1.714,7.388v5.208a1.665,1.665,0,0,1-1.686,1.64h-38.31a1.812,1.812,0,0,1-1.835-1.789V2769.7a1.78,1.78,0,0,1,.95-1.565c3.979-2.134,16.826-8.8,19.313-15.931Z" transform="translate(-2127 -2752)" fill="#fff" stroke="#ffcf2d" stroke-miterlimit="10" stroke-width="1"/>
              <path id="Path_183" data-name="Path 183" d="M2168.78,2875.2h-3a8.049,8.049,0,0,0-6.81,3.708l-1.277,2.031a4.214,4.214,0,0,1-3.568,1.948H2127.2" transform="translate(-2127.181 -2863.722)" fill="#fff" stroke="#ffcf2d" stroke-miterlimit="10" stroke-width="1"/>
              <path id="Path_184" data-name="Path 184" d="M2356.623,2757.152a55.32,55.32,0,0,1-11.31-1.043,49.273,49.273,0,0,1-8.413-2.329,10.532,10.532,0,0,0,.708-1.565l16.5-.214Z" transform="translate(-2317.345 -2752)" fill="#ffcf2d"/>
            </g>
            <g id="Group_77" data-name="Group 77" transform="translate(5.406 0.185)">
              <path id="Path_185" data-name="Path 185" d="M2238.972,2763.016l3.037-4.817a2.747,2.747,0,0,0-2.245-4.211h0a2.75,2.75,0,0,0-2.674,3.652Z" transform="translate(-2232.099 -2753.987)" fill="none" stroke="#fe5244" stroke-linecap="round" stroke-linejoin="round" stroke-miterlimit="10" stroke-width="1"/>
              <path id="Path_186" data-name="Path 186" d="M2191.732,2820.027l-3.317-2.73a2.071,2.071,0,0,0-3.363,1.285h0a2.076,2.076,0,0,0,2.478,2.348Z" transform="translate(-2185.027 -2810.97)" fill="none" stroke="#fe5244" stroke-linecap="round" stroke-linejoin="round" stroke-miterlimit="10" stroke-width="1"/>
              <line id="Line_65" data-name="Line 65" x2="7.537" transform="translate(6.407 8.917)" fill="none" stroke="#fe5244" stroke-linecap="round" stroke-linejoin="round" stroke-miterlimit="10" stroke-width="1"/>
              <line id="Line_66" data-name="Line 66" x2="7.528" transform="translate(4.209 11.023)" fill="none" stroke="#fe5244" stroke-linecap="round" stroke-linejoin="round" stroke-miterlimit="10" stroke-width="1"/>
              <line id="Line_67" data-name="Line 67" x2="7.341" transform="translate(9.789 6.709)" fill="none" stroke="#fe5244" stroke-linecap="round" stroke-linejoin="round" stroke-miterlimit="10" stroke-width="1"/>
            </g>
          </g>
          <path id="Path_187" data-name="Path 187" d="M2347.293,1672.331l-17.282,6.54-16.621,86.56c-.671,1.584-9.484,3.857-17.711,3.857-8.665,0-15.68-2.413-15.68-4.118l10.211-79.508a21.01,21.01,0,0,1,20.841-18.363h35.915l.168,5.022Z" transform="translate(-2265.746 -1667.3)" fill="#fff" stroke="#3fb1b5" stroke-linecap="round" stroke-miterlimit="10" stroke-width="1"/>
          <path id="Path_188" data-name="Path 188" d="M2443.2,1819.508l10.081-78.492c1.313-10.36,10.7-18.316,26.161-18.316" transform="translate(-2413.741 -1717.539)" fill="none" stroke="#3fb1b5" stroke-linecap="round" stroke-miterlimit="10" stroke-width="1"/>
          <path id="Path_189" data-name="Path 189" d="M2652.994,1711.3l-18.6,56.9-7.248-23.18C2622.668,1730.194,2630.727,1711.3,2652.994,1711.3Z" transform="translate(-2579.468 -1707.201)" fill="#3fb1b5"/>
        </g>
        <g id="RIGHT_2_" transform="translate(51.255)">
          <g id="Group_81" data-name="Group 81" transform="translate(18.33 112.246)">
            <g id="Group_79" data-name="Group 79">
              <path id="Path_190" data-name="Path 190" d="M2898.244,2748.3l6.7,16.686a3.575,3.575,0,0,1-3.55,4.779h-25.229a2.19,2.19,0,0,1-2.264-2.115v-1.677a3.577,3.577,0,0,1,.708-2.134l4.425-4.835a14.937,14.937,0,0,0,4-10.1v-.047Z" transform="translate(-2873.9 -2748.3)" fill="#fff" stroke="#ffcf2d" stroke-miterlimit="10" stroke-width="1"/>
              <path id="Path_191" data-name="Path 191" d="M2891.5,2894.8a10.645,10.645,0,0,1,4.5-1h8.1a10.556,10.556,0,0,1,4.155.848l2.962,1.258" transform="translate(-2889.86 -2880.245)" fill="#fff" stroke="#ffcf2d" stroke-miterlimit="10" stroke-width="1"/>
              <path id="Path_192" data-name="Path 192" d="M2982.443,2749.064c-.522,2.059-7.444,3.7-15.9,3.7h-.14a14.608,14.608,0,0,0,.521-3.866v-.046l15.214-.55Z" transform="translate(-2957.782 -2748.3)" fill="#ffcf2d"/>
            </g>
            <g id="Group_80" data-name="Group 80" transform="translate(5.178 2.857)">
              <path id="Path_193" data-name="Path 193" d="M2997.2,2784.447l5.1-.046a2.719,2.719,0,0,0,2.292-4.127h0a2.708,2.708,0,0,0-4.463-.251Z" transform="translate(-2990.891 -2778.966)" fill="none" stroke="#fe5244" stroke-linejoin="round" stroke-miterlimit="10" stroke-width="1"/>
              <path id="Path_194" data-name="Path 194" d="M2935.792,2798.15l-2.665-3.308a2.044,2.044,0,0,0-3.512.569h0a2.048,2.048,0,0,0,1.928,2.767Z" transform="translate(-2929.483 -2792.668)" fill="none" stroke="#fe5244" stroke-linejoin="round" stroke-miterlimit="10" stroke-width="1"/>
            </g>
            <line id="Line_68" data-name="Line 68" x2="11.04" transform="translate(8.655 10.239)" fill="none" stroke="#fe5244" stroke-linecap="round" stroke-linejoin="round" stroke-miterlimit="10" stroke-width="1"/>
          </g>
          <g id="Group_82" data-name="Group 82">
            <path id="Path_195" data-name="Path 195" d="M2725.674,1651.311c0,2.022-7.3,5.813-14.925,5.813-6.848,0-12.522-1.36-13.593-3.084l-18.838-60.26a26.947,26.947,0,0,1,25.788-34.741h3.093l-.438-15.54h38.682l3.811,15.81c3.074,12.764-6.6,25.36-19.723,25.36h-17.366Z" transform="translate(-2677.149 -1543.5)" fill="#fff" stroke="#3fb1b5" stroke-linecap="round" stroke-miterlimit="10" stroke-width="1"/>
            <path id="Path_196" data-name="Path 196" d="M2873.294,1657.2l-17.8-56.961c-6.4-18.493.782-28.183,17.86-28.183h15.568a8.926,8.926,0,0,0,8.925-8.925V1543.9" transform="translate(-2836.778 -1543.863)" fill="none" stroke="#3fb1b5" stroke-linecap="round" stroke-miterlimit="10" stroke-width="1"/>
          </g>
        </g>
      </g>
    </g>
    <g id="TABLE" transform="translate(791.491 613.184)">
      <path id="Path_197" data-name="Path 197" d="M1199.1,1533.834H910.348a1.136,1.136,0,0,1-.606-2.1L960.8,1506.9h190.151l48.67,25.173A.957.957,0,0,1,1199.1,1533.834Z" transform="translate(-906.397 -1506.9)" fill="#fff" stroke="#66b0f0" stroke-linejoin="round" stroke-miterlimit="10" stroke-width="1"/>
      <path id="Path_198" data-name="Path 198" d="M1261.563,1533.788h-273.7a1.271,1.271,0,0,1-.671-2.348l44.058-21.54h189.434l41.58,21.559A1.271,1.271,0,0,1,1261.563,1533.788Z" transform="translate(-976.569 -1509.621)" fill="#d0f0e4"/>
      <g id="Group_83" data-name="Group 83" transform="translate(0 26.934)">
        <line id="Line_69" data-name="Line 69" x1="18.959" y2="109.153" fill="none" stroke="#66b0f0" stroke-linecap="round" stroke-miterlimit="10" stroke-width="1"/>
        <line id="Line_70" data-name="Line 70" x2="18.959" y2="109.153" transform="translate(28.844)" fill="none" stroke="#66b0f0" stroke-linecap="round" stroke-miterlimit="10" stroke-width="1"/>
      </g>
      <g id="Group_84" data-name="Group 84" transform="translate(248.072 26.934)">
        <line id="Line_71" data-name="Line 71" x1="18.959" y2="109.153" fill="none" stroke="#66b0f0" stroke-linecap="round" stroke-miterlimit="10" stroke-width="1"/>
        <line id="Line_72" data-name="Line 72" x2="18.959" y2="109.153" transform="translate(28.844)" fill="none" stroke="#66b0f0" stroke-linecap="round" stroke-miterlimit="10" stroke-width="1"/>
      </g>
    </g>
    <g id="PENCILS_x26_RULER" transform="translate(829.251 592.585)">
      <path id="Path_199" data-name="Path 199" d="M1312.221,1464.2l-2.683,19a2.27,2.27,0,0,1-2.255,1.956h-5.245a2.278,2.278,0,0,1-2.255-1.956l-2.683-19c0,1.7,3.382,3.084,7.556,3.084S1312.221,1465.9,1312.221,1464.2Z" transform="translate(-1295.907 -1447.579)" fill="#fff" stroke="#66b0f0" stroke-linejoin="round" stroke-miterlimit="10" stroke-width="1"/>
      <g id="Group_85" data-name="Group 85" transform="translate(2.972 18.652)">
        <path id="Path_200" data-name="Path 200" d="M1327.855,1486l-2.394,16.817a2.567,2.567,0,0,1-2.534,2.2h-1.8a2.567,2.567,0,0,1-2.534-2.2l-2.394-16.77c.186.084.391.158.6.233l2.348,16.462a2.006,2.006,0,0,0,1.751,1.7,1.823,1.823,0,0,0,.233.019h1.8a1.844,1.844,0,0,0,.326-.028,2,2,0,0,0,1.649-1.7l2.348-16.5A6.315,6.315,0,0,0,1327.855,1486Z" transform="translate(-1316.2 -1486)" fill="#66b0f0"/>
      </g>
      <g id="Group_86" data-name="Group 86" transform="translate(9.435 19.397)">
        <path id="Path_201" data-name="Path 201" d="M1388.3,1494l-2.134,17.692-.028.242a.281.281,0,0,1-.279.242h-.037a.273.273,0,0,1-.242-.307l.019-.149,2.124-17.617C1387.927,1494.065,1388.113,1494.028,1388.3,1494Z" transform="translate(-1385.577 -1494)" fill="#66b0f0"/>
      </g>
      <g id="Group_87" data-name="Group 87" transform="translate(5.534 19.434)">
        <path id="Path_202" data-name="Path 202" d="M1346.178,1512.539h-.037a.281.281,0,0,1-.279-.242l-.028-.233L1343.7,1494.4c.186.037.382.065.578.093l2.124,17.59.019.149A.28.28,0,0,1,1346.178,1512.539Z" transform="translate(-1343.7 -1494.4)" fill="#66b0f0"/>
      </g>
      <g id="Group_88" data-name="Group 88" transform="translate(0.932 13.556)">
        <path id="Path_203" data-name="Path 203" d="M1309.952,1434.365c0,.783-.736,1.491-1.947,2.04-.186.084-.391.168-.6.242a12.96,12.96,0,0,1-1.873.5c-.186.037-.382.065-.578.1a19.149,19.149,0,0,1-2.618.2h-.522a18.227,18.227,0,0,1-2.329-.177c-.2-.028-.382-.056-.578-.093a13.119,13.119,0,0,1-1.966-.5c-.205-.074-.41-.149-.6-.233-1.276-.55-2.05-1.276-2.05-2.078a1.4,1.4,0,0,1,.019-.2c.261-1.612,3.652-2.879,7.807-2.879s7.556,1.276,7.807,2.879A1.15,1.15,0,0,1,1309.952,1434.365Z" transform="translate(-1294.3 -1431.3)" fill="#66b0f0"/>
        <path id="Path_204" data-name="Path 204" d="M1375.452,1514.648a.161.161,0,0,1-.009.065.28.28,0,0,1-.27.214h0a.28.28,0,0,1-.27-.214.118.118,0,0,1-.009-.056l-.093-17.254a.389.389,0,0,1,.019-.1h.522a.274.274,0,0,1,.019.093Z" transform="translate(-1367.3 -1491.151)" fill="#66b0f0"/>
      </g>
      <g id="Group_99" data-name="Group 99" transform="translate(0)">
        <path id="Path_205" data-name="Path 205" d="M1293.1,1304.936a15.943,15.943,0,0,1-4.407-.7l-4.4-18.437h4.239Z" transform="translate(-1284.3 -1285.8)" fill="#ffcf2d"/>
        <g id="Group_98" data-name="Group 98" transform="translate(2.823 1.863)">
          <g id="Group_89" data-name="Group 89">
            <path id="Path_206" data-name="Path 206" d="M1316.566,1306.266h-1.733a.233.233,0,0,1,0-.466h1.621Z" transform="translate(-1314.6 -1305.8)" fill="#fff"/>
          </g>
          <g id="Group_90" data-name="Group 90" transform="translate(0.466 1.956)">
            <path id="Path_207" data-name="Path 207" d="M1321.566,1327.266h-1.733a.233.233,0,0,1,0-.466h1.621Z" transform="translate(-1319.6 -1326.8)" fill="#fff"/>
          </g>
          <g id="Group_91" data-name="Group 91" transform="translate(0.932 3.913)">
            <path id="Path_208" data-name="Path 208" d="M1326.566,1348.266h-1.733a.233.233,0,0,1,0-.466h1.621Z" transform="translate(-1324.6 -1347.8)" fill="#fff"/>
          </g>
          <g id="Group_92" data-name="Group 92" transform="translate(1.407 5.869)">
            <path id="Path_209" data-name="Path 209" d="M1331.666,1369.266h-1.733a.233.233,0,0,1,0-.466h1.621Z" transform="translate(-1329.7 -1368.8)" fill="#fff"/>
          </g>
          <g id="Group_93" data-name="Group 93" transform="translate(1.873 7.826)">
            <path id="Path_210" data-name="Path 210" d="M1336.666,1390.266h-1.733a.233.233,0,0,1,0-.466h1.621Z" transform="translate(-1334.7 -1389.8)" fill="#fff"/>
          </g>
          <g id="Group_94" data-name="Group 94" transform="translate(2.422 9.782)">
            <path id="Path_211" data-name="Path 211" d="M1342.482,1411.266h-1.649a.233.233,0,0,1,0-.466h1.537Z" transform="translate(-1340.6 -1410.8)" fill="#fff"/>
          </g>
          <g id="Group_95" data-name="Group 95" transform="translate(2.795 11.739)">
            <path id="Path_212" data-name="Path 212" d="M1346.575,1432.266h-1.742a.233.233,0,0,1,0-.466h1.63Z" transform="translate(-1344.6 -1431.8)" fill="#fff"/>
          </g>
          <g id="Group_96" data-name="Group 96" transform="translate(3.261 13.695)">
            <path id="Path_213" data-name="Path 213" d="M1351.575,1453.266h-1.742a.233.233,0,0,1,0-.466h1.63Z" transform="translate(-1349.6 -1452.8)" fill="#fff"/>
          </g>
          <g id="Group_97" data-name="Group 97" transform="translate(3.633 15.652)">
            <path id="Path_214" data-name="Path 214" d="M1355.668,1474.257a.139.139,0,0,1-.065.009h-1.77a.233.233,0,0,1,0-.466h1.724Z" transform="translate(-1353.6 -1473.8)" fill="#fff"/>
          </g>
        </g>
      </g>
      <g id="Group_106" data-name="Group 106" transform="translate(18.638 33.451)">
        <g id="Group_105" data-name="Group 105">
          <g id="Group_100" data-name="Group 100" transform="translate(1.37 0.294)">
            <path id="Path_215" data-name="Path 215" d="M1519.674,1654.074h0l-.391,1.426c-.009.037-.037.056-.065.047l-20.124-6.009a.059.059,0,0,1-.028-.074l.382-1.416c0-.019.019-.028.028-.037a.056.056,0,0,1,.037-.009l20.124,6.009c.009,0,.019.019.028.028A.057.057,0,0,1,1519.674,1654.074Z" transform="translate(-1499.063 -1648)" fill="#fe5244"/>
          </g>
          <g id="Group_101" data-name="Group 101" transform="translate(0.891 0.002)">
            <path id="Path_216" data-name="Path 216" d="M1495.075,1645.242l-.41,1.519a.179.179,0,0,1-.2.149l-.456-.14a.188.188,0,0,1-.093-.233l.41-1.519a.178.178,0,0,1,.2-.149l.457.14A.184.184,0,0,1,1495.075,1645.242Z" transform="translate(-1493.912 -1644.866)" fill="#ffcf2d"/>
          </g>
          <g id="Group_102" data-name="Group 102">
            <path id="Path_217" data-name="Path 217" d="M1484.554,1645.111l-.186.708a.387.387,0,0,0,.27.466l.643.186.382-1.425-.643-.186A.375.375,0,0,0,1484.554,1645.111Z" transform="translate(-1484.354 -1644.846)" fill="#fe5244"/>
          </g>
          <g id="Group_103" data-name="Group 103" transform="translate(21.488 6.306)">
            <path id="Path_218" data-name="Path 218" d="M1715.982,1713.1l.606.615.466.475-.634.149-.82.186Z" transform="translate(-1715.544 -1713.047)" fill="#fff"/>
            <path id="Path_219" data-name="Path 219" d="M1716.556,1713.687h0c-.009.037-.028.056-.047.056l-1.453.335c-.019,0-.037,0-.047-.019A.118.118,0,0,1,1715,1714l.382-1.416a.093.093,0,0,1,.037-.047c.019-.009.037-.009.047.009l1.071,1.09C1716.556,1713.64,1716.565,1713.659,1716.556,1713.687Zm-1.425.242,1.258-.289-.922-.941Z" transform="translate(-1715 -1712.535)" fill="#fe5244"/>
          </g>
          <g id="Group_104" data-name="Group 104" transform="translate(22.308 6.921)">
            <path id="Path_220" data-name="Path 220" d="M1724.568,1719.7l.466.475-.633.149Z" transform="translate(-1724.344 -1719.647)" fill="#f0e1d4"/>
            <path id="Path_221" data-name="Path 221" d="M1724.536,1719.672h0c-.01.037-.028.056-.047.056l-.634.149c-.019,0-.037,0-.047-.019a.119.119,0,0,1-.009-.056l.168-.615a.093.093,0,0,1,.037-.046c.019-.009.037-.009.047.009l.466.475C1724.536,1719.625,1724.545,1719.644,1724.536,1719.672Z" transform="translate(-1723.8 -1719.135)" fill="#fe5244"/>
          </g>
        </g>
      </g>
      <path id="Path_222" data-name="Path 222" d="M1382.21,1345.332a1.119,1.119,0,0,1-.009.177l-1.518,12.111a17.49,17.49,0,0,1-1.882.1l.745-12.475a1.334,1.334,0,0,1,2.665.084Z" transform="translate(-1369.996 -1338.578)" fill="#fe5244"/>
    </g>
    <g id="BAG" transform="translate(1046.858 709.107)">
      <g id="Group_107" data-name="Group 107" transform="translate(4.379 0)">
        <path id="Path_223" data-name="Path 223" d="M3667,2540.087h18.466a4.9,4.9,0,0,1,4.723-3.587h-18.465A4.9,4.9,0,0,0,3667,2540.087Z" transform="translate(-3667 -2536.5)" fill="#3fb1b5"/>
        <path id="Path_224" data-name="Path 224" d="M3719.4,2539.7a4.907,4.907,0,0,1,4.9,4.9v4.9h18.465v-4.9a4.9,4.9,0,0,0-4.9-4.9Z" transform="translate(-3714.518 -2539.402)" fill="#fff" stroke="#3fb1b5" stroke-linecap="round" stroke-miterlimit="10" stroke-width="1"/>
      </g>
      <path id="Path_225" data-name="Path 225" d="M3907.554,2570.9H3890.7l1.025,4.677h16.854Z" transform="translate(-3865.48 -2567.695)" fill="#fff" stroke="#ffcf2d" stroke-miterlimit="10" stroke-width="1"/>
      <path id="Path_226" data-name="Path 226" d="M3751.528,2653.282h-39.307a4.934,4.934,0,0,0,4.817-6.009l-5.394-24.232A2.6,2.6,0,0,0,3709.1,2621h39.307a2.61,2.61,0,0,1,2.543,2.041l5.394,24.232A4.934,4.934,0,0,1,3751.528,2653.282Z" transform="translate(-3700.799 -2613.127)" fill="#fff" stroke="#ffcf2d" stroke-miterlimit="10" stroke-width="1"/>
      <path id="Path_227" data-name="Path 227" d="M3834.45,2625.1l1.948,8.749a8.089,8.089,0,0,1-7.892,9.847h-1.649a13.236,13.236,0,0,1-12.922-10.36l-1.835-8.236" transform="translate(-3794.203 -2616.846)" fill="none" stroke="#d0f0e4" stroke-miterlimit="10" stroke-width="1"/>
      <path id="Path_228" data-name="Path 228" d="M3855.451,2624.1l1.947,8.748a8.09,8.09,0,0,1-7.891,9.848h-1.649a13.237,13.237,0,0,1-12.922-10.36l-1.835-8.236" transform="translate(-3813.247 -2615.939)" fill="none" stroke="#ffcf2d" stroke-linecap="round" stroke-miterlimit="10" stroke-width="1"/>
      <path id="Path_229" data-name="Path 229" d="M3631.425,2653.282h-6.484a4.934,4.934,0,0,1-4.817-6.009l5.394-24.232a2.6,2.6,0,0,1,2.543-2.041h.261a2.61,2.61,0,0,1,2.543,2.041l5.394,24.232A4.955,4.955,0,0,1,3631.425,2653.282Z" transform="translate(-3620.003 -2613.127)" fill="#ffcf2d" stroke="#ffcf2d" stroke-miterlimit="10" stroke-width="1"/>
      <line id="Line_73" data-name="Line 73" y2="26.664" transform="translate(8.301 7.882)" fill="none" stroke="#fff" stroke-miterlimit="10" stroke-width="1"/>
      <path id="Path_230" data-name="Path 230" d="M3642.8,2911.307l6.168-4.807,6.13,4.845" transform="translate(-3640.676 -2872.029)" fill="none" stroke="#fff" stroke-linecap="round" stroke-miterlimit="10" stroke-width="1"/>
    </g>
    <g id="PLANT" transform="translate(782.5 672.4)">
      <path id="Path_231" data-name="Path 231" d="M843,2319.22s-11.692-15.019-9.838-19.658c1.584-3.959,5.189-.27,5.189-.27Z" transform="translate(-828.26 -2283.267)" fill="#3fb1b5"/>
      <path id="Path_232" data-name="Path 232" d="M1033,2490.54s12.177-13.416,11.9-18.242-4.686-2.562-4.686-2.562Z" transform="translate(-1009.662 -2438.768)" fill="#3fb1b5"/>
      <path id="Path_233" data-name="Path 233" d="M818.546,2692.593a14.875,14.875,0,0,1-4.528,10.546,12.084,12.084,0,0,1-8.534,3.5h-9.922a12.084,12.084,0,0,1-8.534-3.5,14.859,14.859,0,0,1-4.528-10.546c0-5.758,3.466-10.8,8.664-13.593h18.726C815.08,2681.786,818.546,2686.835,818.546,2692.593Z" transform="translate(-782.5 -2629.016)" fill="#ffcf2d"/>
      <ellipse id="Ellipse_67" data-name="Ellipse 67" cx="9.587" cy="2.543" rx="9.587" ry="2.543" transform="translate(8.441 48.046)" fill="#3fb1b5"/>
      <path id="Path_234" data-name="Path 234" d="M839.846,2194.27a30.933,30.933,0,0,1-5.31.428,31.654,31.654,0,0,1-5.068-.382c-3.466-3.68-11.907-13.444-8.786-18.27,3.894-6.028,10.574,2.413,10.574,2.413s-7.882-24.2-3.708-29.58,7.444,4.174,7.444,4.174,2.106-11.589,7.761-10.481c5.394,1.062-2.963,27.94-3.745,30.418.4-1.192,2.823-7.77,7.546-7.165C851.026,2166.395,842.306,2188.3,839.846,2194.27Z" transform="translate(-816.508 -2142.498)" fill="#fff" stroke="#3fb1b5" stroke-linecap="round" stroke-miterlimit="10" stroke-width="1"/>
      <path id="Path_235" data-name="Path 235" d="M984.208,2143.2s-7.975,22.117-8.208,52.135" transform="translate(-957.972 -2143.135)" fill="none" stroke="#3fb1b5" stroke-linecap="round" stroke-miterlimit="10" stroke-width="1"/>
      <path id="Path_236" data-name="Path 236" d="M980.8,2255.7c.429,2.4,2.059,13.109,1.23,18.577" transform="translate(-962.325 -2245.153)" fill="none" stroke="#3fb1b5" stroke-linecap="round" stroke-miterlimit="10" stroke-width="1"/>
      <path id="Path_237" data-name="Path 237" d="M1006.509,2392.8a56.447,56.447,0,0,0-10.109,28.825" transform="translate(-976.472 -2369.48)" fill="none" stroke="#3fb1b5" stroke-linecap="round" stroke-miterlimit="10" stroke-width="1"/>
      <path id="Path_238" data-name="Path 238" d="M836.8,2490.7s10.863,6.885,11.049,19.714" transform="translate(-831.741 -2458.26)" fill="none" stroke="#3fb1b5" stroke-linecap="round" stroke-miterlimit="10" stroke-width="1"/>
      <circle id="Ellipse_68" data-name="Ellipse 68" cx="1.901" cy="1.901" r="1.901" transform="translate(6.969 25.388)" fill="none" stroke="#ffcf2d" stroke-miterlimit="10" stroke-width="1"/>
      <circle id="Ellipse_69" data-name="Ellipse 69" cx="0.876" cy="0.876" r="0.876" transform="translate(3.596 24.568)" fill="none" stroke="#ffcf2d" stroke-miterlimit="10" stroke-width="1"/>
      <circle id="Ellipse_70" data-name="Ellipse 70" cx="0.876" cy="0.876" r="0.876" transform="translate(4.854 46.592)" fill="none" stroke="#ffcf2d" stroke-miterlimit="10" stroke-width="1"/>
      <circle id="Ellipse_71" data-name="Ellipse 71" cx="1.901" cy="1.901" r="1.901" transform="translate(27.139 17.487)" fill="none" stroke="#ffcf2d" stroke-miterlimit="10" stroke-width="1"/>
      <circle id="Ellipse_72" data-name="Ellipse 72" cx="0.876" cy="0.876" r="0.876" transform="translate(28.723 12.512)" fill="none" stroke="#ffcf2d" stroke-miterlimit="10" stroke-width="1"/>
      <circle id="Ellipse_73" data-name="Ellipse 73" cx="0.876" cy="0.876" r="0.876" transform="translate(31.9 19.537)" fill="none" stroke="#ffcf2d" stroke-miterlimit="10" stroke-width="1"/>
    </g>
    <g id="TEACHER" transform="translate(942.689 521.366)">
      <g id="BLOUSE" transform="translate(2.599 36.654)">
        <path id="Path_239" data-name="Path 239" d="M2592.529,916.2l18.754,5.292a20.353,20.353,0,0,1,14.906,17.841l2.86,31.63H2529.8l9.167-35.543a17.375,17.375,0,0,1,11.842-12.382l21.9-6.838Z" transform="translate(-2529.8 -916.07)" fill="#fe5244"/>
        <g id="Group_117" data-name="Group 117" transform="translate(4.677 1.63)">
          <g id="Group_108" data-name="Group 108" transform="translate(0 48.726)">
            <circle id="Ellipse_74" data-name="Ellipse 74" cx="0.904" cy="0.904" r="0.904" fill="#fff"/>
            <circle id="Ellipse_75" data-name="Ellipse 75" cx="0.904" cy="0.904" r="0.904" transform="translate(9.41)" fill="#fff"/>
            <circle id="Ellipse_76" data-name="Ellipse 76" cx="0.904" cy="0.904" r="0.904" transform="translate(18.819)" fill="#fff"/>
            <circle id="Ellipse_77" data-name="Ellipse 77" cx="0.904" cy="0.904" r="0.904" transform="translate(28.229)" fill="#fff"/>
            <circle id="Ellipse_78" data-name="Ellipse 78" cx="0.904" cy="0.904" r="0.904" transform="translate(37.639)" fill="#fff"/>
            <circle id="Ellipse_79" data-name="Ellipse 79" cx="0.904" cy="0.904" r="0.904" transform="translate(47.049)" fill="#fff"/>
            <circle id="Ellipse_80" data-name="Ellipse 80" cx="0.904" cy="0.904" r="0.904" transform="translate(56.458)" fill="#fff"/>
            <circle id="Ellipse_81" data-name="Ellipse 81" cx="0.904" cy="0.904" r="0.904" transform="translate(65.868)" fill="#fff"/>
            <circle id="Ellipse_82" data-name="Ellipse 82" cx="0.904" cy="0.904" r="0.904" transform="translate(75.278)" fill="#fff"/>
            <circle id="Ellipse_83" data-name="Ellipse 83" cx="0.904" cy="0.904" r="0.904" transform="translate(84.688)" fill="#fff"/>
          </g>
          <g id="Group_109" data-name="Group 109" transform="translate(4.845 42.39)">
            <circle id="Ellipse_84" data-name="Ellipse 84" cx="0.904" cy="0.904" r="0.904" fill="#fff"/>
            <circle id="Ellipse_85" data-name="Ellipse 85" cx="0.904" cy="0.904" r="0.904" transform="translate(9.41)" fill="#fff"/>
            <circle id="Ellipse_86" data-name="Ellipse 86" cx="0.904" cy="0.904" r="0.904" transform="translate(18.819)" fill="#fff"/>
            <circle id="Ellipse_87" data-name="Ellipse 87" cx="0.904" cy="0.904" r="0.904" transform="translate(28.229)" fill="#fff"/>
            <circle id="Ellipse_88" data-name="Ellipse 88" cx="0.904" cy="0.904" r="0.904" transform="translate(37.639)" fill="#fff"/>
            <circle id="Ellipse_89" data-name="Ellipse 89" cx="0.904" cy="0.904" r="0.904" transform="translate(47.049)" fill="#fff"/>
            <circle id="Ellipse_90" data-name="Ellipse 90" cx="0.904" cy="0.904" r="0.904" transform="translate(56.458)" fill="#fff"/>
            <circle id="Ellipse_91" data-name="Ellipse 91" cx="0.904" cy="0.904" r="0.904" transform="translate(65.868)" fill="#fff"/>
            <circle id="Ellipse_92" data-name="Ellipse 92" cx="0.904" cy="0.904" r="0.904" transform="translate(75.278)" fill="#fff"/>
            <circle id="Ellipse_93" data-name="Ellipse 93" cx="0.904" cy="0.904" r="0.904" transform="translate(84.688)" fill="#fff"/>
          </g>
          <g id="Group_110" data-name="Group 110" transform="translate(0 35.869)">
            <circle id="Ellipse_94" data-name="Ellipse 94" cx="0.904" cy="0.904" r="0.904" fill="#fff"/>
            <circle id="Ellipse_95" data-name="Ellipse 95" cx="0.904" cy="0.904" r="0.904" transform="translate(9.41)" fill="#fff"/>
            <circle id="Ellipse_96" data-name="Ellipse 96" cx="0.904" cy="0.904" r="0.904" transform="translate(18.819)" fill="#fff"/>
            <circle id="Ellipse_97" data-name="Ellipse 97" cx="0.904" cy="0.904" r="0.904" transform="translate(28.229)" fill="#fff"/>
            <circle id="Ellipse_98" data-name="Ellipse 98" cx="0.904" cy="0.904" r="0.904" transform="translate(37.639)" fill="#fff"/>
            <circle id="Ellipse_99" data-name="Ellipse 99" cx="0.904" cy="0.904" r="0.904" transform="translate(47.049)" fill="#fff"/>
            <circle id="Ellipse_100" data-name="Ellipse 100" cx="0.904" cy="0.904" r="0.904" transform="translate(56.458)" fill="#fff"/>
            <circle id="Ellipse_101" data-name="Ellipse 101" cx="0.904" cy="0.904" r="0.904" transform="translate(65.868)" fill="#fff"/>
            <circle id="Ellipse_102" data-name="Ellipse 102" cx="0.904" cy="0.904" r="0.904" transform="translate(75.278)" fill="#fff"/>
            <circle id="Ellipse_103" data-name="Ellipse 103" cx="0.904" cy="0.904" r="0.904" transform="translate(84.688)" fill="#fff"/>
          </g>
          <g id="Group_111" data-name="Group 111" transform="translate(4.845 29.813)">
            <circle id="Ellipse_104" data-name="Ellipse 104" cx="0.904" cy="0.904" r="0.904" fill="#fff"/>
            <circle id="Ellipse_105" data-name="Ellipse 105" cx="0.904" cy="0.904" r="0.904" transform="translate(9.41)" fill="#fff"/>
            <circle id="Ellipse_106" data-name="Ellipse 106" cx="0.904" cy="0.904" r="0.904" transform="translate(18.819)" fill="#fff"/>
            <circle id="Ellipse_107" data-name="Ellipse 107" cx="0.904" cy="0.904" r="0.904" transform="translate(28.229)" fill="#fff"/>
            <circle id="Ellipse_108" data-name="Ellipse 108" cx="0.904" cy="0.904" r="0.904" transform="translate(37.639)" fill="#fff"/>
            <circle id="Ellipse_109" data-name="Ellipse 109" cx="0.904" cy="0.904" r="0.904" transform="translate(47.049)" fill="#fff"/>
            <circle id="Ellipse_110" data-name="Ellipse 110" cx="0.904" cy="0.904" r="0.904" transform="translate(56.458)" fill="#fff"/>
            <circle id="Ellipse_111" data-name="Ellipse 111" cx="0.904" cy="0.904" r="0.904" transform="translate(66.148)" fill="#fff"/>
            <circle id="Ellipse_112" data-name="Ellipse 112" cx="0.904" cy="0.904" r="0.904" transform="translate(75.278)" fill="#fff"/>
            <circle id="Ellipse_113" data-name="Ellipse 113" cx="0.904" cy="0.904" r="0.904" transform="translate(84.688)" fill="#fff"/>
          </g>
          <g id="Group_112" data-name="Group 112" transform="translate(9.41 23.571)">
            <circle id="Ellipse_114" data-name="Ellipse 114" cx="0.904" cy="0.904" r="0.904" fill="#fff"/>
            <circle id="Ellipse_115" data-name="Ellipse 115" cx="0.904" cy="0.904" r="0.904" transform="translate(18.819)" fill="#fff"/>
            <circle id="Ellipse_116" data-name="Ellipse 116" cx="0.904" cy="0.904" r="0.904" transform="translate(28.229)" fill="#fff"/>
            <circle id="Ellipse_117" data-name="Ellipse 117" cx="0.904" cy="0.904" r="0.904" transform="translate(37.639)" fill="#fff"/>
            <circle id="Ellipse_118" data-name="Ellipse 118" cx="0.904" cy="0.904" r="0.904" transform="translate(47.049)" fill="#fff"/>
            <circle id="Ellipse_119" data-name="Ellipse 119" cx="0.904" cy="0.904" r="0.904" transform="translate(56.458)" fill="#fff"/>
            <circle id="Ellipse_120" data-name="Ellipse 120" cx="0.904" cy="0.904" r="0.904" transform="translate(65.868)" fill="#fff"/>
            <circle id="Ellipse_121" data-name="Ellipse 121" cx="0.904" cy="0.904" r="0.904" transform="translate(75.278)" fill="#fff"/>
          </g>
          <g id="Group_113" data-name="Group 113" transform="translate(4.845 17.422)">
            <circle id="Ellipse_122" data-name="Ellipse 122" cx="0.904" cy="0.904" r="0.904" fill="#fff"/>
            <circle id="Ellipse_123" data-name="Ellipse 123" cx="0.904" cy="0.904" r="0.904" transform="translate(9.41)" fill="#fff"/>
            <circle id="Ellipse_124" data-name="Ellipse 124" cx="0.904" cy="0.904" r="0.904" transform="translate(18.819)" fill="#fff"/>
            <circle id="Ellipse_125" data-name="Ellipse 125" cx="0.904" cy="0.904" r="0.904" transform="translate(28.229)" fill="#fff"/>
            <circle id="Ellipse_126" data-name="Ellipse 126" cx="0.904" cy="0.904" r="0.904" transform="translate(37.639)" fill="#fff"/>
            <circle id="Ellipse_127" data-name="Ellipse 127" cx="0.904" cy="0.904" r="0.904" transform="translate(47.049)" fill="#fff"/>
            <circle id="Ellipse_128" data-name="Ellipse 128" cx="0.904" cy="0.904" r="0.904" transform="translate(56.458)" fill="#fff"/>
            <circle id="Ellipse_129" data-name="Ellipse 129" cx="0.904" cy="0.904" r="0.904" transform="translate(65.868)" fill="#fff"/>
            <circle id="Ellipse_130" data-name="Ellipse 130" cx="0.904" cy="0.904" r="0.904" transform="translate(75.278)" fill="#fff"/>
            <circle id="Ellipse_131" data-name="Ellipse 131" cx="0.904" cy="0.904" r="0.904" transform="translate(84.222)" fill="#fff"/>
          </g>
          <g id="Group_114" data-name="Group 114" transform="translate(9.41 11.366)">
            <circle id="Ellipse_132" data-name="Ellipse 132" cx="0.904" cy="0.904" r="0.904" fill="#fff"/>
            <circle id="Ellipse_133" data-name="Ellipse 133" cx="0.904" cy="0.904" r="0.904" transform="translate(9.41)" fill="#fff"/>
            <circle id="Ellipse_134" data-name="Ellipse 134" cx="0.904" cy="0.904" r="0.904" transform="translate(18.819)" fill="#fff"/>
            <circle id="Ellipse_135" data-name="Ellipse 135" cx="0.904" cy="0.904" r="0.904" transform="translate(28.229)" fill="#fff"/>
            <circle id="Ellipse_136" data-name="Ellipse 136" cx="0.904" cy="0.904" r="0.904" transform="translate(37.639)" fill="#fff"/>
            <circle id="Ellipse_137" data-name="Ellipse 137" cx="0.904" cy="0.904" r="0.904" transform="translate(47.049)" fill="#fff"/>
            <circle id="Ellipse_138" data-name="Ellipse 138" cx="0.904" cy="0.904" r="0.904" transform="translate(56.458)" fill="#fff"/>
            <circle id="Ellipse_139" data-name="Ellipse 139" cx="0.904" cy="0.904" r="0.904" transform="translate(65.868)" fill="#fff"/>
            <circle id="Ellipse_140" data-name="Ellipse 140" cx="0.904" cy="0.904" r="0.904" transform="translate(75.278)" fill="#fff"/>
          </g>
          <g id="Group_115" data-name="Group 115" transform="translate(37.639)">
            <circle id="Ellipse_141" data-name="Ellipse 141" cx="0.904" cy="0.904" r="0.904" fill="#fff"/>
            <circle id="Ellipse_142" data-name="Ellipse 142" cx="0.904" cy="0.904" r="0.904" transform="translate(9.41)" fill="#fff"/>
            <circle id="Ellipse_143" data-name="Ellipse 143" cx="0.904" cy="0.904" r="0.904" transform="translate(18.819)" fill="#fff"/>
            <path id="Path_240" data-name="Path 240" d="M3288.761,940.394a.906.906,0,0,1-1.761-.3,1.361,1.361,0,0,1,.019-.2Z" transform="translate(-3258.771 -939.192)" fill="#fff"/>
          </g>
          <g id="Group_116" data-name="Group 116" transform="translate(14.254 4.481)">
            <circle id="Ellipse_144" data-name="Ellipse 144" cx="0.904" cy="0.904" r="0.904" transform="translate(0 1.202)" fill="#fff"/>
            <circle id="Ellipse_145" data-name="Ellipse 145" cx="0.904" cy="0.904" r="0.904" transform="translate(9.41 1.202)" fill="#fff"/>
            <circle id="Ellipse_146" data-name="Ellipse 146" cx="0.904" cy="0.904" r="0.904" transform="translate(17.925)" fill="#fff"/>
            <circle id="Ellipse_147" data-name="Ellipse 147" cx="0.904" cy="0.904" r="0.904" transform="translate(28.229 1.202)" fill="#fff"/>
            <circle id="Ellipse_148" data-name="Ellipse 148" cx="0.904" cy="0.904" r="0.904" transform="translate(37.639 1.202)" fill="#fff"/>
            <circle id="Ellipse_149" data-name="Ellipse 149" cx="0.904" cy="0.904" r="0.904" transform="translate(47.049 1.202)" fill="#fff"/>
            <circle id="Ellipse_150" data-name="Ellipse 150" cx="0.904" cy="0.904" r="0.904" transform="translate(56.458 1.202)" fill="#fff"/>
            <circle id="Ellipse_151" data-name="Ellipse 151" cx="0.904" cy="0.904" r="0.904" transform="translate(65.868 1.202)" fill="#fff"/>
          </g>
        </g>
        <g id="Group_118" data-name="Group 118" transform="translate(22.93)">
          <line id="Line_74" data-name="Line 74" x1="2.05" y1="27.884" transform="translate(52.664 27.279)" fill="none" stroke="#fff" stroke-linecap="round" stroke-miterlimit="10" stroke-width="1"/>
          <path id="Path_241" data-name="Path 241" d="M2782.147,1195.675v-8.45l-1.938-1.136a8.665,8.665,0,0,1-4.062-9.419l2.972-12.969" transform="translate(-2775.926 -1140.511)" fill="none" stroke="#fff" stroke-linecap="round" stroke-miterlimit="10" stroke-width="1"/>
          <path id="Path_242" data-name="Path 242" d="M2985.3,914.8l6.2,17.972L3005.9,914.8" transform="translate(-2965.793 -914.8)" fill="none" stroke="#fff" stroke-linecap="round" stroke-miterlimit="10" stroke-width="1"/>
          <path id="Path_243" data-name="Path 243" d="M3163.1,948.529l6.093,7.062,6.307-8.991" transform="translate(-3127.029 -943.637)" fill="none" stroke="#fff" stroke-linecap="round" stroke-miterlimit="10" stroke-width="1"/>
          <path id="Path_244" data-name="Path 244" d="M2894.354,949.8l-7.108,6.037L2883.1,948" transform="translate(-2873.115 -944.907)" fill="none" stroke="#fff" stroke-linecap="round" stroke-miterlimit="10" stroke-width="1"/>
          <line id="Line_75" data-name="Line 75" x2="1.276" y2="5.953" transform="translate(0.547 23.189)" fill="none" stroke="#fff" stroke-linecap="round" stroke-miterlimit="10" stroke-width="1"/>
        </g>
      </g>
      <g id="PAPER" transform="translate(0 94.529)">
        <path id="Path_245" data-name="Path 245" d="M2704.029,1594.636h-25.537L2667.2,1577h25.537Z" transform="translate(-2651.8 -1573.18)" fill="#ffcf2d"/>
        <path id="Path_246" data-name="Path 246" d="M2538.728,1553.627h-25.546L2501.9,1536h25.537Z" transform="translate(-2501.9 -1536)" fill="#fff" stroke="#3fb1b5" stroke-linejoin="round" stroke-miterlimit="10" stroke-width="1"/>
        <g id="Group_120" data-name="Group 120" transform="translate(5.469 2.322)">
          <g id="Group_119" data-name="Group 119">
            <path id="Path_247" data-name="Path 247" d="M2560.6,1561.173l.95.41c.634.27,1.2.279,1.416.019l.345-.438c.2-.261.782-.261,1.416.019l.95.41c.634.27,1.2.28,1.416.019l.382-.494c.2-.261.782-.261,1.416.019l1.258.55c.634.27,1.2.28,1.416.019l.456-.578c.205-.261.783-.261,1.416.019l1.444.634c.633.27,1.2.28,1.416.019l.494-.634" transform="translate(-2560.6 -1560.924)" fill="none" stroke="#3fb1b5" stroke-linecap="round" stroke-miterlimit="10" stroke-width="1"/>
            <path id="Path_248" data-name="Path 248" d="M2602.1,1601.583c.634.27,1.2.28,1.416.019l.344-.438c.205-.261.783-.261,1.416.019l.95.41c.633.27,1.2.28,1.416.019l.382-.494c.205-.261.783-.261,1.416.019l1.258.55c.634.27,1.2.279,1.416.019l.456-.578c.205-.261.783-.261,1.416.019l1.444.634c.634.27,1.2.28,1.416.019l.494-.634" transform="translate(-2598.234 -1597.198)" fill="none" stroke="#3fb1b5" stroke-linecap="round" stroke-miterlimit="10" stroke-width="1"/>
            <path id="Path_249" data-name="Path 249" d="M2623.2,1641.074l.95.41c.634.27,1.2.28,1.416.019l.345-.438c.2-.261.782-.261,1.416.019l.95.41c.634.27,1.2.279,1.416.019l.382-.494c.205-.261.782-.261,1.416.019l1.258.55c.634.27,1.2.28,1.416.019l.457-.578c.2-.261.782-.261,1.416.019l1.444.634c.634.27,1.2.28,1.416.019l.494-.634" transform="translate(-2617.368 -1633.38)" fill="none" stroke="#3fb1b5" stroke-linecap="round" stroke-miterlimit="10" stroke-width="1"/>
            <path id="Path_250" data-name="Path 250" d="M2654.5,1681.073l.95.41c.634.27,1.2.28,1.417.019l.344-.438c.2-.261.782-.261,1.416.019l.95.41c.633.27,1.2.28,1.416.019l.382-.494c.205-.261.783-.261,1.417.019l1.258.55c.634.27,1.2.28,1.416.019l.456-.578c.2-.261.782-.261,1.416.019l1.444.634c.634.27,1.2.279,1.416.019l.494-.634" transform="translate(-2645.752 -1669.654)" fill="none" stroke="#3fb1b5" stroke-linecap="round" stroke-miterlimit="10" stroke-width="1"/>
          </g>
        </g>
      </g>
      <g id="HAND" transform="translate(20.077 80.021)">
        <path id="Path_251" data-name="Path 251" d="M2739.163,1402.275h48.987a10.992,10.992,0,0,0,10.947-12.028h0a11,11,0,0,0-13.062-9.764l-56.375,7.854a6.75,6.75,0,0,0-5.022,3.494l-4.994,9.279a2.249,2.249,0,0,0-.373.783l-1.873,7.239h1.053a4.423,4.423,0,0,0,3.9-2.348l.941-1.761,10.835,1.174a4.6,4.6,0,0,0,4.686-3.037Z" transform="translate(-2717.4 -1380.277)" fill="#a0505a"/>
        <g id="Group_121" data-name="Group 121" transform="translate(6 17.555)">
          <line id="Line_76" data-name="Line 76" y1="6.773" x2="3.27" transform="translate(0 0.102)" fill="none" stroke="#73325a" stroke-linecap="round" stroke-miterlimit="10" stroke-width="1"/>
          <line id="Line_77" data-name="Line 77" y1="6.773" x2="3.27" transform="translate(4.36 0.531)" fill="none" stroke="#73325a" stroke-linecap="round" stroke-miterlimit="10" stroke-width="1"/>
          <line id="Line_78" data-name="Line 78" y1="6.773" x2="3.261" transform="translate(8.627 1.062)" fill="none" stroke="#73325a" stroke-linecap="round" stroke-miterlimit="10" stroke-width="1"/>
          <line id="Line_79" data-name="Line 79" y1="4.444" x2="1.491" transform="translate(15.764)" fill="none" stroke="#73325a" stroke-linecap="round" stroke-miterlimit="10" stroke-width="1"/>
        </g>
      </g>
      <g id="HEAD_3_" transform="translate(19.215 0)">
        <g id="HAIR_1_">
          <path id="Path_252" data-name="Path 252" d="M2742.825,526.251a11.167,11.167,0,0,1,12.67,1.053c5.907,4.8,3.149,14.254.988,12.671-1.854-1.351,12.6-5.963,17.124,4.742,5.134,12.13-6.428,19.015-19.611,13.015h-19.127l-20.338,6.344s-10.332-5.255-4.714-15.5c5.189-9.456,17.59-6.084,16.192-3.745-1.966,3.279-10.369-7.1-4.463-16.9C2727.788,517.568,2741.968,521.425,2742.825,526.251Z" transform="translate(-2708.144 -521.366)" fill="#fff" stroke="#ffcf2d" stroke-miterlimit="10" stroke-width="1"/>
          <path id="Path_253" data-name="Path 253" d="M2938.473,637.013s-5.8-2.758-4.733-8.413a11.911,11.911,0,0,1-11.254,7.565c-3.95-.028-3.783-4.127-1.677-6.047" transform="translate(-2899.664 -618.61)" fill="none" stroke="#ffcf2d" stroke-linecap="round" stroke-linejoin="round" stroke-miterlimit="10" stroke-width="1"/>
        </g>
        <g id="NECK" transform="translate(26.129 23.77)">
          <path id="Path_254" data-name="Path 254" d="M3008.482,789.487,3003.59,776.5h-13.9l-1.09,12.987,5.991,17.217Z" transform="translate(-2988.6 -776.5)" fill="#a0505a"/>
          <path id="Path_255" data-name="Path 255" d="M2997.255,786.739l-7.332,6.475-1.323-3.727,1.09-12.987h12.316v.242A12.919,12.919,0,0,1,2997.255,786.739Z" transform="translate(-2988.6 -776.5)" fill="#73325a"/>
        </g>
        <g id="HEAD_2_" transform="translate(20.362 10.829)">
          <path id="Path_256" data-name="Path 256" d="M2974.666,648.016v.522a2.577,2.577,0,0,1-2.572,2.571H2969.3a8.084,8.084,0,0,1-16.1-1.062v-5.441a11.382,11.382,0,0,0,11.068-7.006c-.568,5.31,4.276,7.593,5.012,7.9v-.056h2.814A2.577,2.577,0,0,1,2974.666,648.016Z" transform="translate(-2950.731 -637.6)" fill="#a0505a"/>
          <g id="Group_122" data-name="Group 122" transform="translate(0 5.46)">
            <path id="Path_257" data-name="Path 257" d="M3055.1,696.2a5.19,5.19,0,0,1,3.354,1.472" transform="translate(-3043.137 -696.2)" fill="none" stroke="#73325a" stroke-linecap="round" stroke-miterlimit="10" stroke-width="1"/>
            <ellipse id="Ellipse_152" data-name="Ellipse 152" cx="0.568" cy="0.997" rx="0.568" ry="0.997" transform="translate(10.975 4.463)" fill="#73325a"/>
            <ellipse id="Ellipse_153" data-name="Ellipse 153" cx="0.568" cy="0.997" rx="0.568" ry="0.997" transform="translate(3.214 4.463)" fill="#73325a"/>
            <path id="Path_258" data-name="Path 258" d="M3004.2,800.315a2.64,2.64,0,0,0,2.916-.615" transform="translate(-2996.98 -790.057)" fill="none" stroke="#73325a" stroke-linecap="round" stroke-miterlimit="10" stroke-width="1"/>
            <path id="Path_259" data-name="Path 259" d="M3133.7,738.9a2.2,2.2,0,0,1,2.2-2.2" transform="translate(-3114.415 -732.927)" fill="none" stroke="#73325a" stroke-linecap="round" stroke-miterlimit="10" stroke-width="1"/>
            <path id="Path_260" data-name="Path 260" d="M2930.054,697.2a5.19,5.19,0,0,0-3.354,1.472" transform="translate(-2926.7 -697.107)" fill="none" stroke="#73325a" stroke-linecap="round" stroke-miterlimit="10" stroke-width="1"/>
          </g>
          <g id="GLASSES" transform="translate(0.279 7.025)">
            <ellipse id="Ellipse_154" data-name="Ellipse 154" cx="3.196" cy="3.755" rx="3.196" ry="3.755" fill="none" stroke="#fe5244" stroke-linejoin="round" stroke-miterlimit="10" stroke-width="1"/>
            <ellipse id="Ellipse_155" data-name="Ellipse 155" cx="3.196" cy="3.755" rx="3.196" ry="3.755" transform="translate(8.581)" fill="none" stroke="#fe5244" stroke-linejoin="round" stroke-miterlimit="10" stroke-width="1"/>
            <path id="Path_261" data-name="Path 261" d="M3000.5,749.753a1.908,1.908,0,0,0-2.2,0" transform="translate(-2991.909 -745.999)" fill="none" stroke="#fe5244" stroke-linejoin="round" stroke-miterlimit="10" stroke-width="1"/>
          </g>
        </g>
      </g>
    </g>
    <g id="GIRL" transform="translate(851.442 557.294)">
      <g id="DRESS" transform="translate(2.441 26.161)">
        <path id="Path_262" data-name="Path 262" d="M1585.333,1187.8h18.13a34.777,34.777,0,0,1,23.86,9.475l10.658,10.052-15.838,4.426-3.047-2.87a1.975,1.975,0,0,0-3.27.978l-1.323,5.571h-35.319l-1.6-9.344a1.975,1.975,0,0,0-3.41-.727l-1.239,1.481-24.232-.447,15.959-11.795A34.811,34.811,0,0,1,1585.333,1187.8Z" transform="translate(-1548.7 -1187.8)" fill="#9a3b82"/>
        <path id="Path_263" data-name="Path 263" d="M1879.04,1187.8l9.522,16.565,8.972-16.518q1.579.084,3.13.307c-.41,2.478-2.45,17.292,6.056,27.279H1871.4s7.109-14.245,4.258-27.586Z" transform="translate(-1841.336 -1187.8)" fill="#3fb1b5"/>
      </g>
      <g id="COPYBOOK" transform="translate(18.307 53.803)">
        <path id="Path_264" data-name="Path 264" d="M1719,1503.329h69.539L1775,1484.5h-41.384Z" transform="translate(-1719 -1484.5)" fill="none" stroke="#9a3b82" stroke-linecap="round" stroke-miterlimit="10" stroke-width="1"/>
        <path id="Path_265" data-name="Path 265" d="M1788.539,1503.329H1719l14.618-18.829H1775Z" transform="translate(-1719 -1484.5)" fill="#fff" stroke="#3fb1b5" stroke-linejoin="round" stroke-miterlimit="10" stroke-width="1"/>
        <path id="Path_266" data-name="Path 266" d="M1753.769,1632.271H1719C1739.664,1619.712,1753.769,1632.271,1753.769,1632.271Z" transform="translate(-1719 -1613.442)" fill="#3fb1b5"/>
        <path id="Path_267" data-name="Path 267" d="M2092.2,1632.271h34.769C2106.305,1619.712,2092.2,1632.271,2092.2,1632.271Z" transform="translate(-2057.431 -1613.442)" fill="#3fb1b5"/>
        <line id="Line_80" data-name="Line 80" y1="18.829" transform="translate(34.769)" fill="none" stroke="#3fb1b5" stroke-linecap="round" stroke-miterlimit="10" stroke-width="1"/>
      </g>
      <g id="HANDS" transform="translate(0 38.14)">
        <g id="RIGHT" transform="translate(57.409 4.484)">
          <path id="Path_268" data-name="Path 268" d="M2150.308,1381.671l9.987-14.077a8.072,8.072,0,0,1,6.345-3.093h0a8.071,8.071,0,0,1,8.068,8.068v.28a8.07,8.07,0,0,1-4.006,6.969l-13.341,7.64-3.689,6.344a3.833,3.833,0,0,1-3.317,1.91H2138.7a3.027,3.027,0,0,1,2.292-2.823,4.037,4.037,0,0,0,2.72-3.009s-1.155.894-3.457.047l4.435-6.363a4.4,4.4,0,0,1,3.615-1.891Z" transform="translate(-2138.7 -1364.5)" fill="#e57281"/>
          <path id="Path_269" data-name="Path 269" d="M2248.271,1625.6l-2.935,5.04a3.048,3.048,0,0,1-2.637,1.519" transform="translate(-2233.011 -1601.275)" fill="none" stroke="#9a3b82" stroke-linecap="round" stroke-miterlimit="10" stroke-width="1"/>
          <path id="Path_270" data-name="Path 270" d="M2214.572,1625.6l-2.935,5.04a3.047,3.047,0,0,1-2.636,1.519" transform="translate(-2202.45 -1601.275)" fill="none" stroke="#9a3b82" stroke-linecap="round" stroke-miterlimit="10" stroke-width="1"/>
          <path id="Path_271" data-name="Path 271" d="M2180.871,1625.6l-2.935,5.04a3.048,3.048,0,0,1-2.637,1.519" transform="translate(-2171.89 -1601.275)" fill="none" stroke="#9a3b82" stroke-linecap="round" stroke-miterlimit="10" stroke-width="1"/>
          <line id="Line_81" data-name="Line 81" x2="2.115" transform="translate(11.608 17.17)" fill="none" stroke="#9a3b82" stroke-linecap="round" stroke-miterlimit="10" stroke-width="1"/>
        </g>
        <g id="LEFT">
          <g id="Group_123" data-name="Group 123" transform="translate(0 3.384)">
            <path id="Path_272" data-name="Path 272" d="M1576.746,1362.389a.148.148,0,0,0,0,.252.936.936,0,0,1,.466.82v.894a.947.947,0,0,1-.466.82.148.148,0,0,0,0,.252.936.936,0,0,1,.466.82v.894a.947.947,0,0,1-.466.82.148.148,0,0,0,0,.252.936.936,0,0,1,.466.82v.894a.929.929,0,0,1-.922.941h-44.226c-5.814,0-10.584-4.928-9.382-10.742a9.208,9.208,0,0,1,8.953-7.425,9.423,9.423,0,0,1,2.078.242l31.536,6.82h10.9a1.072,1.072,0,0,1,1.062,1.081v.745A.951.951,0,0,1,1576.746,1362.389Z" transform="translate(-1522.496 -1352.7)" fill="#e57281"/>
            <line id="Line_82" data-name="Line 82" x1="4.956" transform="translate(49.155 9.81)" fill="none" stroke="#9a3b82" stroke-linecap="round" stroke-miterlimit="10" stroke-width="1"/>
            <line id="Line_83" data-name="Line 83" x1="4.956" transform="translate(49.155 12.587)" fill="none" stroke="#9a3b82" stroke-linecap="round" stroke-miterlimit="10" stroke-width="1"/>
            <line id="Line_84" data-name="Line 84" x1="4.956" transform="translate(49.155 15.363)" fill="none" stroke="#9a3b82" stroke-linecap="round" stroke-miterlimit="10" stroke-width="1"/>
          </g>
          <path id="Path_273" data-name="Path 273" d="M1958.309,1326.839s-7.006-10.276-5.077-10.463,6.885,10.416,6.885,10.416Z" transform="translate(-1912.797 -1316.374)" fill="#fff"/>
        </g>
      </g>
      <g id="HEAD" transform="translate(27.801 0)">
        <path id="HEAD_1_" d="M1937.537,1112.5a2.45,2.45,0,0,1-2.45,2.506h-2.1a7.679,7.679,0,0,1-7.649,6.969H1923.1a7.685,7.685,0,0,1-7.649-6.969h-2.106a2.45,2.45,0,0,1-2.45-2.506,2.493,2.493,0,0,1,2.506-2.4h2.022v-1.388a3.111,3.111,0,0,1,3.112-3.112h11.376a3.111,3.111,0,0,1,3.112,3.112v1.388h2.012A2.487,2.487,0,0,1,1937.537,1112.5Z" transform="translate(-1902.506 -1087.097)" fill="#e57281"/>
        <g id="FACE" transform="translate(10.025 24.912)">
          <path id="Path_274" data-name="Path 274" d="M2156.7,1176.319a1.916,1.916,0,0,1,1.919-1.919" transform="translate(-2135.439 -1174.4)" fill="none" stroke="#9a3b82" stroke-linecap="round" stroke-miterlimit="10" stroke-width="1"/>
          <path id="Path_275" data-name="Path 275" d="M2081.4,1197.167a3.845,3.845,0,0,1,3.112.745" transform="translate(-2067.155 -1194.987)" fill="none" stroke="#9a3b82" stroke-linecap="round" stroke-miterlimit="10" stroke-width="1"/>
          <path id="Path_276" data-name="Path 276" d="M1988,1195.418a2.967,2.967,0,0,1,3.018-.279c1.043.456,1.575,2.217,1.733,4.258a2.046,2.046,0,0,0,2.674,0" transform="translate(-1982.457 -1192.95)" fill="none" stroke="#9a3b82" stroke-linecap="round" stroke-miterlimit="10" stroke-width="1"/>
          <path id="Path_277" data-name="Path 277" d="M1930.419,1176.319a1.916,1.916,0,0,0-1.919-1.919" transform="translate(-1928.5 -1174.4)" fill="none" stroke="#9a3b82" stroke-linecap="round" stroke-miterlimit="10" stroke-width="1"/>
          <ellipse id="Ellipse_156" data-name="Ellipse 156" cx="0.354" cy="0.68" rx="0.354" ry="0.68" transform="translate(7.509 4.099)" fill="#9a3b82"/>
          <ellipse id="Ellipse_157" data-name="Ellipse 157" cx="0.354" cy="0.68" rx="0.354" ry="0.68" transform="translate(14.869 4.099)" fill="#9a3b82"/>
        </g>
        <g id="HAIR">
          <path id="Path_278" data-name="Path 278" d="M1865.666,925.046a7.388,7.388,0,0,1-10.043,2.9,7.778,7.778,0,0,1-1.621-1.2,15.058,15.058,0,0,1-1.09,3.279,19.65,19.65,0,0,1-2.59.773,5.172,5.172,0,0,0-1.593-5.264s1.584,3.14-.727,5.609a1.841,1.841,0,0,0-.131.149,33.239,33.239,0,0,1-15.894-1.267s-2.357-3.876-1.193-7.947a7.7,7.7,0,1,1,5.506-7.379,7.529,7.529,0,0,1-.14,1.453c5.59-2.907,13.444-1.127,16.416,2.05.047-.1.1-.2.149-.289a7.393,7.393,0,0,1,12.95,7.136Z" transform="translate(-1820.9 -907)" fill="#ffcf2d"/>
          <g id="Group_127" data-name="Group 127" transform="translate(9.478 3.484)">
            <g id="Group_125" data-name="Group 125">
              <g id="Group_124" data-name="Group 124">
                <path id="Path_279" data-name="Path 279" d="M1932.19,944.839a1.564,1.564,0,0,0-1.621-.345c-.764.307-1.416,1.342-1.928,3.084a3.654,3.654,0,0,0-.093.41,3.217,3.217,0,0,0-.932-2.618,1.561,1.561,0,0,0-1.519-.3.907.907,0,0,0-.671.606c-.2.615.13,1.621,1.034,3.065.466.745.95,1.407,1.193,1.714l-4.947,5.515a.278.278,0,0,0,.019.391.3.3,0,0,0,.186.075.264.264,0,0,0,.205-.093l5.1-5.683.009-.009.335-.382h0a19.834,19.834,0,0,0,1.984-1.416c1.388-1.137,2.124-2.106,2.171-2.9A1.258,1.258,0,0,0,1932.19,944.839Zm-6.233,1.016a.359.359,0,0,1,.289-.242,1.519,1.519,0,0,1,.391-.056.869.869,0,0,1,.606.224c.745.68.708,2.73.578,3.987C1926.851,948.445,1925.724,946.572,1925.957,945.855Zm6.2.075c-.065,1.109-2.152,2.72-3.4,3.559.28-1.491.96-4.053,2.022-4.481a.8.8,0,0,1,.3-.056,1.259,1.259,0,0,1,.764.326A.724.724,0,0,1,1932.162,945.929Z" transform="translate(-1922.634 -944.391)" fill="#fe5244"/>
              </g>
            </g>
            <g id="Group_126" data-name="Group 126" transform="translate(18.543 1.737)">
              <path id="Path_280" data-name="Path 280" d="M2129.493,965.032a1.525,1.525,0,0,0-1.481-.475c-.727.177-1.453.932-2.152,2.245-.14.261-.27.522-.373.764-.019-.354-.047-.755-.1-1.174-.214-1.705-.671-2.776-1.351-3.177a1.57,1.57,0,0,0-1.668.13,1.3,1.3,0,0,0-.7,1.062c-.112,1.6,2.534,3.866,3.251,4.453l1.761,8.795a.278.278,0,0,0,.27.224.119.119,0,0,0,.056-.009.27.27,0,0,0,.214-.326l-1.714-8.571a19.819,19.819,0,0,0,1.947-.932c1.453-.8,2.217-1.5,2.338-2.133A.964.964,0,0,0,2129.493,965.032Zm-4.612,3.074c-1.072-.932-2.739-2.627-2.674-3.671a.75.75,0,0,1,.429-.624,1.432,1.432,0,0,1,.708-.233.819.819,0,0,1,.391.1c.512.3.894,1.286,1.081,2.767.075.606.1,1.183.112,1.612Zm4.36-2.311c-.14.727-1.994,1.78-3.447,2.432.475-1.136,1.388-2.9,2.348-3.13a.732.732,0,0,1,.205-.028,1.14,1.14,0,0,1,.764.363A.38.38,0,0,1,2129.241,965.8Z" transform="translate(-2121.663 -963.032)" fill="#fe5244"/>
            </g>
          </g>
        </g>
      </g>
    </g>
  </g>
</svg>
