<svg xmlns="http://www.w3.org/2000/svg" width="358.417" height="289.62" viewBox="0 0 358.417 289.62">
  <g id="_9_SCENE" data-name="9 SCENE" transform="translate(-888.5 -446.362)">
    <g id="LAMP" transform="translate(966.061 446.863)">
      <path id="Path_67" data-name="Path 67" d="M1749.57,519l22,21.23,22.108,119.676H1586.3Z" transform="translate(-1586.3 -510.982)" fill="#ffcf2d"/>
      <g id="Group_38" data-name="Group 38" transform="translate(163.392)">
        <g id="Group_37" data-name="Group 37">
          <path id="Path_68" data-name="Path 68" d="M3078.363,475.945l-22.063-21.3,3.69-3.835c5.435-5.646,15.228-5,20.874.422h0c5.646,5.435,6.636,15.228,1.2,20.874Z" transform="translate(-3056.3 -446.863)" fill="#fff" stroke="#ffcf2d" stroke-linecap="round" stroke-miterlimit="10" stroke-width="1"/>
          <line id="Line_29" data-name="Line 29" x1="22.075" y1="21.297" transform="translate(3.679 3.95)" fill="none" stroke="#ffcf2d" stroke-linecap="round" stroke-miterlimit="10" stroke-width="1"/>
        </g>
        <path id="Path_69" data-name="Path 69" d="M3288.2,467.5l2.467-1.89a7.466,7.466,0,0,1,10.548,1.5l60.644,73.826-31.044,69.236" transform="translate(-3262.424 -462.157)" fill="none" stroke="#3fb1b5" stroke-linecap="round" stroke-miterlimit="10" stroke-width="1"/>
        <circle id="Ellipse_47" data-name="Ellipse 47" cx="3.401" cy="3.401" r="3.401" transform="translate(95.045 75.742)" fill="#fff" stroke="#ffcf2d" stroke-linecap="round" stroke-miterlimit="10" stroke-width="1"/>
        <path id="Path_70" data-name="Path 70" d="M3524.937,1708.9h16.573a8.626,8.626,0,0,1,8.625,8.625v.245H3516.3v-.245A8.643,8.643,0,0,1,3524.937,1708.9Z" transform="translate(-3465.171 -1568.623)" fill="#fff" stroke="#ffcf2d" stroke-linecap="round" stroke-miterlimit="10" stroke-width="1"/>
      </g>
    </g>
    <g id="COMPUTER" transform="translate(967.859 483.114)">
      <g id="COMPUTER_1_" transform="translate(29.024)">
        <path id="Path_71" data-name="Path 71" d="M1975.651,860.654H1870.736a7.13,7.13,0,0,1-7.136-7.136V780.136a7.13,7.13,0,0,1,7.136-7.136h104.915a7.13,7.13,0,0,1,7.136,7.136v73.371A7.132,7.132,0,0,1,1975.651,860.654Z" transform="translate(-1863.6 -773)" fill="#fff" stroke="#3fb1b5" stroke-linecap="round" stroke-miterlimit="10" stroke-width="6"/>
        <path id="Path_72" data-name="Path 72" d="M2019.094,894.183h-103.9a2.792,2.792,0,0,1-2.79-2.79v-70.2a2.792,2.792,0,0,1,2.79-2.79h103.9a2.792,2.792,0,0,1,2.79,2.79v70.192A2.787,2.787,0,0,1,2019.094,894.183Z" transform="translate(-1906.976 -813.354)" fill="#66b0f0" stroke="#66b0f0" stroke-linejoin="round" stroke-miterlimit="10" stroke-width="6"/>
        <g id="Group_39" data-name="Group 39" transform="translate(9.314 8.003)">
          <path id="Path_73" data-name="Path 73" d="M1950.023,848.6h-1.645a.98.98,0,0,1-.978-.978v-1.645a.979.979,0,0,1,.978-.978h1.645a.98.98,0,0,1,.978.978v1.645A.987.987,0,0,1,1950.023,848.6Z" transform="translate(-1947.4 -845)" fill="none" stroke="#fff" stroke-linecap="round" stroke-miterlimit="10" stroke-width="1"/>
          <path id="Path_74" data-name="Path 74" d="M2017.323,848.6h-1.645a.98.98,0,0,1-.978-.978v-1.645a.98.98,0,0,1,.978-.978h1.645a.98.98,0,0,1,.978.978v1.645A.98.98,0,0,1,2017.323,848.6Z" transform="translate(-2007.219 -845)" fill="none" stroke="#fff" stroke-linecap="round" stroke-miterlimit="10" stroke-width="1"/>
          <path id="Path_75" data-name="Path 75" d="M2084.623,848.6h-1.645a.98.98,0,0,1-.978-.978v-1.645a.98.98,0,0,1,.978-.978h1.645a.98.98,0,0,1,.978.978v1.645A.973.973,0,0,1,2084.623,848.6Z" transform="translate(-2067.039 -845)" fill="none" stroke="#fff" stroke-linecap="round" stroke-miterlimit="10" stroke-width="1"/>
        </g>
        <g id="Group_40" data-name="Group 40" transform="translate(41.015 87.654)">
          <path id="Path_76" data-name="Path 76" d="M2273.326,1586.62H2232.6l7.992-25.02h24.731Z" transform="translate(-2232.6 -1561.6)" fill="#fff" stroke="#3fb1b5" stroke-linecap="round" stroke-miterlimit="10" stroke-width="1"/>
          <path id="Path_77" data-name="Path 77" d="M2261.4,1576.605l4.791-15.005h24.731Z" transform="translate(-2258.199 -1561.6)" fill="#3fb1b5"/>
        </g>
        <g id="Group_41" data-name="Group 41" transform="translate(82.919 8.57)">
          <path id="Path_78" data-name="Path 78" d="M2632.752,869.6h-19.8a3.354,3.354,0,0,1-3.357-3.357V853.457a3.354,3.354,0,0,1,3.357-3.357h19.8a3.354,3.354,0,0,1,3.357,3.357v12.782A3.354,3.354,0,0,1,2632.752,869.6Z" transform="translate(-2609.6 -850.1)" fill="none" stroke="#fff" stroke-linecap="round" stroke-miterlimit="10" stroke-width="1"/>
          <line id="Line_30" data-name="Line 30" x2="15.105" transform="translate(5.658 4.557)" fill="none" stroke="#fff" stroke-linecap="round" stroke-miterlimit="10" stroke-width="1"/>
          <line id="Line_31" data-name="Line 31" x2="15.105" transform="translate(5.658 8.003)" fill="none" stroke="#fff" stroke-linecap="round" stroke-miterlimit="10" stroke-width="1"/>
          <line id="Line_32" data-name="Line 32" x2="15.105" transform="translate(5.658 11.449)" fill="none" stroke="#fff" stroke-linecap="round" stroke-miterlimit="10" stroke-width="1"/>
          <line id="Line_33" data-name="Line 33" x2="15.105" transform="translate(5.658 14.894)" fill="none" stroke="#fff" stroke-linecap="round" stroke-miterlimit="10" stroke-width="1"/>
        </g>
      </g>
      <g id="TEACHER" transform="translate(0 9.181)">
        <g id="SHIRT" transform="translate(7.583 26.921)">
          <path id="Path_79" data-name="Path 79" d="M1803.681,1142.527H1725l-4.613,6.614a13.25,13.25,0,0,1-21.586.211l-28.1-38.647c1.178,1.467,6.569-.167,11.7-3.546,5.213-3.435,8.581-7.759,7.525-9.359l19.485,24.831,5.969-10.537a11.788,11.788,0,0,1,7.5-5.524l20.307-4.3H1760.7l19.3,4.257a11.83,11.83,0,0,1,7.814,5.991Z" transform="translate(-1670.7 -1097.8)" fill="#fff" stroke="#3fb1b5" stroke-miterlimit="10" stroke-width="1"/>
          <line id="Line_34" data-name="Line 34" x1="5.591" y1="11.037" transform="translate(105.794 33.234)" fill="none" stroke="#3fb1b5" stroke-linecap="round" stroke-miterlimit="10" stroke-width="1"/>
          <line id="Line_35" data-name="Line 35" y1="10.926" x2="5.535" transform="translate(53.853 34.379)" fill="none" stroke="#3fb1b5" stroke-linecap="round" stroke-miterlimit="10" stroke-width="1"/>
          <line id="Line_36" data-name="Line 36" x2="12.682" y2="16.217" transform="translate(31.133 15.194)" fill="none" stroke="#3fb1b5" stroke-linecap="round" stroke-miterlimit="10" stroke-width="1"/>
          <path id="Path_80" data-name="Path 80" d="M2421.3,1160.49l4.668,5.68,10.448-8.87" transform="translate(-2337.87 -1150.687)" fill="none" stroke="#3fb1b5" stroke-linecap="round" stroke-miterlimit="10" stroke-width="1"/>
          <path id="Path_81" data-name="Path 81" d="M2261.117,1160.6l-4.535,5.791L2245.1,1157.3" transform="translate(-2181.255 -1150.687)" fill="none" stroke="#3fb1b5" stroke-linecap="round" stroke-miterlimit="10" stroke-width="1"/>
          <path id="Path_82" data-name="Path 82" d="M1723.485,1142.5c1.056,1.612-2.323,5.991-7.569,9.47-5.157,3.424-10.626,5.069-11.815,3.59" transform="translate(-1700.388 -1137.531)" fill="none" stroke="#3fb1b5" stroke-linecap="round" stroke-miterlimit="10" stroke-width="1"/>
          <circle id="Ellipse_48" data-name="Ellipse 48" cx="1.256" cy="1.256" r="1.256" transform="translate(18.351 5.269)" fill="none" stroke="#3fb1b5" stroke-linecap="round" stroke-miterlimit="10" stroke-width="1"/>
          <circle id="Ellipse_49" data-name="Ellipse 49" cx="1.256" cy="1.256" r="1.256" transform="translate(80.373 13.16)" fill="none" stroke="#3fb1b5" stroke-linecap="round" stroke-miterlimit="10" stroke-width="1"/>
          <circle id="Ellipse_50" data-name="Ellipse 50" cx="1.256" cy="1.256" r="1.256" transform="translate(80.373 23.275)" fill="none" stroke="#3fb1b5" stroke-linecap="round" stroke-miterlimit="10" stroke-width="1"/>
          <path id="Path_83" data-name="Path 83" d="M2114.1,1507.347l5.013-7.147v7.147Z" transform="translate(-2064.816 -1455.473)" fill="#3fb1b5"/>
        </g>
        <g id="ARM">
          <path id="Path_84" data-name="Path 84" d="M1679.459,1099.372c-5.135,3.379-10.526,5.013-11.7,3.546a.476.476,0,0,1-.056-.078,1.626,1.626,0,0,1,0-1.478c.767-2.012,3.935-5.124,7.958-7.769a27.686,27.686,0,0,1,8.548-4.035c1.267-.255,2.212-.178,2.668.311h0l.111.133h0C1688.029,1091.6,1684.672,1095.937,1679.459,1099.372Z" transform="translate(-1660.294 -1063.426)" fill="#fe5244"/>
          <path id="Path_85" data-name="Path 85" d="M1621.64,891.546a27.72,27.72,0,0,1-8.2,3.824h0l-10.148-14.316a4.425,4.425,0,0,1,1.067-6.18l9.136-6.424-5.179-8.814a2.678,2.678,0,0,1,.967-3.679,2.639,2.639,0,0,1,1.334-.356,2.674,2.674,0,0,1,2.256,1.234l16.195,25.187.111.178h0C1630.209,883.777,1626.853,888.112,1621.64,891.546Z" transform="translate(-1602.474 -855.6)" fill="#e57281"/>
          <path id="Path_86" data-name="Path 86" d="M1669.846,972.1l5.658,8.77a1.776,1.776,0,0,1-.534,2.445l-1.256.823a1.777,1.777,0,0,1-2.468-.511l-5.346-8" transform="translate(-1658.85 -959.151)" fill="none" stroke="#9a3b82" stroke-linecap="round" stroke-miterlimit="10" stroke-width="1"/>
          <path id="Path_87" data-name="Path 87" d="M1680.823,1075.6a1.8,1.8,0,0,1-.533,2.49l-1.145.722a1.783,1.783,0,0,1-2.445-.522" transform="translate(-1668.45 -1051.147)" fill="none" stroke="#9a3b82" stroke-linecap="round" stroke-miterlimit="10" stroke-width="1"/>
          <path id="Path_88" data-name="Path 88" d="M1614.823,1029.2l5.235,7.781a1.78,1.78,0,0,1-.545,2.49l-1.067.589a1.782,1.782,0,0,1-2.412-.478L1613,1035.3" transform="translate(-1611.83 -1009.904)" fill="none" stroke="#9a3b82" stroke-linecap="round" stroke-miterlimit="10" stroke-width="1"/>
          <path id="Path_89" data-name="Path 89" d="M1701.3,996.88l-2.656-4.124a2.9,2.9,0,0,0-4.057-.834L1688,996.391s1.912,3.435,6.558.711l1.556,2.479h0a6.739,6.739,0,0,0-2.023,9.392Z" transform="translate(-1678.493 -976.328)" fill="#e57281"/>
          <path id="Path_90" data-name="Path 90" d="M1700.96,997.88l-2.656-4.124a2.9,2.9,0,0,0-4.057-.834L1688,997.28s1.912,3.435,6.558.711l1.556,2.479h0a6.739,6.739,0,0,0-2.023,9.392" transform="translate(-1678.494 -977.217)" fill="none" stroke="#9a3b82" stroke-linecap="round" stroke-miterlimit="10" stroke-width="1"/>
          <path id="Path_91" data-name="Path 91" d="M1689.126,1099.461a27.718,27.718,0,0,1-8.2,3.824h0l-2.523-3.557a29.63,29.63,0,0,1,6.925-6.036,27.685,27.685,0,0,1,8.548-4.035c1.267-.256,2.212-.178,2.668.311h0l.111.133h0c.011.022.022.033.033.056s.011.022.022.045.022.033.033.056C1697.5,1091.958,1694.172,1096.126,1689.126,1099.461Z" transform="translate(-1669.961 -1063.515)" fill="#9a3b82"/>
        </g>
        <g id="HEAD_2_" transform="translate(75.152 1.644)">
          <g id="Group_42" data-name="Group 42" transform="translate(4.868 19.964)">
            <path id="Path_92" data-name="Path 92" d="M2340.04,1050v9.77c0,2.834-3.935,5.124-8.77,5.124s-8.77-2.29-8.77-5.124V1050Z" transform="translate(-2322.489 -1050)" fill="#e57281"/>
            <path id="Path_93" data-name="Path 93" d="M2324.979,1063.394c-1.589-.922-2.579-2.212-2.579-3.624V1050h17.551v2.712a6.9,6.9,0,0,1-4.313,6.391Z" transform="translate(-2322.4 -1050)" fill="#9a3b82"/>
          </g>
          <path id="Path_94" data-name="Path 94" d="M2305.909,960.537v.167a3.055,3.055,0,0,1-3.057,3.057h-2.012a6.286,6.286,0,0,1-6.1,4.768h-4.979a6.261,6.261,0,0,1-6.091-4.768h-2.012a3.055,3.055,0,0,1-3.057-3.057v-.167a3.055,3.055,0,0,1,3.057-3.057h1.823v-2.412a5.117,5.117,0,0,1,4.379-5.068,6.027,6.027,0,0,0,5.546,2.968,17.44,17.44,0,0,0,4.257-.711,2.635,2.635,0,0,1,3.279,1.856,5.327,5.327,0,0,1,.089.945v2.412h1.823A3.071,3.071,0,0,1,2305.909,960.537Z" transform="translate(-2278.6 -941.151)" fill="#e57281"/>
          <path id="Path_95" data-name="Path 95" d="M2318.934,886.7h-1.4v-2.679a2.694,2.694,0,0,0-.089-.678,2.635,2.635,0,0,0-3.279-1.856,17.346,17.346,0,0,1-4.257.711,6.028,6.028,0,0,1-5.546-2.968,5.117,5.117,0,0,0-4.379,5.068v2.412h-1.745s-2-7.236-.5-9.281a2.623,2.623,0,0,1,3.257-1.134s-1.067-6.024,4.891-5.913,13.683,7.014,14.25,8.281C2321.023,880.614,2318.934,886.7,2318.934,886.7Z" transform="translate(-2295.114 -870.386)" fill="#9a3b82"/>
          <g id="Group_45" data-name="Group 45" transform="translate(2.079 13.293)">
            <g id="Group_43" data-name="Group 43" transform="translate(0 4.515)">
              <path id="Path_96" data-name="Path 96" d="M2486.4,1032.745a2.147,2.147,0,0,1,2.145-2.145" transform="translate(-2465.381 -1030.6)" fill="none" stroke="#9a3b82" stroke-linecap="round" stroke-miterlimit="10" stroke-width="1"/>
              <path id="Path_97" data-name="Path 97" d="M2299.445,1032.745a2.147,2.147,0,0,0-2.145-2.145" transform="translate(-2297.3 -1030.6)" fill="none" stroke="#9a3b82" stroke-linecap="round" stroke-miterlimit="10" stroke-width="1"/>
            </g>
            <g id="Group_44" data-name="Group 44" transform="translate(5.491)">
              <path id="Path_98" data-name="Path 98" d="M2426.39,990.606a3.855,3.855,0,0,0-3.59-.322" transform="translate(-2414.341 -989.982)" fill="none" stroke="#9a3b82" stroke-linecap="round" stroke-miterlimit="10" stroke-width="1"/>
              <path id="Path_99" data-name="Path 99" d="M2346.7,990.606a3.855,3.855,0,0,1,3.59-.322" transform="translate(-2346.7 -989.982)" fill="none" stroke="#9a3b82" stroke-linecap="round" stroke-miterlimit="10" stroke-width="1"/>
              <path id="Path_100" data-name="Path 100" d="M2398.479,1069.4s-.856,1.845-3.479.878" transform="translate(-2389.631 -1060.573)" fill="none" stroke="#9a3b82" stroke-linecap="round" stroke-miterlimit="10" stroke-width="1"/>
              <path id="Path_101" data-name="Path 101" d="M2393.9,1060.8c.678.044,1.712,0,1.712,0" transform="translate(-2388.654 -1052.929)" fill="none" stroke="#9a3b82" stroke-linecap="round" stroke-miterlimit="10" stroke-width="1"/>
              <ellipse id="Ellipse_51" data-name="Ellipse 51" cx="0.556" cy="0.934" rx="0.556" ry="0.934" transform="translate(9.703 3.392)" fill="#9a3b82"/>
              <ellipse id="Ellipse_52" data-name="Ellipse 52" cx="0.556" cy="0.934" rx="0.556" ry="0.934" transform="translate(1.734 3.392)" fill="#9a3b82"/>
            </g>
          </g>
          <g id="Group_46" data-name="Group 46" transform="translate(6.458 14.818)">
            <path id="Path_102" data-name="Path 102" d="M2341.424,1009.646h-3.5a1.219,1.219,0,0,1-1.223-1.223v-3.5a1.219,1.219,0,0,1,1.223-1.223h3.5a1.219,1.219,0,0,1,1.223,1.223v3.5A1.219,1.219,0,0,1,2341.424,1009.646Z" transform="translate(-2336.7 -1003.7)" fill="none" stroke="#fff" stroke-miterlimit="10" stroke-width="1"/>
            <path id="Path_103" data-name="Path 103" d="M2418.524,1009.646h-3.5a1.219,1.219,0,0,1-1.222-1.223v-3.5a1.219,1.219,0,0,1,1.222-1.223h3.5a1.219,1.219,0,0,1,1.223,1.223v3.5A1.226,1.226,0,0,1,2418.524,1009.646Z" transform="translate(-2405.23 -1003.7)" fill="none" stroke="#fff" stroke-miterlimit="10" stroke-width="1"/>
            <line id="Line_37" data-name="Line 37" x2="2.612" transform="translate(5.958 2.312)" fill="none" stroke="#fff" stroke-miterlimit="10" stroke-width="1"/>
          </g>
        </g>
      </g>
      <g id="ICON" transform="translate(81.677 66.057)">
        <path id="Path_104" data-name="Path 104" d="M2351.449,1377.759H2339.3a2,2,0,0,1-2-2V1369.3a2,2,0,0,1,2-2h12.148a2,2,0,0,1,2,2v6.458A2,2,0,0,1,2351.449,1377.759Z" transform="translate(-2337.3 -1367.3)" fill="none" stroke="#66b0f0" stroke-linejoin="round" stroke-miterlimit="10" stroke-width="4"/>
        <g id="Group_47" data-name="Group 47" transform="translate(3.079 2.601)">
          <path id="Path_105" data-name="Path 105" d="M2370.3,1395.958h-4.113a1.191,1.191,0,0,1-1.189-1.189v-2.879a1.191,1.191,0,0,1,1.189-1.189h4.113a1.191,1.191,0,0,1,1.189,1.189v2.879A1.191,1.191,0,0,1,2370.3,1395.958Z" transform="translate(-2365 -1390.7)" fill="#66b0f0"/>
          <path id="Path_106" data-name="Path 106" d="M2434.123,1395.99l-1.267-.845a1.287,1.287,0,0,1-.556-1.067v-1.267a1.287,1.287,0,0,1,.556-1.067l1.267-.845a.447.447,0,0,1,.689.4v4.3A.444.444,0,0,1,2434.123,1395.99Z" transform="translate(-2424.82 -1390.811)" fill="#66b0f0"/>
        </g>
      </g>
    </g>
    <g id="TABLE" transform="translate(931.093 596.01)">
      <line id="Line_38" data-name="Line 38" x1="295.073" transform="translate(0)" fill="none" stroke="#3fb1b5" stroke-linecap="round" stroke-miterlimit="10" stroke-width="1"/>
      <g id="Group_49" data-name="Group 49" transform="translate(15.228 1.945)">
        <path id="Path_107" data-name="Path 107" d="M1488.473,1806.2v137.227h-7.747v-26.12a4.416,4.416,0,0,0-4.413-4.413H1420.86a4.416,4.416,0,0,0-4.413,4.413v26.12H1408.7V1806.2Z" transform="translate(-1408.7 -1806.2)" fill="#fff" stroke="#3fb1b5" stroke-linecap="round" stroke-miterlimit="10" stroke-width="1"/>
        <path id="Path_108" data-name="Path 108" d="M1488.706,1806.2v36.413l-80.006,65.879.011-102.292Z" transform="translate(-1408.7 -1806.2)" fill="#d0f0e4"/>
        <path id="Path_109" data-name="Path 109" d="M1542.767,1866.779v24.887a4.174,4.174,0,0,1-4.179,4.179h-55.909a4.174,4.174,0,0,1-4.179-4.179v-24.887a4.174,4.174,0,0,1,4.179-4.179h55.909A4.174,4.174,0,0,1,1542.767,1866.779Z" transform="translate(-1470.742 -1856.331)" fill="none" stroke="#3fb1b5" stroke-linecap="round" stroke-miterlimit="10" stroke-width="1"/>
        <path id="Path_110" data-name="Path 110" d="M1666.266,2268.28h-27.521l-1.145-7.88h27.532Z" transform="translate(-1612.158 -2209.915)" fill="#ffcf2d"/>
        <g id="Group_48" data-name="Group 48" transform="translate(39.159 45.939)">
          <path id="Path_111" data-name="Path 111" d="M1790.633,2219.5a6.21,6.21,0,0,0-6.213,6.213v6.213H1761v-6.213a6.21,6.21,0,0,1,6.213-6.213Z" transform="translate(-1761 -2219.5)" fill="#fff" stroke="#3fb1b5" stroke-linecap="round" stroke-miterlimit="10" stroke-width="1"/>
          <path id="Path_112" data-name="Path 112" d="M1844.911,2224.046h-23.419a6.211,6.211,0,0,0-5.991-4.546h23.42A6.221,6.221,0,0,1,1844.911,2224.046Z" transform="translate(-1809.442 -2219.5)" fill="#fff" stroke="#3fb1b5" stroke-linecap="round" stroke-miterlimit="10" stroke-width="1"/>
        </g>
        <path id="Path_113" data-name="Path 113" d="M1542.767,2335.479v24.887a4.174,4.174,0,0,1-4.179,4.179h-55.909a4.175,4.175,0,0,1-4.179-4.179v-24.887a4.174,4.174,0,0,1,4.179-4.179h55.909A4.174,4.174,0,0,1,1542.767,2335.479Z" transform="translate(-1470.742 -2272.934)" fill="none" stroke="#3fb1b5" stroke-linecap="round" stroke-miterlimit="10" stroke-width="1"/>
        <path id="Path_114" data-name="Path 114" d="M1664.6,1978.99a3.589,3.589,0,0,1,3.59-3.59h15.728a3.589,3.589,0,0,1,3.59,3.59" transform="translate(-1636.156 -1956.593)" fill="none" stroke="#3fb1b5" stroke-linecap="round" stroke-miterlimit="10" stroke-width="1"/>
        <path id="Path_115" data-name="Path 115" d="M1664.6,2447.69a3.589,3.589,0,0,1,3.59-3.59h15.728a3.588,3.588,0,0,1,3.59,3.59" transform="translate(-1636.156 -2373.197)" fill="none" stroke="#3fb1b5" stroke-linecap="round" stroke-miterlimit="10" stroke-width="1"/>
      </g>
      <rect id="Rectangle_4" data-name="Rectangle 4" width="8.259" height="137.527" transform="translate(275.065 1.945)" fill="#fff" stroke="#3fb1b5" stroke-linecap="round" stroke-miterlimit="10" stroke-width="1"/>
      <line id="Line_39" data-name="Line 39" x2="172.351" transform="translate(142.974 139.472)" fill="none" stroke="#3fb1b5" stroke-linecap="round" stroke-miterlimit="10" stroke-width="1"/>
    </g>
    <g id="PLANT" transform="translate(944.486 541.734)">
      <path id="Path_116" data-name="Path 116" d="M1420.153,1335.8h-4.991s-7.125-29.688-13.383-30.656-6.58,10.459-6.58,10.459.111-17.373,15.75-14.994S1420.153,1335.8,1420.153,1335.8Z" transform="translate(-1394.866 -1300.387)" fill="#fff" stroke="#3fb1b5" stroke-linecap="round" stroke-miterlimit="10" stroke-width="1"/>
      <path id="Path_117" data-name="Path 117" d="M1465.9,1307.313s14.261-5.269,14.905,33.99" transform="translate(-1457.708 -1306.334)" fill="none" stroke="#3fb1b5" stroke-linecap="round" stroke-miterlimit="10" stroke-width="1"/>
      <rect id="Rectangle_5" data-name="Rectangle 5" width="23.442" height="19.085" transform="translate(15.44 34.97)" fill="#fe5244"/>
      <path id="Path_118" data-name="Path 118" d="M1638.229,1510.6a6.193,6.193,0,0,1-4.924-.156,8.564,8.564,0,0,1-3.312-2.612,10.9,10.9,0,0,1-2.156-6.78h0c0-6.869-5.469-11.182-7.714-2.09-.156.634-.3,1.323-.422,2.09v-.067h0a.277.277,0,0,1,.011-.089v-.044a26.8,26.8,0,0,1,.723-4.268,20.192,20.192,0,0,1,1.789-4.713,12.022,12.022,0,0,1,1.489-2.156,8.076,8.076,0,0,1,6.324-2.912c5.135,0,8.892,6.047,10.326,12.071C1641.619,1504.106,1641.108,1509.341,1638.229,1510.6Z" transform="translate(-1594.412 -1466.08)" fill="#fff" stroke="#3fb1b5" stroke-linecap="round" stroke-miterlimit="10" stroke-width="1"/>
      <path id="Path_119" data-name="Path 119" d="M1655.9,1506.223s10.292-7.325,13.316,21.1" transform="translate(-1626.589 -1482.591)" fill="none" stroke="#3fb1b5" stroke-linecap="round" stroke-miterlimit="10" stroke-width="1"/>
      <path id="Path_120" data-name="Path 120" d="M1392.194,1352.561c0,1.834-.211,8.848,6.48,9.17s7.358-9.781,7.358-9.781-3.29-8.937-6.925-9.848C1392.961,1340.557,1392.194,1352.561,1392.194,1352.561Z" transform="translate(-1392.193 -1337.343)" fill="#3fb1b5"/>
      <path id="Path_121" data-name="Path 121" d="M1627.836,1556.921H1619.7C1621.578,1545.15,1627.836,1549.574,1627.836,1556.921Z" transform="translate(-1594.412 -1521.952)" fill="#3fb1b5"/>
    </g>
    <g id="LIGHT" transform="translate(966.072 483.114)">
      <path id="Path_122" data-name="Path 122" d="M1994.442,780.136v73.371a7.137,7.137,0,0,1-7.136,7.136h-83.974a13.26,13.26,0,0,1-21.441,0l-.011-.011a7.111,7.111,0,0,1-5.18-2.812l1.934-1.667,49.351-42.593L1974.98,773h12.327A7.144,7.144,0,0,1,1994.442,780.136Z" transform="translate(-1844.433 -773)" fill="#fff" opacity="0.4"/>
      <path id="Path_123" data-name="Path 123" d="M1608.63,1607.46a6.1,6.1,0,0,1-4.924-.156v9.359H1586.4l14.005-12.082,3.312-2.857,2.523-2.179,4.88-4.146C1612.543,1601.469,1611.754,1606.026,1608.63,1607.46Z" transform="translate(-1586.4 -1503.99)" fill="#fff" opacity="0.4"/>
    </g>
    <g id="TRIANGLE" transform="translate(888.5 448.324)">
      <g id="Group_53" data-name="Group 53" transform="translate(8.379 9.39)">
        <g id="Group_50" data-name="Group 50" transform="translate(0.007 19.304)">
          <path id="Path_124" data-name="Path 124" d="M964.279,734.7a.332.332,0,0,1-.111-.645l1.045-.367a.33.33,0,1,1,.222.622l-1.045.367A.49.49,0,0,1,964.279,734.7Zm2.623-.911a.332.332,0,0,1-.111-.645l1.045-.367a.33.33,0,1,1,.222.622l-1.045.367A.4.4,0,0,1,966.9,733.784Zm2.623-.922a.332.332,0,0,1-.111-.645l1.045-.367a.331.331,0,0,1,.222.623l-1.045.367A.2.2,0,0,1,969.525,732.862Zm2.623-.911a.332.332,0,0,1-.111-.645l1.045-.367a.33.33,0,1,1,.222.622l-1.045.367A.183.183,0,0,1,972.148,731.95Zm2.623-.911a.332.332,0,0,1-.111-.645l1.045-.367a.33.33,0,1,1,.222.622l-1.045.367A.183.183,0,0,1,974.772,731.039Zm2.634-.911a.332.332,0,0,1-.111-.645l1.045-.367a.33.33,0,1,1,.222.622l-1.045.367A.22.22,0,0,1,977.406,730.128Zm2.623-.911a.332.332,0,0,1-.111-.645l1.045-.367a.33.33,0,0,1,.222.622l-1.045.367A.487.487,0,0,1,980.029,729.216Zm2.623-.911a.332.332,0,0,1-.111-.645l1.045-.367a.33.33,0,1,1,.222.622l-1.045.367A.49.49,0,0,1,982.652,728.3Zm2.623-.911a.332.332,0,0,1-.111-.645l1.045-.367a.33.33,0,1,1,.222.622l-1.045.367A.4.4,0,0,1,985.275,727.393Zm2.623-.911a.332.332,0,0,1-.111-.645l1.045-.367a.33.33,0,0,1,.222.622l-1.045.367A.4.4,0,0,1,987.9,726.482Zm2.623-.911a.332.332,0,0,1-.111-.645l1.045-.367a.33.33,0,0,1,.222.622l-1.045.367A.393.393,0,0,1,990.522,725.57Zm2.623-.923a.332.332,0,0,1-.111-.645l1.045-.367a.33.33,0,0,1,.222.622l-1.045.367A.183.183,0,0,1,993.145,724.648Zm2.623-.911a.332.332,0,0,1-.111-.645l1.045-.367a.33.33,0,1,1,.222.622l-1.045.367A.183.183,0,0,1,995.768,723.736Zm2.634-.911a.332.332,0,0,1-.111-.645l1.045-.367a.33.33,0,1,1,.222.622l-1.045.367A.22.22,0,0,1,998.4,722.825Zm2.623-.911a.332.332,0,0,1-.111-.645l1.045-.367a.331.331,0,0,1,.222.622l-1.045.367A.219.219,0,0,1,1001.026,721.914Zm2.623-.911a.332.332,0,0,1-.111-.645l1.045-.367a.33.33,0,1,1,.222.622l-1.045.367A.22.22,0,0,1,1003.649,721Zm2.623-.911a.332.332,0,0,1-.111-.645l1.045-.367a.33.33,0,1,1,.222.622l-1.045.367A.4.4,0,0,1,1006.272,720.091Zm2.623-.911a.332.332,0,0,1-.111-.645l1.045-.367a.33.33,0,1,1,.222.622l-1.045.367A.4.4,0,0,1,1008.895,719.179Z" transform="translate(-963.951 -718.151)" fill="#ffcf2d"/>
        </g>
        <g id="Group_51" data-name="Group 51" transform="translate(5.914 27.3)">
          <path id="Path_125" data-name="Path 125" d="M1023.342,798.642a.328.328,0,0,1-.333-.333c0-3.012-.934-5.2-2.79-6.491a6.073,6.073,0,0,0-2.812-1.056.328.328,0,0,1-.311-.356.325.325,0,0,1,.345-.311,6.543,6.543,0,0,1,3.134,1.156c2.568,1.778,3.1,4.824,3.1,7.058A.334.334,0,0,1,1023.342,798.642Z" transform="translate(-1017.094 -790.094)" fill="#3fb1b5"/>
        </g>
        <g id="Group_52" data-name="Group 52">
          <path id="Path_126" data-name="Path 126" d="M1029.157,580.329H964.222a.327.327,0,0,1-.3-.189.323.323,0,0,1,.033-.345l26.387-35.179a.338.338,0,0,1,.233-.133.317.317,0,0,1,.256.089l38.558,35.179a.343.343,0,0,1,.089.367A.356.356,0,0,1,1029.157,580.329Zm-64.268-.667H1028.3l-37.647-34.357Z" transform="translate(-963.887 -544.481)" fill="#3fb1b5"/>
        </g>
      </g>
      <g id="Group_56" data-name="Group 56" transform="translate(0 41.793)">
        <g id="Group_54" data-name="Group 54">
          <path id="Path_127" data-name="Path 127" d="M891.379,841.758a2.879,2.879,0,1,1,2.879-2.879A2.879,2.879,0,0,1,891.379,841.758Zm0-5.1a2.212,2.212,0,1,0,2.212,2.212A2.211,2.211,0,0,0,891.379,836.656Z" transform="translate(-888.5 -836)" fill="#ffcf2d"/>
        </g>
        <g id="Group_55" data-name="Group 55" transform="translate(5.091 2.879)">
          <rect id="Rectangle_6" data-name="Rectangle 6" width="0.667" height="2.545" fill="#ffcf2d"/>
        </g>
      </g>
      <g id="Group_59" data-name="Group 59" transform="translate(34.168)">
        <g id="Group_57" data-name="Group 57" transform="translate(0.022 1.578)">
          <path id="Path_128" data-name="Path 128" d="M1198.979,479.958a2.879,2.879,0,1,1,2.879-2.879A2.879,2.879,0,0,1,1198.979,479.958Zm0-5.1a2.217,2.217,0,1,0,2.212,2.223A2.211,2.211,0,0,0,1198.979,474.856Z" transform="translate(-1196.1 -474.2)" fill="#ffcf2d"/>
        </g>
        <g id="Group_58" data-name="Group 58">
          <rect id="Rectangle_7" data-name="Rectangle 7" width="0.667" height="6.991" fill="#ffcf2d"/>
        </g>
      </g>
      <g id="Group_60" data-name="Group 60" transform="translate(75.961 41.726)">
        <path id="Path_129" data-name="Path 129" d="M1574.779,841.158a2.879,2.879,0,1,1,0-5.758v.667a2.212,2.212,0,1,0,0,4.424Z" transform="translate(-1571.9 -835.4)" fill="#ffcf2d"/>
      </g>
    </g>
    <g id="GIRL" transform="translate(1021.659 495.01)">
      <g id="GIRL_1_" transform="translate(0)">
        <g id="LEGS" transform="translate(41.614 106.346)">
          <g id="RIGHT_LEG" transform="translate(35.969 34.612)">
            <path id="Path_130" data-name="Path 130" d="M2820.935,2148.2v61.866h-14.294l-9.1-25.42L2784.5,2148.2Z" transform="translate(-2784.5 -2148.2)" fill="#a0505a"/>
            <path id="Path_131" data-name="Path 131" d="M2784.5,2148.2h36.435v19.863l-32.1-7.758Z" transform="translate(-2784.5 -2148.2)" fill="#73325a"/>
            <g id="Group_61" data-name="Group 61" transform="translate(13.038 36.446)">
              <path id="Path_132" data-name="Path 132" d="M2925.2,2476.1v25.42H2910.9l-9.1-25.42S2909.169,2480.168,2925.2,2476.1Z" transform="translate(-2901.8 -2476.1)" fill="none" stroke="#fff" stroke-linecap="round" stroke-miterlimit="10" stroke-width="1"/>
              <circle id="Ellipse_53" data-name="Ellipse 53" cx="1.623" cy="1.623" r="1.623" transform="translate(5.813 2.723)" fill="none" stroke="#fff" stroke-linecap="round" stroke-miterlimit="10" stroke-width="1"/>
              <circle id="Ellipse_54" data-name="Ellipse 54" cx="1.623" cy="1.623" r="1.623" transform="translate(13.549 7.958)" fill="none" stroke="#fff" stroke-linecap="round" stroke-miterlimit="10" stroke-width="1"/>
              <circle id="Ellipse_55" data-name="Ellipse 55" cx="1.623" cy="1.623" r="1.623" transform="translate(19.307 2.145)" fill="none" stroke="#fff" stroke-linecap="round" stroke-miterlimit="10" stroke-width="1"/>
              <circle id="Ellipse_56" data-name="Ellipse 56" cx="1.623" cy="1.623" r="1.623" transform="translate(17.028 14.049)" fill="none" stroke="#fff" stroke-linecap="round" stroke-miterlimit="10" stroke-width="1"/>
              <circle id="Ellipse_57" data-name="Ellipse 57" cx="1.623" cy="1.623" r="1.623" transform="translate(7.436 11.093)" fill="none" stroke="#fff" stroke-linecap="round" stroke-miterlimit="10" stroke-width="1"/>
              <circle id="Ellipse_58" data-name="Ellipse 58" cx="1.623" cy="1.623" r="1.623" transform="translate(10.081 19.985)" fill="none" stroke="#fff" stroke-linecap="round" stroke-miterlimit="10" stroke-width="1"/>
            </g>
            <g id="Group_63" data-name="Group 63" transform="translate(8.423 56.498)">
              <path id="Path_133" data-name="Path 133" d="M2895.05,2673.406l-9.8,20.352a8.871,8.871,0,0,1-8.17,5.413h-12.5a4.372,4.372,0,0,1-3.924-6.2l12.571-30.322a9.578,9.578,0,0,1,3.479-4.457,9.452,9.452,0,0,1,5.391-1.689c2.734,0,5.447,1.856,7.247,3.913l4.357,4.7A7.893,7.893,0,0,1,2895.05,2673.406Z" transform="translate(-2860.28 -2656.5)" fill="#66b0f0"/>
              <path id="Path_134" data-name="Path 134" d="M2904.312,2739.359l-9.8,20.352a8.87,8.87,0,0,1-8.169,5.413h-13.294a2.449,2.449,0,0,1-2.345-1.823h2.957a8.871,8.871,0,0,0,8.17-5.413l11.3-23.575a6.372,6.372,0,0,1,5.735-3.612,6.1,6.1,0,0,1,6.058,5.291A7.906,7.906,0,0,1,2904.312,2739.359Z" transform="translate(-2869.542 -2722.453)" fill="#fff" stroke="#66b0f0" stroke-linejoin="round" stroke-miterlimit="10" stroke-width="1"/>
              <g id="Group_62" data-name="Group 62" transform="translate(0.136 5.858)">
                <path id="Path_135" data-name="Path 135" d="M2893.878,2710.978a8.493,8.493,0,0,0-3.846-1.111,6.279,6.279,0,0,0-5.635,3.545l-11.7,24.409a9.5,9.5,0,0,1-8.77,5.8h-2.156a4.411,4.411,0,0,1-.267-.667h2.423a8.845,8.845,0,0,0,8.158-5.4l.011-.011,11.715-24.42a6.941,6.941,0,0,1,6.236-3.924,8.984,8.984,0,0,1,2.723.578Z" transform="translate(-2861.5 -2709.2)" fill="#fff"/>
              </g>
            </g>
          </g>
          <g id="LEFT_LEG">
            <path id="Path_136" data-name="Path 136" d="M2496.862,1871.412l-2.79,36.446-1.245,16.328s-8.125,9.048-17.373,3.468l-4.279-19.785-9.792-45.272a21.455,21.455,0,0,1,18.129-25.8Z" transform="translate(-2460.893 -1836.8)" fill="#a0505a"/>
            <g id="Group_64" data-name="Group 64" transform="translate(10.282 71.059)">
              <path id="Path_137" data-name="Path 137" d="M2576.3,2476.1l-1.245,16.772s-8.125,9.048-17.373,3.468l-4.279-20.229C2564.148,2479.334,2576.3,2476.1,2576.3,2476.1Z" transform="translate(-2553.4 -2476.1)" fill="none" stroke="#fff" stroke-linecap="round" stroke-miterlimit="10" stroke-width="1"/>
              <circle id="Ellipse_59" data-name="Ellipse 59" cx="1.623" cy="1.623" r="1.623" transform="translate(8.503 6.836)" fill="none" stroke="#fff" stroke-linecap="round" stroke-miterlimit="10" stroke-width="1"/>
              <circle id="Ellipse_60" data-name="Ellipse 60" cx="1.623" cy="1.623" r="1.623" transform="translate(18.818 4.346)" fill="none" stroke="#fff" stroke-linecap="round" stroke-miterlimit="10" stroke-width="1"/>
              <circle id="Ellipse_61" data-name="Ellipse 61" cx="1.623" cy="1.623" r="1.623" transform="translate(2.279 2.145)" fill="none" stroke="#fff" stroke-linecap="round" stroke-miterlimit="10" stroke-width="1"/>
              <circle id="Ellipse_62" data-name="Ellipse 62" cx="1.623" cy="1.623" r="1.623" transform="translate(6.88 15.672)" fill="none" stroke="#fff" stroke-linecap="round" stroke-miterlimit="10" stroke-width="1"/>
              <circle id="Ellipse_63" data-name="Ellipse 63" cx="1.623" cy="1.623" r="1.623" transform="translate(14.45 12.427)" fill="none" stroke="#fff" stroke-linecap="round" stroke-miterlimit="10" stroke-width="1"/>
            </g>
            <g id="Group_66" data-name="Group 66" transform="translate(14.55 87.376)">
              <path id="Path_138" data-name="Path 138" d="M2619.9,2626.8l-10.715,42.849h-3.379c-.156,0-.3-.011-.456-.022a6.233,6.233,0,0,1-5.258-4.935l-8.292-38.336c9.248,5.591,17.384-3.457,17.384-3.457Z" transform="translate(-2591.8 -2622.9)" fill="#66b0f0"/>
              <path id="Path_139" data-name="Path 139" d="M2727.776,2681.476c2.256-11.915,2.879-21.019-1.011-21.752s-10.815,7.169-13.072,19.085-1.078,22.452,2.812,23.186S2725.52,2693.4,2727.776,2681.476Z" transform="translate(-2699.132 -2655.589)" fill="#fff" stroke="#66b0f0" stroke-linejoin="round" stroke-miterlimit="10" stroke-width="1"/>
              <g id="Group_65" data-name="Group 65" transform="translate(11.115 2.256)">
                <path id="Path_140" data-name="Path 140" d="M2693.692,2663.974a57.884,57.884,0,0,0-.956,16.817c.4,3.356,1.245,5.746,2.4,6.9h-.445c-.155,0-.3-.011-.456-.022-1.045-1.378-1.79-3.69-2.167-6.8a58.117,58.117,0,0,1,.967-17.017,39.841,39.841,0,0,1,6.4-15.628,15.231,15.231,0,0,1,5.413-5.024l1,.333C2701.884,2644.712,2695.859,2652.537,2693.692,2663.974Z" transform="translate(-2691.802 -2643.2)" fill="#fff"/>
              </g>
            </g>
          </g>
        </g>
        <g id="SKIRT" transform="translate(60.122 101.111)">
          <path id="Path_141" data-name="Path 141" d="M2628.4,1794.924l50.707-5.224,50.685,14.216-.434,6.736a20.518,20.518,0,0,1-20.5,18.9h-63.1Z" transform="translate(-2628.289 -1789.7)" fill="#fe5244"/>
          <g id="Group_67" data-name="Group 67" transform="translate(0 4.468)">
            <path id="Path_142" data-name="Path 142" d="M2847.875,1913.2c0,9.648-9.625,21.452-20.274,21.452h-63.1" transform="translate(-2749.261 -1903.941)" fill="none" stroke="#fff" stroke-linecap="round" stroke-linejoin="round" stroke-miterlimit="10" stroke-width="1"/>
            <path id="Path_143" data-name="Path 143" d="M2821.417,1895.9c-1.578,8.614-10,17.818-19.229,17.818H2741.5" transform="translate(-2728.818 -1888.564)" fill="none" stroke="#fff" stroke-linecap="round" stroke-linejoin="round" stroke-miterlimit="10" stroke-width="1"/>
            <path id="Path_144" data-name="Path 144" d="M2788.805,1877.5c-2.667,7.314-9.9,14.194-17.74,14.194H2712.5" transform="translate(-2703.041 -1872.209)" fill="none" stroke="#fff" stroke-linecap="round" stroke-linejoin="round" stroke-miterlimit="10" stroke-width="1"/>
            <path id="Path_145" data-name="Path 145" d="M2760.438,1864.6c-3.5,5.324-9.248,9.515-15.372,9.515H2686.5" transform="translate(-2679.931 -1860.743)" fill="none" stroke="#fff" stroke-linecap="round" stroke-linejoin="round" stroke-miterlimit="10" stroke-width="1"/>
            <path id="Path_146" data-name="Path 146" d="M2732.348,1849.8a17.643,17.643,0,0,1-12.282,5.6H2661.5" transform="translate(-2657.71 -1847.588)" fill="none" stroke="#fff" stroke-linecap="round" stroke-linejoin="round" stroke-miterlimit="10" stroke-width="1"/>
            <path id="Path_147" data-name="Path 147" d="M2700.713,1829.9a15.571,15.571,0,0,1-7.647,2.145H2634.5" transform="translate(-2633.711 -1829.9)" fill="none" stroke="#fff" stroke-linecap="round" stroke-linejoin="round" stroke-miterlimit="10" stroke-width="1"/>
            <line id="Line_40" data-name="Line 40" x1="17.351" y1="34.624" transform="translate(0 0.756)" fill="none" stroke="#fff" stroke-linecap="round" stroke-linejoin="round" stroke-miterlimit="10" stroke-width="1"/>
          </g>
        </g>
        <g id="HANDS" transform="translate(0 60.752)">
          <g id="RIGHT_HAND" transform="translate(154.358 1.097)">
            <path id="Path_148" data-name="Path 148" d="M3485.272,1443.552c-4.779,1.356-9.481.956-9.981-.5-.467-1.389,1.645-3.768,5.924-5.346.211-.078.434-.156.656-.233a19.042,19.042,0,0,1,3.79-.856c3.59-.456,6.513.189,6.88,1.278C3493.042,1439.351,3490.33,1442.118,3485.272,1443.552Z" transform="translate(-3475.227 -1436.469)" fill="#fff" stroke="#3fb1b5" stroke-linejoin="round" stroke-miterlimit="10" stroke-width="1"/>
            <path id="Path_149" data-name="Path 149" d="M3484.269,1477.858h-1.834l-4.813-32.489v-.022l-.122-.811c.233-1.478,2.545-3.568,6.625-4.924a19.794,19.794,0,0,1,5.78-1.011l1.756,4.813.167.456,5.557,15.239A13.958,13.958,0,0,1,3484.269,1477.858Z" transform="translate(-3477.247 -1438.363)" fill="#a0505a"/>
            <path id="Path_150" data-name="Path 150" d="M3491.772,1443.757a17.424,17.424,0,0,1-4.479,1.923c-4.135,1.167-8.325.689-9.67-.311v-.022l-.122-.811c.233-1.478,2.545-3.568,6.625-4.924a19.794,19.794,0,0,1,5.78-1.011Z" transform="translate(-3477.247 -1438.363)" fill="#73325a"/>
          </g>
          <g id="LEFT_HAND">
            <path id="Path_151" data-name="Path 151" d="M2188.348,1440.46l-5.835,14.516a18.934,18.934,0,0,1-17.573,11.871H2086.5v-7.18a4.163,4.163,0,0,1,2.69-3.9l8.059-3.057a6.418,6.418,0,0,1,2.278-.422h9.148l51.774-5.224,8.937-20.463Z" transform="translate(-2086.5 -1426.6)" fill="#a0505a"/>
            <path id="Path_152" data-name="Path 152" d="M2097.614,1701.2l-6.08,2.3a3.153,3.153,0,0,0-2.034,2.946" transform="translate(-2089.167 -1670.678)" fill="none" stroke="#73325a" stroke-linecap="round" stroke-miterlimit="10" stroke-width="1"/>
            <path id="Path_153" data-name="Path 153" d="M2097.614,1734.2l-6.08,2.3a3.153,3.153,0,0,0-2.034,2.946" transform="translate(-2089.167 -1700.01)" fill="none" stroke="#73325a" stroke-linecap="round" stroke-miterlimit="10" stroke-width="1"/>
            <line id="Line_41" data-name="Line 41" x1="6.08" y2="2.19" transform="translate(2.368 37.725)" fill="none" stroke="#73325a" stroke-linecap="round" stroke-miterlimit="10" stroke-width="1"/>
            <path id="Path_154" data-name="Path 154" d="M2156.8,1558.358s5.691-14.527,7.514-14.283-5.046,13.349-5.046,13.349Z" transform="translate(-2148.986 -1531.015)" fill="#fe5244"/>
            <path id="Path_155" data-name="Path 155" d="M2821.711,1426.7l-1.312,2.99,16.795,19.507,3.479-8.648Z" transform="translate(-2738.826 -1426.689)" fill="#73325a"/>
          </g>
        </g>
        <g id="T-SHIRT" transform="translate(78.35 33.765)">
          <path id="Path_156" data-name="Path 156" d="M2867.783,1218.9l6.892,46.461L2824,1251.146l-9.1-26.509-23.5-17.173,8.248-9.826a38.726,38.726,0,0,1,29.666-13.838H2845.6a38.744,38.744,0,0,1,33.99,20.163l5.28,9.137s-1.589-2.334-10.159.011C2867.161,1215.189,2867.783,1218.9,2867.783,1218.9Z" transform="translate(-2791.4 -1183.8)" fill="#3fb1b5"/>
          <line id="Line_42" data-name="Line 42" y1="11.426" x2="2.634" transform="translate(23.497 29.199)" fill="none" stroke="#fff" stroke-linecap="round" stroke-linejoin="round" stroke-miterlimit="10" stroke-width="1"/>
          <line id="Line_43" data-name="Line 43" x1="8.57" y1="53.275" transform="translate(73.426 17.44)" fill="none" stroke="#fff" stroke-linecap="round" stroke-linejoin="round" stroke-miterlimit="10" stroke-width="1"/>
          <line id="Line_44" data-name="Line 44" x2="50.574" y2="14.427" transform="translate(32.589 67.135)" fill="none" stroke="#fff" stroke-linecap="round" stroke-linejoin="round" stroke-miterlimit="10" stroke-width="1"/>
        </g>
        <g id="HEAD" transform="translate(103.888)">
          <path id="NECK" d="M3109.2,1070.424v7.469l13.183-.111V1064.6Z" transform="translate(-3099.414 -1044.084)" fill="#a0505a"/>
          <g id="HEAD_1_" transform="translate(0 3.532)">
            <path id="Path_157" data-name="Path 157" d="M3045.19,926.483v.2a3.531,3.531,0,0,1-3.513,3.624h-.778c-.5,1.979-4.946,4.29-8.1,4.29h-3.679a6.535,6.535,0,0,1-6.447-7.592l.178-1.078-1.089-.611a1.184,1.184,0,0,1-.366-1.745l2.356-3.112.511-3.068a7.487,7.487,0,0,1,4.268-5.591c.867,9.77,9.492,10.926,11.771,11.06h1.267A3.624,3.624,0,0,1,3045.19,926.483Z" transform="translate(-3021.154 -911.8)" fill="#a0505a"/>
            <path id="Path_158" data-name="Path 158" d="M3184.9,1029.656a2.856,2.856,0,0,1,2.856-2.856" transform="translate(-3166.699 -1014.018)" fill="none" stroke="#73325a" stroke-linecap="round" stroke-miterlimit="10" stroke-width="1"/>
            <ellipse id="Ellipse_64" data-name="Ellipse 64" cx="0.567" cy="1.312" rx="0.567" ry="1.312" transform="translate(5.585 8.536)" fill="#73325a"/>
            <path id="Path_159" data-name="Path 159" d="M3068.7,963.881s1.567-.156,3.179,2.067" transform="translate(-3063.415 -958.09)" fill="none" stroke="#73325a" stroke-linecap="round" stroke-miterlimit="10" stroke-width="1"/>
          </g>
          <g id="HAIR" transform="translate(7.385)">
            <path id="Path_160" data-name="Path 160" d="M3099.359,894.616h1.267a3.624,3.624,0,0,1,3.624,3.624v.2a3.531,3.531,0,0,1-3.512,3.624l-.856.6c-3.6,2.312-8.581,11.4-7.358,17.84,1.378,7.236,7.68,8.848,13.5,7.736s10.07-4.5,8.692-11.749a14.486,14.486,0,0,0-.734-2.557c.1.033.189.067.289.1,7,1.912,15.228,2.134,17.5-3.335s1.756-10.882-5.057-13.7c-3.957-1.645-9.337-1.634-13.5-.5,2.1-7.3-1.634-15.428-8.492-16.239-10.771-1.278-16.95,3.168-17.117,3.29h0C3087.588,884.835,3088.466,893.983,3099.359,894.616Z" transform="translate(-3087.599 -880.025)" fill="#73325a"/>
            <path id="Path_161" data-name="Path 161" d="M3275.435,1025.9a15.284,15.284,0,0,1-5.635,7.992,16.439,16.439,0,0,1,6.425,9.815" transform="translate(-3249.548 -1009.686)" fill="none" stroke="#fff" stroke-linecap="round" stroke-linejoin="round" stroke-miterlimit="10" stroke-width="1"/>
            <g id="Group_70" data-name="Group 70" transform="translate(9.457 10.234)">
              <g id="Group_68" data-name="Group 68" transform="translate(16.486)">
                <path id="Path_162" data-name="Path 162" d="M3324.145,977.835H3321.2V974.89a2.785,2.785,0,0,1,2.79-2.79h.155a2.784,2.784,0,0,1,2.79,2.79v.156A2.784,2.784,0,0,1,3324.145,977.835Z" transform="translate(-3321.177 -972.1)" fill="none" stroke="#fe5244" stroke-linejoin="round" stroke-miterlimit="10" stroke-width="1"/>
                <path id="Path_163" data-name="Path 163" d="M3322.89,1007.826l-1.89-3,3-1.89a3.218,3.218,0,0,1,4.435,1l.178.278a3.218,3.218,0,0,1-1,4.435l-.278.178A3.226,3.226,0,0,1,3322.89,1007.826Z" transform="translate(-3321 -999.067)" fill="none" stroke="#fe5244" stroke-linejoin="round" stroke-miterlimit="10" stroke-width="1"/>
              </g>
              <g id="Group_69" data-name="Group 69" transform="translate(0 11.085)">
                <path id="Path_164" data-name="Path 164" d="M3173.65,1083.012l2.1-2.012,2.056,2.323a2.785,2.785,0,0,1-.289,3.935l-.122.1a2.785,2.785,0,0,1-3.935-.289l-.1-.122A2.786,2.786,0,0,1,3173.65,1083.012Z" transform="translate(-3172.681 -1079.98)" fill="none" stroke="#fe5244" stroke-linejoin="round" stroke-miterlimit="10" stroke-width="1"/>
                <path id="Path_165" data-name="Path 165" d="M3201.445,1076.3l-.945-3.412,3.412-.945a3.21,3.21,0,0,1,3.957,2.234l.089.323a3.21,3.21,0,0,1-2.234,3.957l-.322.089A3.234,3.234,0,0,1,3201.445,1076.3Z" transform="translate(-3197.408 -1071.826)" fill="none" stroke="#fe5244" stroke-linejoin="round" stroke-miterlimit="10" stroke-width="1"/>
              </g>
            </g>
          </g>
        </g>
      </g>
      <g id="CHAIR" transform="translate(75.071 140.959)">
        <line id="Line_45" data-name="Line 45" x1="19.363" y2="90.621" transform="translate(0 8.548)" fill="none" stroke="#ffcf2d" stroke-linecap="round" stroke-miterlimit="10" stroke-width="1"/>
        <line id="Line_46" data-name="Line 46" x2="19.363" y2="90.621" transform="translate(68.914 8.548)" fill="none" stroke="#ffcf2d" stroke-linecap="round" stroke-miterlimit="10" stroke-width="1"/>
        <line id="Line_47" data-name="Line 47" x2="79.429" transform="translate(4.29 79.051)" fill="none" stroke="#ffcf2d" stroke-linecap="round" stroke-miterlimit="10" stroke-width="1"/>
        <path id="Path_166" data-name="Path 166" d="M2864.273,2156.748h-80.04a1.836,1.836,0,0,1-1.834-1.834v-4.879a1.836,1.836,0,0,1,1.834-1.834h80.04a1.836,1.836,0,0,1,1.834,1.834v4.879A1.836,1.836,0,0,1,2864.273,2156.748Z" transform="translate(-2780.121 -2148.2)" fill="#fff" stroke="#66b0f0" stroke-linejoin="round" stroke-miterlimit="10" stroke-width="1"/>
      </g>
    </g>
  </g>
</svg>
