<svg xmlns="http://www.w3.org/2000/svg" width="28" height="28" viewBox="0 0 28 28">
  <g id="Change-pic" transform="translate(-235 -149)">
    <g id="Ellipse_172" data-name="Ellipse 172" transform="translate(235 149)" fill="#39a9c7" stroke="#39a9c7" stroke-width="1">
      <circle cx="14" cy="14" r="14" stroke="none"/>
      <circle cx="14" cy="14" r="13.5" fill="none"/>
    </g>
    <g id="Icon_feather-camera" data-name="Icon feather-camera" transform="translate(239.33 155.34)">
      <path id="Path_1211" data-name="Path 1211" d="M20.848,18.571a1.759,1.759,0,0,1-1.759,1.759H3.259A1.759,1.759,0,0,1,1.5,18.571V8.9A1.759,1.759,0,0,1,3.259,7.138H6.777L8.536,4.5h5.277l1.759,2.638h3.518A1.759,1.759,0,0,1,20.848,8.9Z" transform="translate(-1.5 -4.5)" fill="none" stroke="#fff" stroke-linecap="round" stroke-linejoin="round" stroke-width="1"/>
      <path id="Path_1212" data-name="Path 1212" d="M19.036,17.018A3.518,3.518,0,1,1,15.518,13.5,3.518,3.518,0,0,1,19.036,17.018Z" transform="translate(-5.844 -8.223)" fill="none" stroke="#fff" stroke-linecap="round" stroke-linejoin="round" stroke-width="1"/>
    </g>
  </g>
</svg>
