<svg id="Design-icon" xmlns="http://www.w3.org/2000/svg" width="24" height="24" viewBox="0 0 24 24">
  <g id="Group_3258" data-name="Group 3258" transform="translate(19.781 4.688)">
    <g id="Group_3257" data-name="Group 3257">
      <path id="Path_1135" data-name="Path 1135" d="M422.469,100a.469.469,0,1,0,.469.469A.469.469,0,0,0,422.469,100Z" transform="translate(-422 -100)"/>
    </g>
  </g>
  <g id="Group_3260" data-name="Group 3260" transform="translate(3.281 4.688)">
    <g id="Group_3259" data-name="Group 3259">
      <path id="Path_1136" data-name="Path 1136" d="M70.469,100a.469.469,0,1,0,.469.469A.469.469,0,0,0,70.469,100Z" transform="translate(-70 -100)"/>
    </g>
  </g>
  <g id="Group_3262" data-name="Group 3262" transform="translate(20.829 6.242)">
    <g id="Group_3261" data-name="Group 3261">
      <path id="Path_1137" data-name="Path 1137" d="M447.059,137.229H446.5a10.646,10.646,0,0,0-1.263-3.83.469.469,0,0,0-.819.456,9.716,9.716,0,0,1,1.137,3.374h-.369a.469.469,0,0,0-.469.469v1.875a.469.469,0,0,0,.469.469h1.875a.469.469,0,0,0,.469-.469V137.7A.469.469,0,0,0,447.059,137.229Zm-.469,1.875h-.938v-.938h.938Z" transform="translate(-444.357 -133.158)"/>
    </g>
  </g>
  <g id="Group_3264" data-name="Group 3264" transform="translate(6.844 4.688)">
    <g id="Group_3263" data-name="Group 3263">
      <path id="Path_1138" data-name="Path 1138" d="M156.312,109.029c0-.007,0-.015,0-.022s0-.02,0-.03,0-.012,0-.018,0-.023-.008-.034l0-.013c0-.014-.009-.028-.014-.041l0,0a.472.472,0,0,0-.022-.046l-4.687-8.578a.469.469,0,0,0-.823,0l-4.687,8.578a.459.459,0,0,0-.022.046l0,0q-.008.02-.014.041l0,.013c0,.011-.006.022-.008.034s0,.012,0,.018,0,.02,0,.029,0,.015,0,.022,0,.012,0,.018,0,.006,0,.009,0,.015,0,.022,0,.019,0,.028,0,.013,0,.019,0,.02.006.03l0,.017c0,.011.006.021.01.032l0,.009,1.691,4.48a1.406,1.406,0,0,0,.154,2.587v2.565a.469.469,0,0,0,.469.469h5.625a.469.469,0,0,0,.469-.469V116.28a1.406,1.406,0,0,0,.154-2.587l1.691-4.48,0-.009c0-.01.007-.021.01-.032l0-.017q0-.015.006-.03c0-.006,0-.013,0-.019s0-.018,0-.028,0-.015,0-.022,0-.006,0-.009S156.312,109.035,156.312,109.029Zm-5.155-.451a.469.469,0,1,1-.469.469A.469.469,0,0,1,151.156,108.578Zm2.344,9.8h-4.687v-2.016H153.5Zm.8-3.091a.466.466,0,0,1-.331.137h-5.625a.469.469,0,0,1,0-.937h5.627a.469.469,0,0,1,.33.8Zm-.656-1.738h-4.977l-1.521-4.031h1.2a.469.469,0,1,0,0-.937h-1.085l3.428-6.274v5.417a1.406,1.406,0,1,0,.937,0V102.3l3.428,6.274h-1.085a.469.469,0,1,0,0,.938h1.2Z" transform="translate(-146 -100)"/>
    </g>
  </g>
  <g id="Group_3266" data-name="Group 3266" transform="translate(0 6.242)">
    <g id="Group_3265" data-name="Group 3265">
      <path id="Path_1139" data-name="Path 1139" d="M2.93,133.217a.469.469,0,0,0-.638.182,10.648,10.648,0,0,0-1.263,3.83H.469A.469.469,0,0,0,0,137.7v1.875a.469.469,0,0,0,.469.469H2.344a.469.469,0,0,0,.469-.469V137.7a.469.469,0,0,0-.469-.469H1.975a9.716,9.716,0,0,1,1.137-3.374A.469.469,0,0,0,2.93,133.217ZM1.875,139.1H.938v-.937h.938Z" transform="translate(0 -133.157)"/>
    </g>
  </g>
  <g id="Group_3268" data-name="Group 3268">
    <g id="Group_3267" data-name="Group 3267">
      <path id="Path_1140" data-name="Path 1140" d="M22.594,0a1.409,1.409,0,0,0-1.326.938H13.406V.469A.469.469,0,0,0,12.938,0H11.063a.469.469,0,0,0-.469.469V.938H2.732a1.406,1.406,0,1,0,0,.938H7.444a10.378,10.378,0,0,0-2.671,1.6.469.469,0,1,0,.6.717,10.569,10.569,0,0,1,5.216-2.215v.369a.469.469,0,0,0,.469.469h1.875a.469.469,0,0,0,.469-.469V1.974a10.57,10.57,0,0,1,5.216,2.215.469.469,0,0,0,.6-.717,10.378,10.378,0,0,0-2.671-1.6h4.713A1.406,1.406,0,1,0,22.594,0ZM1.406,1.875a.469.469,0,1,1,.469-.469A.469.469,0,0,1,1.406,1.875Zm11.063-.469v.469h-.937V.938h.938Zm10.125.469a.469.469,0,1,1,.469-.469A.469.469,0,0,1,22.594,1.875Z"/>
    </g>
  </g>
</svg>
