<svg xmlns="http://www.w3.org/2000/svg" width="24" height="26.986" viewBox="0 0 24 26.986">
  <g id="History-icon" transform="translate(-40.079 -10.343)">
    <path id="Path_1087" data-name="Path 1087" d="M62.212,30.039a.445.445,0,0,0-.356-.711H56.922a2.226,2.226,0,0,0-2.178-1.778H53.41V26.477A8.834,8.834,0,0,0,57.6,24.363l.833.833.629-.629-.834-.834a8.946,8.946,0,0,0,.658-.817l-.724-.515a8.046,8.046,0,0,1-.563.7l-.632-.632A7.108,7.108,0,0,0,46.929,12.439l-.632-.632a8.043,8.043,0,0,1,.7-.563l-.516-.724a8.947,8.947,0,0,0-.817.658l-.834-.834-.629.629.833.833a8.886,8.886,0,0,0,5.7,14.806v.938H49.409a2.225,2.225,0,0,0-2.223,2.223.445.445,0,0,0,.445.445h1.607a3.443,3.443,0,0,0,0,2.667H44.013a2.536,2.536,0,0,1,0-2.667H46.3v-.889H41.112a.445.445,0,0,0-.356.178,3.426,3.426,0,0,0,0,4.09.445.445,0,0,0,.356.178h1.014a3.429,3.429,0,0,0,.408,3.378.445.445,0,0,0,.356.178H63.634a.445.445,0,0,0,.356-.711,2.532,2.532,0,0,1,0-3.023.445.445,0,0,0-.356-.711H62.09a2.534,2.534,0,0,1,.121-2.845Zm-1.12.178a3.417,3.417,0,0,0-.239.889H53.008a2.507,2.507,0,0,1,.34-.889ZM54.128,36.44H52.014a2.536,2.536,0,0,1,0-2.667h2.114A3.443,3.443,0,0,0,54.128,36.44Zm-8.337-2.667h5.225a3.443,3.443,0,0,0,0,2.667H45.791A2.536,2.536,0,0,1,45.791,33.773Zm12.064-16a6.243,6.243,0,0,1-.064.888l-1.135,0-1.024-.682v-1.54a.445.445,0,0,0-.063-.229L54.3,14.09V12.148a6.231,6.231,0,0,1,3.556,5.622ZM53.41,11.806v2.408a.445.445,0,0,0,.063.229l1.27,2.117v1.655a.445.445,0,0,0,.2.37l1.334.889a.445.445,0,0,0,.247.075H57.6a6.223,6.223,0,0,1-12.124-2.667H46.4l.36,1.441a.445.445,0,0,0,.431.337H48.52v1.334a.445.445,0,0,0,.075.247l.814,1.222v1.2a.445.445,0,0,0,.445.445h1.778a.445.445,0,0,0,.347-.167l1.778-2.223a.445.445,0,0,0-.347-.722h-.889V18.214a.445.445,0,0,0-.445-.445H49.409v-.754l.682-1.024h1.54a.445.445,0,0,0,.4-.643L51.14,13.57a.445.445,0,0,0-.4-.246H49.409V11.957A6.223,6.223,0,0,1,53.41,11.806Zm-1.334,9.076h.409l-1.067,1.334H50.3v-.889a.445.445,0,0,0-.075-.247l-.814-1.222v-1.2h2.223v1.778A.445.445,0,0,0,52.076,20.881Zm-3.556-8.5v1.387a.445.445,0,0,0,.445.445h1.5l.445.889H49.854a.445.445,0,0,0-.37.2l-.889,1.334a.444.444,0,0,0-.075.247v.889h-.987l-.36-1.441a.445.445,0,0,0-.431-.337H45.668a6.252,6.252,0,0,1,2.852-3.61Zm-2.852.053.632.632A7.108,7.108,0,0,0,56.334,23.1l.632.632a8,8,0,0,1-11.3-11.3Zm5.963,14.221q.445,0,.889-.044v.938h-.889Zm-2.223,1.782h5.334A1.336,1.336,0,0,1,56,29.327H48.152A1.336,1.336,0,0,1,49.409,28.438Zm.827,1.778H52.35a3.443,3.443,0,0,0,0,2.667H50.236a2.536,2.536,0,0,1,0-2.667Zm-8.891,0h1.669a3.443,3.443,0,0,0,0,2.667H41.345a2.536,2.536,0,0,1,0-2.667Zm1.778,3.556h1.669a3.443,3.443,0,0,0,0,2.667h-1.67a2.536,2.536,0,0,1,0-2.667Zm12,2.667a2.507,2.507,0,0,1-.34-.889h7.845a3.417,3.417,0,0,0,.239.889Zm7.5-1.778H54.786a2.507,2.507,0,0,1,.34-.889H62.87A3.417,3.417,0,0,0,62.631,34.662Zm-9.283-1.778a2.507,2.507,0,0,1-.34-.889h7.845a3.417,3.417,0,0,0,.239.889Z" transform="translate(0)"/>
  </g>
</svg>
