<svg xmlns="http://www.w3.org/2000/svg" width="24" height="24" viewBox="0 0 24 24">
  <g id="Language-icon" transform="translate(0 0)">
    <path id="Path_1122" data-name="Path 1122" d="M22.031,8.437H15.438c.021-.231.032-.465.032-.7a7.737,7.737,0,0,0-11.6-6.7.469.469,0,1,0,.469.812,6.8,6.8,0,1,1,3.4,12.688,6.722,6.722,0,0,1-4.263-1.5.469.469,0,0,0-.432-.083L1.8,13.272,2.284,12.2a.469.469,0,0,0-.048-.47,6.8,6.8,0,0,1-.386-7.4.469.469,0,1,0-.811-.47,7.74,7.74,0,0,0,.281,8.2L.535,13.781a.469.469,0,0,0,.545.648l1.993-.521a7.734,7.734,0,0,0,5.739,1.487v4.1a1.971,1.971,0,0,0,1.969,1.969h6.63l2.964,2.425a.469.469,0,0,0,.766-.363V21.468h.891A1.971,1.971,0,0,0,24,19.5V10.406a1.971,1.971,0,0,0-1.969-1.969ZM23.062,19.5a1.032,1.032,0,0,1-1.031,1.031H20.672A.469.469,0,0,0,20.2,21v1.542l-2.315-1.894c-.128-.116-.239-.116-.49-.116H10.781A1.032,1.032,0,0,1,9.75,19.5V15.2a7.761,7.761,0,0,0,5.545-5.829h6.736a1.032,1.032,0,0,1,1.031,1.031Zm0,0"/>
    <path id="Path_1123" data-name="Path 1123" d="M292.653,254.7a.468.468,0,0,0-.2-.892h-.192l-1.512-3.445a.469.469,0,0,0-.859,0l-1.512,3.445h-.192a.468.468,0,0,0-.2.892l-.563,1.283a.469.469,0,1,0,.858.377l.709-1.615h2.657l.709,1.615a.469.469,0,1,0,.858-.377Zm-3.25-.892.917-2.09.917,2.09Zm0,0" transform="translate(-273.915 -238.36)"/>
    <path id="Path_1124" data-name="Path 1124" d="M45.871,46.336a.469.469,0,1,0-.331-.137.473.473,0,0,0,.331.137Zm0,0" transform="translate(-43.274 -43.271)"/>
    <path id="Path_1125" data-name="Path 1125" d="M100.377,91.98a.469.469,0,1,0,.451.822,5.368,5.368,0,0,0,2.32-2.517,5.369,5.369,0,0,0,2.32,2.517.469.469,0,0,0,.451-.822,4.433,4.433,0,0,1-2.252-3.226h2.081a.469.469,0,0,0,0-.937h-2.131V85.863a.469.469,0,0,0-.937,0v1.953h-1.693a.469.469,0,0,0,0,.937h1.643a4.433,4.433,0,0,1-2.252,3.226Zm0,0" transform="translate(-95.439 -81.392)"/>
  </g>
</svg>
