<svg xmlns="http://www.w3.org/2000/svg" width="24.061" height="22.993" viewBox="0 0 24.061 22.993">
  <path id="linkedin" d="M-.18,2.887A2.5,2.5,0,0,1,.633.971,2.982,2.982,0,0,1,2.746.216,2.893,2.893,0,0,1,4.813.959a2.62,2.62,0,0,1,.813,2,2.446,2.446,0,0,1-.79,1.858A2.988,2.988,0,0,1,2.7,5.581H2.677A2.842,2.842,0,0,1,.61,4.815,2.574,2.574,0,0,1-.18,2.887Zm.3,20.322V7.694H5.278V23.209H.122Zm8.013,0h5.156V14.546a3.343,3.343,0,0,1,.186-1.254,3.368,3.368,0,0,1,.987-1.335,2.523,2.523,0,0,1,1.661-.546q2.6,0,2.6,3.507v8.291h5.156v-8.9A7.475,7.475,0,0,0,22.255,9.1a5.546,5.546,0,0,0-4.3-1.777A5.271,5.271,0,0,0,13.291,9.9v.046h-.023l.023-.046V7.694H8.135q.046.743.046,4.622T8.135,23.209Z" transform="translate(0.18 -0.216)" fill="#2867b2"/>
</svg>
