<svg xmlns="http://www.w3.org/2000/svg" width="25.7" height="19.196" viewBox="0 0 25.7 19.196">
  <g id="live-streaming" transform="translate(-0.001 -64.795)">
    <path id="Path_1218" data-name="Path 1218" d="M25.02,171.606a.861.861,0,0,0-.432.125l-4.209,2.43v-2.375a.879.879,0,0,0-.878-.878H5.728a2.367,2.367,0,0,0-4.161,1.547v3.039H.694a.693.693,0,0,0-.69.759A3.956,3.956,0,0,0,3.56,179.8v1.732H1.275a.879.879,0,0,0-.878.878v.7a.879.879,0,0,0,.878.878H3.866a.376.376,0,1,0,0-.753H1.275a.127.127,0,0,1-.125-.125v-.7a.127.127,0,0,1,.125-.125H6.6a.127.127,0,0,1,.125.125v.7a.127.127,0,0,1-.125.125H5.623a.376.376,0,1,0,0,.753H6.6a.879.879,0,0,0,.876-.822H19.5a.879.879,0,0,0,.878-.878V179.92l4.209,2.43a.861.861,0,0,0,.432.125h0a.646.646,0,0,0,.513-.243.824.824,0,0,0,.168-.524v-9.335A.7.7,0,0,0,25.02,171.606Zm-22.7.848a1.616,1.616,0,0,1,3.232,0v2.122H2.32Zm0,2.875H5.552v.541a1.616,1.616,0,1,1-3.232,0v-.541Zm-.538,2.9a3.191,3.191,0,0,1-1.021-1.984H1.6a2.369,2.369,0,0,0,4.678,0h.837a3.2,3.2,0,0,1-5.33,1.984Zm17.845,4.064a.127.127,0,0,1-.125.125H7.475v-.007a.879.879,0,0,0-.878-.878H4.312V179.8a3.955,3.955,0,0,0,3.556-3.549.693.693,0,0,0-.69-.76H6.305v-3.039a2.359,2.359,0,0,0-.137-.794H19.5a.127.127,0,0,1,.125.126Zm5.321-.606-1.785-1.031v-1.592a.376.376,0,0,0-.753,0v1.157l-2.03-1.172V175.03l2.03-1.172v3.451a.376.376,0,0,0,.753,0v-3.886l1.785-1.031Z" transform="translate(0 -100.005)" fill="#fff"/>
    <path id="Path_1219" data-name="Path 1219" d="M194.389,245.442l-4.6-2.626a.761.761,0,0,0-.379-.108.635.635,0,0,0-.62.687v5.245a.635.635,0,0,0,.62.687.762.762,0,0,0,.379-.108l4.6-2.626a.633.633,0,0,0,0-1.152Zm-4.843,3.051v-4.951l4.333,2.476Z" transform="translate(-179.316 -168.983)" fill="#fff"/>
    <path id="Path_1220" data-name="Path 1220" d="M62.77,204.112h-.949a.376.376,0,1,0,0,.753h.949a.376.376,0,0,0,0-.753Z" transform="translate(-58.36 -132.324)" fill="#fff"/>
    <path id="Path_1221" data-name="Path 1221" d="M62.77,231.835h-.949a.376.376,0,1,0,0,.753h.949a.376.376,0,0,0,0-.753Z" transform="translate(-58.36 -158.655)" fill="#fff"/>
    <path id="Path_1222" data-name="Path 1222" d="M233.114,153.894a1.513,1.513,0,0,0-1.11.489.376.376,0,1,0,.554.51.753.753,0,0,1,1.112,0,.376.376,0,1,0,.554-.51A1.513,1.513,0,0,0,233.114,153.894Z" transform="translate(-220.263 -84.627)" fill="#fff"/>
    <path id="Path_1223" data-name="Path 1223" d="M214.007,125.675a.376.376,0,1,0,.554-.51,3,3,0,0,0-4.414,0,.376.376,0,0,0,.554.51,2.243,2.243,0,0,1,3.306,0Z" transform="translate(-199.503 -56.418)" fill="#fff"/>
    <path id="Path_1224" data-name="Path 1224" d="M192.06,95.276a.376.376,0,1,0,.091-.747,4.488,4.488,0,0,0-3.851,1.419.376.376,0,1,0,.554.51,3.736,3.736,0,0,1,3.206-1.182Z" transform="translate(-178.753 -28.209)" fill="#fff"/>
    <path id="Path_1225" data-name="Path 1225" d="M292.466,108.059a.376.376,0,0,0,.554-.51,4.524,4.524,0,0,0-.947-.783.376.376,0,0,0-.4.64A3.767,3.767,0,0,1,292.466,108.059Z" transform="translate(-276.865 -39.811)" fill="#fff"/>
    <path id="Path_1226" data-name="Path 1226" d="M166.722,67.361a.375.375,0,0,0,.277-.122,5.22,5.22,0,0,1,7.694,0,.376.376,0,1,0,.554-.51,5.973,5.973,0,0,0-8.8,0,.376.376,0,0,0,.277.631Z" transform="translate(-157.995)" fill="#fff"/>
  </g>
</svg>
