<?xml version="1.0" encoding="UTF-8"?>
<svg viewBox="0 0 42 42" xmlns="http://www.w3.org/2000/svg">
<g transform="translate(-167 -711)">
<g transform="translate(167 711)" fill="none" stroke="#39a9c7" data-name="Ellipse 181">
<circle cx="21" cy="21" r="21" stroke="none"/>
<circle cx="21" cy="21" r="20.5" fill="none"/>
</g>
<g transform="translate(169 713)" fill="#39a9c7" stroke="#39a9c7" data-name="Ellipse 182">
<circle cx="19" cy="19" r="19" stroke="none"/>
<circle cx="19" cy="19" r="18.5" fill="none"/>
</g>
<g transform="translate(175.15 658.01)" fill="#fff">
<path transform="translate(0 -100)" d="M25.02,171.606a.861.861,0,0,0-.432.125l-4.209,2.43v-2.375a.879.879,0,0,0-.878-.878H5.728a2.367,2.367,0,0,0-4.161,1.547v3.039H.694a.693.693,0,0,0-.69.759A3.956,3.956,0,0,0,3.56,179.8v1.732H1.275a.879.879,0,0,0-.878.878v.7a.879.879,0,0,0,.878.878H3.866a.376.376,0,1,0,0-.753H1.275a.127.127,0,0,1-.125-.125v-.7a.127.127,0,0,1,.125-.125H6.6a.127.127,0,0,1,.125.125v.7a.127.127,0,0,1-.125.125H5.623a.376.376,0,1,0,0,.753H6.6a.879.879,0,0,0,.876-.822H19.5a.879.879,0,0,0,.878-.878V179.92l4.209,2.43a.861.861,0,0,0,.432.125h0a.646.646,0,0,0,.513-.243.824.824,0,0,0,.168-.524v-9.335A.7.7,0,0,0,25.02,171.606Zm-22.7.848a1.616,1.616,0,0,1,3.232,0v2.122H2.32Zm0,2.875H5.552v.541a1.616,1.616,0,1,1-3.232,0v-.541Zm-.538,2.9a3.191,3.191,0,0,1-1.021-1.984H1.6a2.369,2.369,0,0,0,4.678,0h.837a3.2,3.2,0,0,1-5.33,1.984Zm17.845,4.064a.127.127,0,0,1-.125.125H7.475v-.007a.879.879,0,0,0-.878-.878H4.312V179.8a3.955,3.955,0,0,0,3.556-3.549.693.693,0,0,0-.69-.76H6.305v-3.039a2.359,2.359,0,0,0-.137-.794H19.5a.127.127,0,0,1,.125.126Zm5.321-.606-1.785-1.031v-1.592a.376.376,0,0,0-.753,0v1.157l-2.03-1.172V175.03l2.03-1.172v3.451a.376.376,0,0,0,.753,0v-3.886l1.785-1.031Z" data-name="Path 1218"/>
<path transform="translate(-179.32 -168.98)" d="M194.389,245.442l-4.6-2.626a.761.761,0,0,0-.379-.108.635.635,0,0,0-.62.687v5.245a.635.635,0,0,0,.62.687.762.762,0,0,0,.379-.108l4.6-2.626a.633.633,0,0,0,0-1.152Zm-4.843,3.051v-4.951l4.333,2.476Z" data-name="Path 1219"/>
<path transform="translate(-58.36 -132.32)" d="M62.77,204.112h-.949a.376.376,0,1,0,0,.753h.949a.376.376,0,0,0,0-.753Z" data-name="Path 1220"/>
<path transform="translate(-58.36 -158.66)" d="M62.77,231.835h-.949a.376.376,0,1,0,0,.753h.949a.376.376,0,0,0,0-.753Z" data-name="Path 1221"/>
<path transform="translate(-220.26 -84.627)" d="M233.114,153.894a1.513,1.513,0,0,0-1.11.489.376.376,0,1,0,.554.51.753.753,0,0,1,1.112,0,.376.376,0,1,0,.554-.51A1.513,1.513,0,0,0,233.114,153.894Z" data-name="Path 1222"/>
<path transform="translate(-199.5 -56.418)" d="M214.007,125.675a.376.376,0,1,0,.554-.51,3,3,0,0,0-4.414,0,.376.376,0,0,0,.554.51,2.243,2.243,0,0,1,3.306,0Z" data-name="Path 1223"/>
<path transform="translate(-178.75 -28.209)" d="M192.06,95.276a.376.376,0,1,0,.091-.747,4.488,4.488,0,0,0-3.851,1.419.376.376,0,1,0,.554.51,3.736,3.736,0,0,1,3.206-1.182Z" data-name="Path 1224"/>
<path transform="translate(-276.86 -39.811)" d="M292.466,108.059a.376.376,0,0,0,.554-.51,4.524,4.524,0,0,0-.947-.783.376.376,0,0,0-.4.64A3.767,3.767,0,0,1,292.466,108.059Z" data-name="Path 1225"/>
<path transform="translate(-158)" d="M166.722,67.361a.375.375,0,0,0,.277-.122,5.22,5.22,0,0,1,7.694,0,.376.376,0,1,0,.554-.51,5.973,5.973,0,0,0-8.8,0,.376.376,0,0,0,.277.631Z" data-name="Path 1226"/>
</g>
</g>
</svg>
