<svg id="Math-icon" xmlns="http://www.w3.org/2000/svg" width="24" height="24" viewBox="0 0 24 24">
  <path id="Path_1088" data-name="Path 1088" d="M23.5,11.5a.5.5,0,0,1,0,1H23v-1Z"/>
  <path id="Path_1089" data-name="Path 1089" d="M12.5,11.5H23v1H12.5Z"/>
  <path id="Path_1090" data-name="Path 1090" d="M21.5,24H12a.5.5,0,0,0,.5-.5V23h9A1.5,1.5,0,0,0,23,21.5v-9h.5A.5.5,0,0,0,24,12v9.5A2.5,2.5,0,0,1,21.5,24Z"/>
  <path id="Path_1091" data-name="Path 1091" d="M24,2.5V12a.5.5,0,0,0-.5-.5H23v-9A1.5,1.5,0,0,0,21.5,1h-9V.5A.5.5,0,0,0,12,0h9.5A2.5,2.5,0,0,1,24,2.5Z"/>
  <path id="Path_1092" data-name="Path 1092" d="M20,6a.5.5,0,0,1,0,1H16a.5.5,0,0,1,0-1Z"/>
  <path id="Path_1093" data-name="Path 1093" d="M20,16a.5.5,0,0,1,0,1H16a.5.5,0,0,1,0-1Z"/>
  <path id="Path_1094" data-name="Path 1094" d="M20,19a.5.5,0,0,1,0,1H16a.5.5,0,0,1,0-1Z"/>
  <path id="Path_1095" data-name="Path 1095" d="M12.5,23v.5a.5.5,0,0,1-1,0V23Z"/>
  <path id="Path_1096" data-name="Path 1096" d="M11.5,12.5h1V23h-1Z"/>
  <path id="Path_1097" data-name="Path 1097" d="M11.5,11.5h1v1h-1Z"/>
  <path id="Path_1098" data-name="Path 1098" d="M11.5,1h1V11.5h-1Z"/>
  <path id="Path_1099" data-name="Path 1099" d="M12.5.5V1h-1V.5a.5.5,0,0,1,1,0Z"/>
  <path id="Path_1100" data-name="Path 1100" d="M1,11.5H11.5v1H1Z"/>
  <path id="Path_1101" data-name="Path 1101" d="M8,6A.5.5,0,0,1,8,7H6.5V6Z"/>
  <path id="Path_1102" data-name="Path 1102" d="M7.85,19.15a.483.483,0,0,1,0,.7.483.483,0,0,1-.7,0L6,18.7l.7-.7Z"/>
  <path id="Path_1103" data-name="Path 1103" d="M7.15,16.15a.495.495,0,0,1,.7.7L6.7,18,6,17.3Z"/>
  <path id="Path_1104" data-name="Path 1104" d="M5.505,17.5h.99v.99h-.99Z" transform="translate(-10.971 9.515) rotate(-45)"/>
  <path id="Path_1105" data-name="Path 1105" d="M6.5,7V8.5a.5.5,0,0,1-1,0V7Z"/>
  <path id="Path_1106" data-name="Path 1106" d="M5.5,6h1V7h-1Z"/>
  <path id="Path_1107" data-name="Path 1107" d="M6.5,4.5V6h-1V4.5a.5.5,0,0,1,1,0Z"/>
  <path id="Path_1108" data-name="Path 1108" d="M6,17.3l-.7.7L4.15,16.85a.495.495,0,0,1,.7-.7Z"/>
  <path id="Path_1109" data-name="Path 1109" d="M5.5,6V7H4A.5.5,0,0,1,4,6Z"/>
  <path id="Path_1110" data-name="Path 1110" d="M4.85,19.85a.483.483,0,0,1-.7,0,.483.483,0,0,1,0-.7L5.3,18l.7.7Z"/>
  <path id="Path_1111" data-name="Path 1111" d="M1,11.5v1H.5a.5.5,0,0,1,0-1Z"/>
  <path id="Path_1112" data-name="Path 1112" d="M0,2.5A2.5,2.5,0,0,1,2.5,0H12a.5.5,0,0,0-.5.5V1h-9A1.5,1.5,0,0,0,1,2.5v9H.5A.5.5,0,0,0,0,12Z"/>
  <path id="Path_1113" data-name="Path 1113" d="M1,21.5A1.5,1.5,0,0,0,2.5,23h9v.5a.5.5,0,0,0,.5.5H2.5A2.5,2.5,0,0,1,0,21.5V12a.5.5,0,0,0,.5.5H1Z"/>
</svg>
