<svg xmlns="http://www.w3.org/2000/svg" width="13.333" height="16" viewBox="0 0 13.333 16">
  <g id="Paper-work" transform="translate(-40)">
    <g id="Group_3715" data-name="Group 3715" transform="translate(43.2 11.466)">
      <g id="Group_3714" data-name="Group 3714" transform="translate(0)">
        <path id="Path_1398" data-name="Path 1398" d="M136.8,344h-.533a.267.267,0,1,0,0,.533h.533a.267.267,0,1,0,0-.533Z" transform="translate(-136 -344)"/>
      </g>
    </g>
    <g id="Group_3717" data-name="Group 3717" transform="translate(44.8 11.466)">
      <g id="Group_3716" data-name="Group 3716">
        <path id="Path_1399" data-name="Path 1399" d="M190.667,344h-6.4a.267.267,0,1,0,0,.533h6.4a.267.267,0,0,0,0-.533Z" transform="translate(-184 -344)"/>
      </g>
    </g>
    <g id="Group_3719" data-name="Group 3719" transform="translate(43.2 9.867)">
      <g id="Group_3718" data-name="Group 3718" transform="translate(0)">
        <path id="Path_1400" data-name="Path 1400" d="M136.8,296h-.533a.267.267,0,1,0,0,.533h.533a.267.267,0,1,0,0-.533Z" transform="translate(-136 -296)"/>
      </g>
    </g>
    <g id="Group_3721" data-name="Group 3721" transform="translate(44.8 9.867)">
      <g id="Group_3720" data-name="Group 3720">
        <path id="Path_1401" data-name="Path 1401" d="M190.667,296h-6.4a.267.267,0,1,0,0,.533h6.4a.267.267,0,0,0,0-.533Z" transform="translate(-184 -296)"/>
      </g>
    </g>
    <g id="Group_3723" data-name="Group 3723" transform="translate(43.2 8.267)">
      <g id="Group_3722" data-name="Group 3722" transform="translate(0)">
        <path id="Path_1402" data-name="Path 1402" d="M136.8,248h-.533a.267.267,0,1,0,0,.533h.533a.267.267,0,1,0,0-.533Z" transform="translate(-136 -248)"/>
      </g>
    </g>
    <g id="Group_3725" data-name="Group 3725" transform="translate(44.8 8.267)">
      <g id="Group_3724" data-name="Group 3724">
        <path id="Path_1403" data-name="Path 1403" d="M190.667,248h-6.4a.267.267,0,1,0,0,.533h6.4a.267.267,0,0,0,0-.533Z" transform="translate(-184 -248)"/>
      </g>
    </g>
    <g id="Group_3727" data-name="Group 3727" transform="translate(43.2 6.667)">
      <g id="Group_3726" data-name="Group 3726" transform="translate(0)">
        <path id="Path_1404" data-name="Path 1404" d="M136.8,200h-.533a.267.267,0,1,0,0,.533h.533a.267.267,0,1,0,0-.533Z" transform="translate(-136 -200)"/>
      </g>
    </g>
    <g id="Group_3729" data-name="Group 3729" transform="translate(44.8 6.667)">
      <g id="Group_3728" data-name="Group 3728">
        <path id="Path_1405" data-name="Path 1405" d="M190.667,200h-6.4a.267.267,0,1,0,0,.533h6.4a.267.267,0,0,0,0-.533Z" transform="translate(-184 -200)"/>
      </g>
    </g>
    <g id="Group_3731" data-name="Group 3731" transform="translate(43.2 5.067)">
      <g id="Group_3730" data-name="Group 3730" transform="translate(0)">
        <path id="Path_1406" data-name="Path 1406" d="M136.8,152h-.533a.267.267,0,1,0,0,.533h.533a.267.267,0,1,0,0-.533Z" transform="translate(-136 -152)"/>
      </g>
    </g>
    <g id="Group_3733" data-name="Group 3733" transform="translate(44.8 5.067)">
      <g id="Group_3732" data-name="Group 3732">
        <path id="Path_1407" data-name="Path 1407" d="M190.667,152h-6.4a.267.267,0,1,0,0,.533h6.4a.267.267,0,0,0,0-.533Z" transform="translate(-184 -152)"/>
      </g>
    </g>
    <g id="Group_3735" data-name="Group 3735" transform="translate(40)">
      <g id="Group_3734" data-name="Group 3734" transform="translate(0)">
        <path id="Path_1408" data-name="Path 1408" d="M53.33,3.983a.252.252,0,0,0-.014-.069c0-.009-.005-.017-.009-.025a.267.267,0,0,0-.053-.078L49.521.078a.266.266,0,0,0-.078-.053L49.418.016A.266.266,0,0,0,49.349,0s-.01,0-.015,0H41.867A.267.267,0,0,0,41.6.267v.8H40.267A.267.267,0,0,0,40,1.333v14.4a.267.267,0,0,0,.267.267h11.2a.267.267,0,0,0,.267-.267V14.4h1.333a.267.267,0,0,0,.267-.267V4C53.333,3.994,53.33,3.989,53.33,3.983ZM49.6.91l2.823,2.823H49.6Zm1.6,14.556H40.533V1.6H41.6V14.133a.267.267,0,0,0,.267.267H51.2Zm1.6-1.6H42.133V.533h6.933V4a.267.267,0,0,0,.267.267H52.8Z" transform="translate(-40)"/>
      </g>
    </g>
    <g id="Group_3737" data-name="Group 3737" transform="translate(43.2 2.4)">
      <g id="Group_3736" data-name="Group 3736" transform="translate(0)">
        <path id="Path_1409" data-name="Path 1409" d="M137.867,72h-1.6a.267.267,0,0,0-.267.267v1.6a.267.267,0,0,0,.267.267h1.6a.267.267,0,0,0,.267-.267v-1.6A.267.267,0,0,0,137.867,72Zm-.267,1.6h-1.067V72.533H137.6Z" transform="translate(-136 -72)"/>
      </g>
    </g>
  </g>
</svg>
