<svg xmlns="http://www.w3.org/2000/svg" width="24" height="25.799" viewBox="0 0 24 25.799">
  <g id="Physics-icon" transform="translate(-8.695 -4.75)">
    <path id="Path_1082" data-name="Path 1082" d="M53.244,50.25a2.994,2.994,0,1,0,2.994,2.994A2.994,2.994,0,0,0,53.244,50.25Zm0,5.225a2.232,2.232,0,1,1,2.232-2.232,2.232,2.232,0,0,1-2.232,2.232Z" transform="translate(-32.508 -35.594)"/>
    <path id="Path_1083" data-name="Path 1083" d="M66.294,62.25a.381.381,0,0,0-.381.381.931.931,0,0,1-.461.8.381.381,0,0,0,.384.658,1.7,1.7,0,0,0,.84-1.459A.381.381,0,0,0,66.294,62.25Z" transform="translate(-44.252 -44.981)"/>
    <path id="Path_1084" data-name="Path 1084" d="M30.583,16.759A1.687,1.687,0,0,0,32.2,13.935c-.028-.027-.057-.052-.087-.078a3.374,3.374,0,0,0-.207-2.657c-.914-1.585-3.316-2.1-6.61-1.448-1.083-3.181-2.734-5-4.561-5s-3.478,1.82-4.562,5c-3.3-.656-5.7-.137-6.61,1.448a3.376,3.376,0,0,0-.222,2.6,1.687,1.687,0,0,0,1.532,2.942c.226.3.474.6.74.909C9.4,20.177,8.65,22.516,9.564,24.1c.656,1.138,2.077,1.728,4.046,1.728a13.315,13.315,0,0,0,2.564-.281c1.084,3.182,2.735,5,4.562,5a3.394,3.394,0,0,0,2.372-1.116,1.686,1.686,0,0,0,1.87-2.737c-.027-.028-.057-.053-.086-.078.143-.337.279-.7.408-1.072a13.285,13.285,0,0,0,2.563.281c1.968,0,3.389-.59,4.046-1.728.914-1.583.163-3.922-2.051-6.448C30.114,17.358,30.356,17.06,30.583,16.759Zm1.079-.977a.926.926,0,0,1-1.308,0h0a.925.925,0,1,1,1.308,0Zm-.415-4.2a2.562,2.562,0,0,1,.176,1.916,1.686,1.686,0,0,0-1.609,2.825c.027.028.057.052.086.078q-.265.345-.56.685a23.022,23.022,0,0,0-3.04-2.648,23.3,23.3,0,0,0-.771-3.956c2.871-.555,4.995-.155,5.718,1.1ZM24.783,24.656a21.826,21.826,0,0,1-3.109-1.01c.65-.314,1.3-.656,1.932-1.022s1.259-.76,1.851-1.164a21.815,21.815,0,0,1-.674,3.2Zm-8.094,0a21.811,21.811,0,0,1-.675-3.2c.593.4,1.212.794,1.852,1.164s1.281.708,1.932,1.022a21.829,21.829,0,0,1-3.109,1.01Zm0-14.013a21.818,21.818,0,0,1,3.109,1.01c-.65.314-1.3.656-1.932,1.023s-1.259.76-1.852,1.164a21.8,21.8,0,0,1,.675-3.2Zm-1.613,9.191a21.508,21.508,0,0,1-2.43-2.185,21.534,21.534,0,0,1,2.43-2.185c-.054.718-.082,1.451-.082,2.185S15.021,19.115,15.075,19.834Zm3.171,2.129c-.825-.476-1.614-.987-2.353-1.519-.091-.912-.139-1.851-.139-2.795s.048-1.882.139-2.795c.738-.531,1.528-1.043,2.353-1.519s1.653-.9,2.489-1.28c.837.379,1.673.808,2.49,1.28s1.614.987,2.353,1.519c.091.912.139,1.851.139,2.795s-.048,1.882-.139,2.795c-.738.531-1.528,1.043-2.353,1.519s-1.653.9-2.489,1.28c-.837-.379-1.674-.808-2.49-1.28Zm6.537-11.321a21.81,21.81,0,0,1,.675,3.2c-.593-.4-1.212-.794-1.851-1.164s-1.283-.708-1.934-1.021a21.829,21.829,0,0,1,3.109-1.01ZM26.4,15.465a21.509,21.509,0,0,1,2.43,2.185,21.533,21.533,0,0,1-2.43,2.185c.054-.718.082-1.451.082-2.185S26.451,16.184,26.4,15.465ZM20.736,5.512c1.445,0,2.855,1.639,3.813,4.4a23.367,23.367,0,0,0-3.813,1.306,23.349,23.349,0,0,0-3.813-1.306C17.881,7.151,19.291,5.512,20.736,5.512ZM9.726,15.783h0a.927.927,0,1,1,.654.27.927.927,0,0,1-.654-.27Zm1.847-1.848a1.687,1.687,0,0,0-1.529-.459,2.529,2.529,0,0,1,.18-1.894c.723-1.254,2.847-1.655,5.718-1.1a23.319,23.319,0,0,0-.771,3.956,23.005,23.005,0,0,0-3.04,2.645q-.318-.367-.594-.73l.037-.033a1.689,1.689,0,0,0,0-2.386Zm-1.35,9.783c-.722-1.252-.007-3.292,1.909-5.5a23.015,23.015,0,0,0,3.039,2.646,23.3,23.3,0,0,0,.771,3.956c-2.871.555-4.995.155-5.718-1.1Zm14.215,4.826a.927.927,0,1,1,.27-.654.927.927,0,0,1-.27.654ZM23.785,26.2a1.687,1.687,0,0,0-1.292,2.771,2.559,2.559,0,0,1-1.756.813c-1.445,0-2.855-1.639-3.813-4.4a23.367,23.367,0,0,0,3.814-1.306,23.352,23.352,0,0,0,3.814,1.306c-.107.306-.218.6-.334.876a1.692,1.692,0,0,0-.433-.057Zm7.464-2.485c-.723,1.254-2.847,1.655-5.718,1.1a23.319,23.319,0,0,0,.771-3.956,23,23,0,0,0,3.038-2.646c1.916,2.211,2.63,4.25,1.908,5.5Z"/>
  </g>
</svg>
