<svg id="saudi-arabia" xmlns="http://www.w3.org/2000/svg" width="28" height="28" viewBox="0 0 28 28">
  <path id="Path_1646" data-name="Path 1646" d="M21.875,0H6.125A6.125,6.125,0,0,0,0,6.125v15.75A6.125,6.125,0,0,0,6.125,28h15.75A6.125,6.125,0,0,0,28,21.875V6.125A6.125,6.125,0,0,0,21.875,0Z" fill="#73af00"/>
  <g id="Group_3774" data-name="Group 3774" transform="translate(4.128 7.269)">
    <path id="Path_1647" data-name="Path 1647" d="M72.642,151.015c.06.386.293.507.5.491a.5.5,0,0,0,.449-.468v-1.324a.12.12,0,1,1,.241,0v1.33a.481.481,0,0,0,.66.447l.12-.048c.011,1.112-.057,2.089-.058,2.106a.241.241,0,0,0,.223.257h.017a.241.241,0,0,0,.24-.224c.006-.078.08-1.148.058-2.333l.073-.029a.242.242,0,0,1,.2.008.688.688,0,0,0,.794-.129l.043-.043a.719.719,0,0,0,.174-.739l-.205-.615a.241.241,0,0,0,.178-.446l-.482-.241a.241.241,0,0,0-.336.292l.387,1.162a.24.24,0,0,1-.058.246l-.043.043a.207.207,0,0,1-.238.039.72.72,0,0,0-.5-.05,8.3,8.3,0,0,0-.294-2.074.241.241,0,0,0-.457.152,8.273,8.273,0,0,1,.276,2.1l-.288.115v-1.33a.6.6,0,0,0-1.2,0v1.166l-.246-1.213a.241.241,0,1,0-.472.1Z" transform="translate(-72.316 -148.013)" fill="#f5f5f5"/>
    <path id="Path_1648" data-name="Path 1648" d="M80.939,145.08a.241.241,0,0,0,.241-.241V144.6a.241.241,0,1,0-.482,0v.241A.241.241,0,0,0,80.939,145.08Z" transform="translate(-80.149 -144.102)" fill="#f5f5f5"/>
    <path id="Path_1649" data-name="Path 1649" d="M122.481,144.839h.241a.241.241,0,1,0,0-.482h-.241a.241.241,0,1,0,0,.482Z" transform="translate(-119.283 -144.101)" fill="#f5f5f5"/>
    <path id="Path_1650" data-name="Path 1650" d="M77.864,206.7l-1.2.722a.241.241,0,0,0,.248.413l1.2-.722a.241.241,0,0,0-.248-.413Z" transform="translate(-76.235 -202.802)" fill="#f5f5f5"/>
    <path id="Path_1651" data-name="Path 1651" d="M92.758,152.34l.006,0a.55.55,0,0,0,.111.226.473.473,0,0,0,.41.159.664.664,0,0,0,.5-.263.434.434,0,0,0,.051.03.456.456,0,0,0,.424-.014.914.914,0,0,0,.431-.848.246.246,0,0,0-.251-.228.242.242,0,0,0-.23.25s.006.289-.169.395a.587.587,0,0,1-.075-.2.241.241,0,0,0-.478.04c0,.035-.008.344-.246.37a.588.588,0,0,1,0-.315.241.241,0,0,0-.37-.255l-.134.091c-.064-1.4-.211-3.023-.213-3.044a.241.241,0,0,0-.48.044c0,.022.172,1.9.225,3.342l-.037.036a.621.621,0,0,0-.527-.414.879.879,0,0,0-.848.537.569.569,0,0,0,.184.718.8.8,0,0,0,.718.033,2.013,2.013,0,0,1-.392.742,1.01,1.01,0,0,1-.769.392.632.632,0,0,1-.468-.2,1.375,1.375,0,0,1-.255-.862.241.241,0,0,0-.227-.253.236.236,0,0,0-.254.227,1.847,1.847,0,0,0,.378,1.21,1.1,1.1,0,0,0,.806.358h.048a1.467,1.467,0,0,0,1.1-.56,2.491,2.491,0,0,0,.551-1.234,2.729,2.729,0,0,1-1.155,2.162,1.2,1.2,0,0,1-1.206.088,1.033,1.033,0,0,1-.53-1.018.241.241,0,1,0-.478-.06,1.512,1.512,0,0,0,.795,1.51,1.636,1.636,0,0,0,.729.174,1.782,1.782,0,0,0,.944-.285,3.2,3.2,0,0,0,1.383-2.573C92.766,152.688,92.763,152.518,92.758,152.34Zm-1.452.248c-.043-.028-.009-.119,0-.138a.409.409,0,0,1,.336-.237h.019c.031,0,.113.011.148.192,0,.019.007.039.009.059C91.548,152.624,91.368,152.629,91.306,152.588Z" transform="translate(-87.883 -148.012)" fill="#f5f5f5"/>
    <path id="Path_1652" data-name="Path 1652" d="M72.136,240.909a.241.241,0,0,0-.329.085.5.5,0,0,1-.041.057l-.008-.02a1.619,1.619,0,0,1,.007-.817.241.241,0,0,0-.465-.124,2.073,2.073,0,0,0,.007,1.11c.111.294.28.369.4.379h.032a.632.632,0,0,0,.48-.344A.24.24,0,0,0,72.136,240.909Z" transform="translate(-71.224 -234.119)" fill="#f5f5f5"/>
    <path id="Path_1653" data-name="Path 1653" d="M159.7,146.523a.239.239,0,0,0,.149-.051l1.214-.953a.23.23,0,0,0,.04-.047.6.6,0,1,0-.692-.053l-.859.675a.241.241,0,0,0,.149.43Zm1.093-1.685a.12.12,0,1,1-.12.12A.121.121,0,0,1,160.789,144.838Z" transform="translate(-154.781 -144.1)" fill="#f5f5f5"/>
    <path id="Path_1654" data-name="Path 1654" d="M171.773,177.6a.24.24,0,0,0-.3.152.736.736,0,0,0,.094.71.486.486,0,0,0,.36.137,1.058,1.058,0,0,0,.333-.061.241.241,0,1,0-.152-.457.839.839,0,0,1-.2.042.46.46,0,0,1,.02-.22A.241.241,0,0,0,171.773,177.6Z" transform="translate(-166.087 -175.408)" fill="#f5f5f5"/>
    <path id="Path_1655" data-name="Path 1655" d="M222.286,145.137a.241.241,0,0,0,.3-.164l.14-.482a.241.241,0,0,0-.462-.135l-.14.482A.241.241,0,0,0,222.286,145.137Z" transform="translate(-214.072 -143.938)" fill="#f5f5f5"/>
    <path id="Path_1656" data-name="Path 1656" d="M196.338,141.114a.241.241,0,0,0,.243-.416c-.048-.028-.042-.108-.04-.124a.189.189,0,0,1,.111-.161.241.241,0,0,0-.143-.46.661.661,0,0,0-.446.566A.594.594,0,0,0,196.338,141.114Z" transform="translate(-189.409 -139.943)" fill="#f5f5f5"/>
    <path id="Path_1657" data-name="Path 1657" d="M164.024,227.442a.241.241,0,0,0-.045.477.452.452,0,0,1,.045.245.241.241,0,1,0,.482,0C164.505,227.45,164.043,227.442,164.024,227.442Z" transform="translate(-158.853 -222.371)" fill="#f5f5f5"/>
    <path id="Path_1658" data-name="Path 1658" d="M230.723,199.049a.562.562,0,0,0,.091.007.823.823,0,0,0,.57-.285.241.241,0,0,0-.34-.34c-.144.144-.222.147-.241.143-.046-.007-.088-.067-.1-.083a.241.241,0,0,0-.429.218A.651.651,0,0,0,230.723,199.049Z" transform="translate(-221.797 -194.975)" fill="#f5f5f5"/>
    <path id="Path_1659" data-name="Path 1659" d="M301.344,178.222l0-.011a.241.241,0,0,0-.456.154.539.539,0,0,0,.392.375.4.4,0,0,0,.053,0,.59.59,0,0,0,.466-.321.241.241,0,1,0-.4-.267A.741.741,0,0,1,301.344,178.222Z" transform="translate(-288.651 -175.84)" fill="#f5f5f5"/>
    <path id="Path_1660" data-name="Path 1660" d="M195.208,154.764c0-1.027-.045-1.99-.108-2.834a12.193,12.193,0,0,1,.845,1.715.241.241,0,0,0,.451-.169A15.945,15.945,0,0,0,195,150.837c-.132-1.3-.279-2.12-.282-2.135a.241.241,0,0,0-.474.086c0,.01.078.435.168,1.148-.185-.275-.357-.522-.5-.726l.012,0a.241.241,0,1,0,.152-.457l-.722-.241a.238.238,0,0,0-.307.161.525.525,0,0,0-.5-.121.41.41,0,0,0-.23.428,2.177,2.177,0,0,0,.166.682c.142.4.231.7.08.838a.263.263,0,0,1-.247.087c-.148-.038-.3-.235-.393-.529a.23.23,0,0,0-.019-.033,4.1,4.1,0,0,0-.073-1.332.241.241,0,1,0-.472.095,2.292,2.292,0,0,1-.126,1.716.432.432,0,0,1-.36.163.139.139,0,0,1-.115-.054,2.32,2.32,0,0,1-.128-1.357.241.241,0,0,0-.238-.275c-.414,0-.571.471-.71.887-.061.183-.174.522-.253.558-.146,0-.24-.428-.241-.723a.241.241,0,0,0-.241-.24h0a.24.24,0,0,0-.24.241c0,.555.189,1.2.722,1.2.4,0,.558-.433.692-.835a1.509,1.509,0,0,0,.273.856.618.618,0,0,0,.479.22.916.916,0,0,0,.732-.339,1.123,1.123,0,0,0,.089-.133.9.9,0,0,0,.5.379.694.694,0,0,0,.17.022.764.764,0,0,0,.524-.224.7.7,0,0,0,.08-.1.65.65,0,0,0,.178.027.974.974,0,0,0,.5-.153.241.241,0,0,0-.259-.406.511.511,0,0,1-.273.072,2.485,2.485,0,0,0-.182-.791,3.329,3.329,0,0,1-.125-.4c.02.017.039.034.057.051a.24.24,0,0,0,.34,0,.23.23,0,0,0,.035-.053c.25.344.763,1.066,1.291,1.9.1,1.024.189,2.33.189,3.762a.241.241,0,0,0,.482,0Z" transform="translate(-182.73 -148.007)" fill="#f5f5f5"/>
    <path id="Path_1661" data-name="Path 1661" d="M301.112,149.477a.241.241,0,1,0,.482,0,2.458,2.458,0,0,0-.266-.83.241.241,0,0,0-.431.215A2.137,2.137,0,0,1,301.112,149.477Z" transform="translate(-288.639 -148.017)" fill="#f5f5f5"/>
    <path id="Path_1662" data-name="Path 1662" d="M264.8,248.721a.24.24,0,0,0-.323.106.689.689,0,0,1-.1.143,1.345,1.345,0,0,1,.063-.445.241.241,0,0,0-.4-.241l-.482.482a.241.241,0,0,0,.34.34l.012-.012a.5.5,0,0,0,.129.253.441.441,0,0,0,.313.138.419.419,0,0,0,.066-.005.784.784,0,0,0,.488-.436A.24.24,0,0,0,264.8,248.721Z" transform="translate(-253.275 -241.938)" fill="#f5f5f5"/>
    <path id="Path_1663" data-name="Path 1663" d="M155.127,195.907h-1.7q.023-.09.046-.171c.677-.141,1.079-.359,1.2-.651a.538.538,0,0,0-.091-.54.6.6,0,0,0-.609-.26c-.342.069-.647.438-.866,1.028a2.767,2.767,0,0,0-1.39.6,3.733,3.733,0,0,0-.5-1.6.241.241,0,0,0-.4.267,3.477,3.477,0,0,1,.441,1.793,1.905,1.905,0,0,1-1.445,1.926c-.27,0-.389-.321-.441-.593a2.765,2.765,0,0,0,1.156-1.275,1.915,1.915,0,0,0-.16-1.305l-.018-.042.015.014a.241.241,0,0,0,.34-.34c-.141-.141-.414-.362-.662-.258a.41.41,0,0,0-.23.428,1.025,1.025,0,0,0,.112.387,1.456,1.456,0,0,1,.136,1,2.037,2.037,0,0,1-.788.869.237.237,0,0,0-.182-.088h0a.241.241,0,0,0-.24.241c0,.043,0,.09,0,.137a12.668,12.668,0,0,1-1.549.848.241.241,0,0,0,.1.46.238.238,0,0,0,.1-.022,13.865,13.865,0,0,0,1.438-.77.937.937,0,0,0,.87.792,2.045,2.045,0,0,0,1.611-1.178,1.4,1.4,0,0,0,.161.23,2.714,2.714,0,0,0,1.84.707.241.241,0,0,0,.017-.481.516.516,0,0,1-.3-.146.413.413,0,0,1-.079-.316c.025-.3.982-.518,1.825-.532a.241.241,0,0,0,.223-.16l.241-.677a.241.241,0,0,0-.227-.322Zm-1.057-1.15.018,0c.023,0,.059.011.108.077.009.012.038.054.031.072-.028.068-.194.181-.54.283C153.84,194.89,153.989,194.774,154.07,194.757Zm-1.454,3.165a1.474,1.474,0,0,1-.666-.405,1.023,1.023,0,0,1-.214-.848.712.712,0,0,1,.05-.1c.339-.031,1.245.1,1.308.362a.809.809,0,0,0-.509.628A1.019,1.019,0,0,0,152.616,197.923Z" transform="translate(-143.323 -191.062)" fill="#f5f5f5"/>
    <path id="Path_1664" data-name="Path 1664" d="M298.63,149.4l-.241-.722a.241.241,0,0,0-.468.1c.166,1.661.48,4.9.48,5.273,0,.334-.594.991-1.552,1.47a.241.241,0,0,0,.215.431c.876-.438,1.819-1.22,1.819-1.9,0-.356-.246-2.915-.387-4.353A.241.241,0,0,0,298.63,149.4Z" transform="translate(-284.784 -148.012)" fill="#f5f5f5"/>
    <path id="Path_1665" data-name="Path 1665" d="M351.519,182.1a.241.241,0,0,0,.4-.23,1.215,1.215,0,0,1-.035-.467.244.244,0,0,0,.25-.206.241.241,0,0,0-.2-.273.435.435,0,0,0-.4.134.551.551,0,0,0-.121.258l-.279-.279a.241.241,0,0,0-.34.34Z" transform="translate(-335.883 -178.542)" fill="#f5f5f5"/>
    <path id="Path_1666" data-name="Path 1666" d="M357.439,204.893l-.9.647a.241.241,0,1,0,.281.391l.9-.647a.241.241,0,1,0-.28-.391Z" transform="translate(-341.287 -201.086)" fill="#f5f5f5"/>
    <path id="Path_1667" data-name="Path 1667" d="M371.545,219.743a.241.241,0,0,0,.021.319.668.668,0,0,1,.049.347.241.241,0,0,0,.232.249h.009a.241.241,0,0,0,.241-.232c.017-.491-.143-.671-.213-.725A.241.241,0,0,0,371.545,219.743Z" transform="translate(-355.766 -215.03)" fill="#f5f5f5"/>
    <path id="Path_1668" data-name="Path 1668" d="M338.425,154.5a.241.241,0,0,0,.241-.241c0-.355-.018-.752-.048-1.164a8.788,8.788,0,0,1,.564,1.049.24.24,0,0,0,.221.146.237.237,0,0,0,.095-.02.241.241,0,0,0,.126-.316,13.253,13.253,0,0,0-1.1-1.9c-.094-.884-.218-1.75-.314-2.371a.233.233,0,0,0,.15-.037.136.136,0,1,1,.133-.148.875.875,0,0,1,.088.59.241.241,0,0,0,.187.285.25.25,0,0,0,.049,0,.241.241,0,0,0,.236-.192,1.364,1.364,0,0,0-.153-.945.241.241,0,0,0-.332-.074.136.136,0,1,1-.135.148l-.406-.632a.241.241,0,0,0-.44.172c0,.019.187,1.076.35,2.349-.185-.261-.369-.516-.548-.759-.029-.364-.058-.7-.084-.98a.25.25,0,0,0,.039-.016.241.241,0,0,0,.108-.323l-.241-.482a.241.241,0,0,0-.455.132c.029.287.059.605.088.94-.152-.2-.293-.385-.414-.54a.241.241,0,0,0-.049-.4l-.482-.241a.241.241,0,0,0-.3.366c.013.016.606.759,1.315,1.719a19.364,19.364,0,0,1,.089,3.593c-.021.063-.058.138-.093.141-.146.02-.493-.305-.667-.654a.335.335,0,0,0-.323-.218c-.259.016-.36.3-.543.818a3.389,3.389,0,0,1-.479,1.019,2.737,2.737,0,0,1-.3-.948.239.239,0,0,0,.465-.081c0-.359-.251-3.094-.391-4.592a.241.241,0,0,0,.138-.3l-.241-.722a.241.241,0,0,0-.468.1c.164,1.718.47,5.035.48,5.493l0-.012a.241.241,0,1,0-.477.068c.07.492.25,1.338.664,1.476a.4.4,0,0,0,.128.021.473.473,0,0,0,.339-.157,3.472,3.472,0,0,0,.6-1.2c.035-.1.077-.218.117-.319.221.323.606.724,1,.693a.591.591,0,0,0,.515-.469,13.561,13.561,0,0,0-.009-3.006c.2.284.406.575.6.863.075.721.129,1.443.129,2.037A.241.241,0,0,0,338.425,154.5Z" transform="translate(-320.545 -148.013)" fill="#f5f5f5"/>
    <path id="Path_1669" data-name="Path 1669" d="M407.433,153.725c-.171-1.271-.408-2.743-.559-3.646a.237.237,0,0,0,.2-.043.241.241,0,0,0,.045-.337l-.436-.572a.241.241,0,0,0-.429.187c0,.025.434,2.5.7,4.475a2.257,2.257,0,0,1-.4,1.807,1.066,1.066,0,0,1-.883.329.241.241,0,1,0-.03.481c.041,0,.081,0,.12,0a1.52,1.52,0,0,0,1.145-.485A2.69,2.69,0,0,0,407.433,153.725Z" transform="translate(-387.725 -148.506)" fill="#f5f5f5"/>
    <path id="Path_1670" data-name="Path 1670" d="M393.371,256.1a.244.244,0,0,0,.012.338.1.1,0,0,1,.029.05.112.112,0,0,1-.036.054.241.241,0,1,0,.34.34.546.546,0,0,0,.177-.411.573.573,0,0,0-.189-.392A.238.238,0,0,0,393.371,256.1Z" transform="translate(-376.312 -249.296)" fill="#f5f5f5"/>
    <path id="Path_1671" data-name="Path 1671" d="M135.57,340.66h-1.505v-.241a.216.216,0,1,0-.43,0v.241h-11.4a2.8,2.8,0,0,0,1.935.722h9.46v.482a.229.229,0,0,0,.215.241h1.72a.727.727,0,0,0,0-1.445Zm0,.963h-1.505v-.241h1.72l-.039-.13a.253.253,0,0,1,.039.13A.229.229,0,0,1,135.57,341.623Z" transform="translate(-119.283 -328.573)" fill="#f5f5f5"/>
  </g>
</svg>
