<svg xmlns="http://www.w3.org/2000/svg" width="24" height="25.347" viewBox="0 0 24 25.347">
  <g id="Statistics-icon" transform="translate(-13.601)">
    <g id="Group_3240" data-name="Group 3240" transform="translate(13.601 7.26)">
      <g id="Group_3239" data-name="Group 3239">
        <path id="Path_1085" data-name="Path 1085" d="M37.106,163.75H36.02V147.985a1.332,1.332,0,0,0-1.331-1.331H32.262a1.332,1.332,0,0,0-1.331,1.331V163.75H28.175v-8.623a1.332,1.332,0,0,0-1.331-1.331H24.417a1.332,1.332,0,0,0-1.331,1.331v8.623H20.329v-4.466A1.332,1.332,0,0,0,19,157.954H16.571a1.332,1.332,0,0,0-1.331,1.331v4.466H14.1a.5.5,0,0,0,0,.99h23.01a.5.5,0,0,0,0-.99Zm-17.767,0H16.23v-4.466a.341.341,0,0,1,.341-.341H19a.341.341,0,0,1,.341.341Zm7.846,0H24.076v-8.623a.341.341,0,0,1,.341-.341h2.427a.341.341,0,0,1,.341.341Zm7.846,0H31.922V147.985a.341.341,0,0,1,.341-.341h2.427a.341.341,0,0,1,.341.341Z" transform="translate(-13.601 -146.654)"/>
      </g>
    </g>
    <g id="Group_3242" data-name="Group 3242" transform="translate(17.846)">
      <g id="Group_3241" data-name="Group 3241">
        <path id="Path_1086" data-name="Path 1086" d="M117.519.521A.493.493,0,0,0,117,0h-3.019a.5.5,0,0,0,0,.99h1.849l-4.894,4.894-1.846-1.846a.5.5,0,0,0-.7,0l-8.9,8.9a.5.5,0,0,0,.7.7l8.549-8.549,1.846,1.846a.5.5,0,0,0,.7,0L116.53,1.69V3.364a.5.5,0,1,0,.99,0V.545C117.521.536,117.52.529,117.519.521Z" transform="translate(-99.346)"/>
      </g>
    </g>
    <g id="Group_3244" data-name="Group 3244" transform="translate(16.177 14.52)">
      <g id="Group_3243" data-name="Group 3243">
        <circle id="Ellipse_164" data-name="Ellipse 164" cx="0.495" cy="0.495" r="0.495"/>
      </g>
    </g>
  </g>
</svg>
