<svg xmlns="http://www.w3.org/2000/svg" width="44.774" height="28.429" viewBox="0 0 44.774 28.429">
  <g id="Student-group" transform="translate(0 -92.25)">
    <g id="Group_3576" data-name="Group 3576" transform="translate(0 92.25)">
      <path id="Path_1235" data-name="Path 1235" d="M38.724,104.759a5.112,5.112,0,1,0-5.865,0,8.857,8.857,0,0,0-3.021,1.772,11.461,11.461,0,0,0-4.146-2.259,6.476,6.476,0,1,0-6.7,0,11.556,11.556,0,0,0-4.1,2.233,8.929,8.929,0,0,0-2.986-1.736,5.112,5.112,0,1,0-5.865,0A8.973,8.973,0,0,0,0,113.246v.585a.038.038,0,0,0,.035.035H10.87a11.915,11.915,0,0,0-.1,1.5v.6a4.711,4.711,0,0,0,4.713,4.713H29.218a4.711,4.711,0,0,0,4.713-4.713v-.6a11.915,11.915,0,0,0-.1-1.5H44.739a.038.038,0,0,0,.035-.035v-.585A9.007,9.007,0,0,0,38.724,104.759Zm-6.627-4.19a3.694,3.694,0,1,1,3.765,3.694H35.72A3.689,3.689,0,0,1,32.1,100.569Zm-14.83-1.843a5.059,5.059,0,1,1,5.351,5.05h-.585A5.066,5.066,0,0,1,17.267,98.726ZM5.254,100.569a3.694,3.694,0,1,1,3.765,3.694H8.877A3.7,3.7,0,0,1,5.254,100.569Zm5.865,11.871H1.435a7.57,7.57,0,0,1,7.459-6.76H9a7.491,7.491,0,0,1,4.828,1.8A11.632,11.632,0,0,0,11.118,112.44ZM32.5,115.966a3.3,3.3,0,0,1-3.3,3.3H15.468a3.3,3.3,0,0,1-3.3-3.3v-.6a10.177,10.177,0,0,1,9.86-10.162c.1.009.2.009.3.009s.2,0,.3-.009a10.177,10.177,0,0,1,9.86,10.162Zm1.054-3.526a11.6,11.6,0,0,0-2.684-4.926,7.527,7.527,0,0,1,4.873-1.834h.106a7.57,7.57,0,0,1,7.459,6.76Z" transform="translate(0 -92.25)"/>
    </g>
  </g>
</svg>
