<svg xmlns="http://www.w3.org/2000/svg" width="22.993" height="18.674" viewBox="0 0 22.993 18.674">
  <path id="twitter" d="M20.629,8.035c.015.2.015.409.015.613A13.316,13.316,0,0,1,7.236,22.055,13.317,13.317,0,0,1,0,19.94,9.749,9.749,0,0,0,1.138,20a9.437,9.437,0,0,0,5.85-2.013,4.721,4.721,0,0,1-4.406-3.268,5.943,5.943,0,0,0,.89.073,4.984,4.984,0,0,0,1.24-.16A4.713,4.713,0,0,1,.934,10V9.946a4.746,4.746,0,0,0,2.13.6A4.719,4.719,0,0,1,1.6,4.242a13.4,13.4,0,0,0,9.717,4.931,5.32,5.32,0,0,1-.117-1.08A4.717,4.717,0,0,1,19.36,4.869a9.278,9.278,0,0,0,2.991-1.138,4.7,4.7,0,0,1-2.072,2.6A9.447,9.447,0,0,0,22.993,5.6a10.13,10.13,0,0,1-2.363,2.436Z" transform="translate(0 -3.381)" fill="#1da1f2"/>
</svg>
