<svg id="united-states_1_" data-name="united-states (1)" xmlns="http://www.w3.org/2000/svg" width="28" height="28" viewBox="0 0 28 28">
  <g id="Group_3777" data-name="Group 3777" transform="translate(0 2.185)">
    <rect id="Rectangle_2316" data-name="Rectangle 2316" width="28" height="2.185" transform="translate(0 4.289)" fill="#f5f5f5"/>
    <path id="Path_1718" data-name="Path 1718" d="M31.269,39.385H6.2A6.23,6.23,0,0,0,5.013,41.57H32.457A6.23,6.23,0,0,0,31.269,39.385Z" transform="translate(-4.735 -39.385)" fill="#f5f5f5"/>
    <rect id="Rectangle_2317" data-name="Rectangle 2317" width="28" height="2.185" transform="translate(0 8.578)" fill="#f5f5f5"/>
    <rect id="Rectangle_2318" data-name="Rectangle 2318" width="28" height="2.185" transform="translate(0 12.866)" fill="#f5f5f5"/>
    <rect id="Rectangle_2319" data-name="Rectangle 2319" width="28" height="2.185" transform="translate(0 17.155)" fill="#f5f5f5"/>
    <path id="Path_1719" data-name="Path 1719" d="M32.457,433.231H5.013A6.227,6.227,0,0,0,6.2,435.416H31.269A6.227,6.227,0,0,0,32.457,433.231Z" transform="translate(-4.735 -411.787)" fill="#f5f5f5"/>
  </g>
  <g id="Group_3778" data-name="Group 3778" transform="translate(0 0)">
    <path id="Path_1720" data-name="Path 1720" d="M47.114,0H31.391a6.061,6.061,0,0,0-4.655,2.185H51.769A6.061,6.061,0,0,0,47.114,0Z" transform="translate(-25.253 0)" fill="#ff4b55"/>
    <rect id="Rectangle_2320" data-name="Rectangle 2320" width="28" height="2.185" transform="translate(0 8.605)" fill="#ff4b55"/>
    <path id="Path_1721" data-name="Path 1721" d="M28,80.614a6.3,6.3,0,0,0-.274-1.844H.274A6.3,6.3,0,0,0,0,80.614v.341H28Z" transform="translate(0 -74.467)" fill="#ff4b55"/>
    <rect id="Rectangle_2321" data-name="Rectangle 2321" width="28" height="2.185" transform="translate(0 12.908)" fill="#ff4b55"/>
    <path id="Path_1722" data-name="Path 1722" d="M28,394.187v-.341H0v.341a6.3,6.3,0,0,0,.274,1.844H27.726A6.3,6.3,0,0,0,28,394.187Z" transform="translate(0 -372.334)" fill="#ff4b55"/>
    <path id="Path_1723" data-name="Path 1723" d="M51.769,472.615H26.736a6.061,6.061,0,0,0,4.655,2.185H47.114A6.061,6.061,0,0,0,51.769,472.615Z" transform="translate(-25.253 -446.8)" fill="#ff4b55"/>
    <rect id="Rectangle_2322" data-name="Rectangle 2322" width="28" height="2.185" transform="translate(0 17.21)" fill="#ff4b55"/>
  </g>
  <path id="Path_1724" data-name="Path 1724" d="M15.3,0H6.214A6.214,6.214,0,0,0,0,6.214V15.3H15.3Z" transform="translate(0 0)" fill="#41479b"/>
  <g id="Group_3779" data-name="Group 3779" transform="translate(1.442 1.332)">
    <path id="Path_1725" data-name="Path 1725" d="M29.7,28.412a.05.05,0,0,0,.077.056l.3-.217.3.217a.05.05,0,0,0,.077-.056l-.112-.355.3-.221a.05.05,0,0,0-.029-.091l-.373,0-.064-.191a6.244,6.244,0,0,0-.457.441l.087.064Z" transform="translate(-29.495 -27.354)" fill="#f5f5f5"/>
    <path id="Path_1726" data-name="Path 1726" d="M26.633,77.171l.118.353.373,0a.05.05,0,0,1,.029.091l-.3.221.112.355a.05.05,0,0,1-.077.056l-.3-.217-.3.217a.05.05,0,0,1-.077-.056l.112-.355-.3-.221a.05.05,0,0,1,.029-.091l.373,0,.118-.353A.05.05,0,0,1,26.633,77.171Z" transform="translate(-25.997 -74.188)" fill="#f5f5f5"/>
    <path id="Path_1727" data-name="Path 1727" d="M26.633,136.1l.118.353.373,0a.05.05,0,0,1,.029.091l-.3.221.112.355a.05.05,0,0,1-.077.056l-.3-.217-.3.217a.05.05,0,0,1-.077-.056l.112-.355-.3-.221a.05.05,0,0,1,.029-.091l.373,0,.118-.353A.05.05,0,0,1,26.633,136.1Z" transform="translate(-25.997 -129.851)" fill="#f5f5f5"/>
    <path id="Path_1728" data-name="Path 1728" d="M26.633,190.25l.118.353.373,0a.05.05,0,0,1,.029.091l-.3.221.112.355a.05.05,0,0,1-.077.056l-.3-.217-.3.217a.05.05,0,0,1-.077-.056l.112-.355-.3-.221a.05.05,0,0,1,.029-.091l.373,0,.118-.353A.05.05,0,0,1,26.633,190.25Z" transform="translate(-25.997 -180.993)" fill="#f5f5f5"/>
    <path id="Path_1729" data-name="Path 1729" d="M26.633,239.522l.118.353.373,0a.05.05,0,0,1,.029.091l-.3.221.112.355a.05.05,0,0,1-.077.056l-.3-.217-.3.217a.05.05,0,0,1-.077-.056l.112-.355-.3-.221a.05.05,0,0,1,.029-.091l.373,0,.118-.353A.05.05,0,0,1,26.633,239.522Z" transform="translate(-25.997 -227.531)" fill="#f5f5f5"/>
    <path id="Path_1730" data-name="Path 1730" d="M52.5,49.2l.118.353.373,0a.05.05,0,0,1,.029.091l-.3.221.112.355a.05.05,0,0,1-.077.056l-.3-.217-.3.217a.05.05,0,0,1-.077-.056l.112-.355-.3-.221a.05.05,0,0,1,.029-.091l.373,0L52.4,49.2A.05.05,0,0,1,52.5,49.2Z" transform="translate(-50.428 -47.766)" fill="#f5f5f5"/>
    <path id="Path_1731" data-name="Path 1731" d="M52.5,108.13l.118.353.373,0a.05.05,0,0,1,.029.091l-.3.221.112.355a.05.05,0,0,1-.077.056l-.3-.217-.3.217a.05.05,0,0,1-.077-.056l.112-.355-.3-.221a.05.05,0,0,1,.029-.091l.373,0,.118-.353A.05.05,0,0,1,52.5,108.13Z" transform="translate(-50.426 -103.429)" fill="#f5f5f5"/>
    <path id="Path_1732" data-name="Path 1732" d="M52.5,164.121l.118.353.373,0a.05.05,0,0,1,.029.091l-.3.221.112.355a.05.05,0,0,1-.077.056l-.3-.217-.3.217a.05.05,0,0,1-.077-.056l.112-.355-.3-.221a.05.05,0,0,1,.029-.091l.373,0,.118-.353A.05.05,0,0,1,52.5,164.121Z" transform="translate(-50.426 -156.314)" fill="#f5f5f5"/>
    <path id="Path_1733" data-name="Path 1733" d="M52.5,214.4l.118.353.373,0a.05.05,0,0,1,.029.091l-.3.221.112.355a.05.05,0,0,1-.077.056l-.3-.217-.3.217a.05.05,0,0,1-.077-.056l.112-.355-.3-.221a.05.05,0,0,1,.029-.091l.373,0,.118-.353A.05.05,0,0,1,52.5,214.4Z" transform="translate(-50.426 -203.806)" fill="#f5f5f5"/>
    <path id="Path_1734" data-name="Path 1734" d="M78.36,24.034l.118.353.373,0a.05.05,0,0,1,.029.091l-.3.221.112.355a.05.05,0,0,1-.077.056l-.3-.217-.3.217a.05.05,0,0,1-.077-.056l.112-.355-.3-.221a.05.05,0,0,1,.029-.091l.373,0,.118-.353A.05.05,0,0,1,78.36,24.034Z" transform="translate(-74.854 -24)" fill="#f5f5f5"/>
    <path id="Path_1735" data-name="Path 1735" d="M78.36,77.171l.118.353.373,0a.05.05,0,0,1,.029.091l-.3.221.112.355a.05.05,0,0,1-.077.056l-.3-.217-.3.217a.05.05,0,0,1-.077-.056l.112-.355-.3-.221a.05.05,0,0,1,.029-.091l.373,0,.118-.353A.05.05,0,0,1,78.36,77.171Z" transform="translate(-74.854 -74.188)" fill="#f5f5f5"/>
    <path id="Path_1736" data-name="Path 1736" d="M78.36,136.1l.118.353.373,0a.05.05,0,0,1,.029.091l-.3.221.112.355a.05.05,0,0,1-.077.056l-.3-.217-.3.217a.05.05,0,0,1-.077-.056l.112-.355-.3-.221a.05.05,0,0,1,.029-.091l.373,0,.118-.353A.05.05,0,0,1,78.36,136.1Z" transform="translate(-74.854 -129.851)" fill="#f5f5f5"/>
    <path id="Path_1737" data-name="Path 1737" d="M78.36,190.25l.118.353.373,0a.05.05,0,0,1,.029.091l-.3.221.112.355a.05.05,0,0,1-.077.056l-.3-.217-.3.217a.05.05,0,0,1-.077-.056l.112-.355-.3-.221a.05.05,0,0,1,.029-.091l.373,0,.118-.353A.05.05,0,0,1,78.36,190.25Z" transform="translate(-74.854 -180.993)" fill="#f5f5f5"/>
    <path id="Path_1738" data-name="Path 1738" d="M78.36,239.522l.118.353.373,0a.05.05,0,0,1,.029.091l-.3.221.112.355a.05.05,0,0,1-.077.056l-.3-.217-.3.217a.05.05,0,0,1-.077-.056l.112-.355-.3-.221a.05.05,0,0,1,.029-.091l.373,0,.118-.353A.05.05,0,0,1,78.36,239.522Z" transform="translate(-74.854 -227.531)" fill="#f5f5f5"/>
    <path id="Path_1739" data-name="Path 1739" d="M104.222,49.2l.118.353.373,0a.05.05,0,0,1,.029.091l-.3.221.112.355a.05.05,0,0,1-.077.056l-.3-.217-.3.217a.05.05,0,0,1-.077-.056l.112-.355-.3-.221a.05.05,0,0,1,.029-.091l.373,0,.118-.353A.05.05,0,0,1,104.222,49.2Z" transform="translate(-99.281 -47.766)" fill="#f5f5f5"/>
    <path id="Path_1740" data-name="Path 1740" d="M104.222,108.13l.118.353.373,0a.05.05,0,0,1,.029.091l-.3.221.112.355a.05.05,0,0,1-.077.056l-.3-.217-.3.217a.05.05,0,0,1-.077-.056l.112-.355-.3-.221a.05.05,0,0,1,.029-.091l.373,0,.118-.353A.05.05,0,0,1,104.222,108.13Z" transform="translate(-99.281 -103.429)" fill="#f5f5f5"/>
    <path id="Path_1741" data-name="Path 1741" d="M104.222,164.121l.118.353.373,0a.05.05,0,0,1,.029.091l-.3.221.112.355a.05.05,0,0,1-.077.056l-.3-.217-.3.217a.05.05,0,0,1-.077-.056l.112-.355-.3-.221a.05.05,0,0,1,.029-.091l.373,0,.118-.353A.05.05,0,0,1,104.222,164.121Z" transform="translate(-99.281 -156.314)" fill="#f5f5f5"/>
    <path id="Path_1742" data-name="Path 1742" d="M104.222,214.4l.118.353.373,0a.05.05,0,0,1,.029.091l-.3.221.112.355a.05.05,0,0,1-.077.056l-.3-.217-.3.217a.05.05,0,0,1-.077-.056l.112-.355-.3-.221a.05.05,0,0,1,.029-.091l.373,0,.118-.353A.05.05,0,0,1,104.222,214.4Z" transform="translate(-99.281 -203.806)" fill="#f5f5f5"/>
    <path id="Path_1743" data-name="Path 1743" d="M130.086,24.034l.118.353.373,0a.05.05,0,0,1,.029.091l-.3.221.112.355a.05.05,0,0,1-.077.056l-.3-.217-.3.217a.05.05,0,0,1-.077-.056l.112-.355-.3-.221a.05.05,0,0,1,.029-.091l.373,0,.118-.353A.05.05,0,0,1,130.086,24.034Z" transform="translate(-123.71 -24)" fill="#f5f5f5"/>
    <path id="Path_1744" data-name="Path 1744" d="M130.087,77.17l.118.353.373,0a.05.05,0,0,1,.029.091l-.3.221.112.355a.05.05,0,0,1-.077.056l-.3-.217-.3.217a.05.05,0,0,1-.077-.056l.112-.355-.3-.221a.05.05,0,0,1,.029-.091l.373,0,.118-.353A.05.05,0,0,1,130.087,77.17Z" transform="translate(-123.711 -74.188)" fill="#f5f5f5"/>
    <path id="Path_1745" data-name="Path 1745" d="M130.086,136.1l.118.353.373,0a.05.05,0,0,1,.029.091l-.3.221.112.355a.05.05,0,0,1-.077.056l-.3-.217-.3.217a.05.05,0,0,1-.077-.056l.112-.355-.3-.221a.05.05,0,0,1,.029-.091l.373,0,.118-.353A.05.05,0,0,1,130.086,136.1Z" transform="translate(-123.71 -129.851)" fill="#f5f5f5"/>
    <path id="Path_1746" data-name="Path 1746" d="M130.086,190.25l.118.353.373,0a.05.05,0,0,1,.029.091l-.3.221.112.355a.05.05,0,0,1-.077.056l-.3-.217-.3.217a.05.05,0,0,1-.077-.056l.112-.355-.3-.221a.05.05,0,0,1,.029-.091l.373,0,.118-.353A.05.05,0,0,1,130.086,190.25Z" transform="translate(-123.71 -180.993)" fill="#f5f5f5"/>
    <path id="Path_1747" data-name="Path 1747" d="M130.086,239.522l.118.353.373,0a.05.05,0,0,1,.029.091l-.3.221.112.355a.05.05,0,0,1-.077.056l-.3-.217-.3.217a.05.05,0,0,1-.077-.056l.112-.355-.3-.221a.05.05,0,0,1,.029-.091l.373,0,.118-.353A.05.05,0,0,1,130.086,239.522Z" transform="translate(-123.71 -227.531)" fill="#f5f5f5"/>
    <path id="Path_1748" data-name="Path 1748" d="M155.948,49.2l.118.353.373,0a.05.05,0,0,1,.029.091l-.3.221.112.355a.05.05,0,0,1-.077.056l-.3-.217-.3.217a.05.05,0,0,1-.077-.056l.112-.355-.3-.221a.05.05,0,0,1,.029-.091l.373,0,.118-.353A.05.05,0,0,1,155.948,49.2Z" transform="translate(-148.137 -47.766)" fill="#f5f5f5"/>
    <path id="Path_1749" data-name="Path 1749" d="M155.948,108.13l.118.353.373,0a.05.05,0,0,1,.029.091l-.3.221.112.355a.05.05,0,0,1-.077.056l-.3-.217-.3.217a.05.05,0,0,1-.077-.056l.112-.355-.3-.221a.05.05,0,0,1,.029-.091l.373,0,.118-.353A.05.05,0,0,1,155.948,108.13Z" transform="translate(-148.137 -103.429)" fill="#f5f5f5"/>
    <path id="Path_1750" data-name="Path 1750" d="M155.948,164.121l.118.353.373,0a.05.05,0,0,1,.029.091l-.3.221.112.355a.05.05,0,0,1-.077.056l-.3-.217-.3.217a.05.05,0,0,1-.077-.056l.112-.355-.3-.221a.05.05,0,0,1,.029-.091l.373,0,.118-.353A.05.05,0,0,1,155.948,164.121Z" transform="translate(-148.137 -156.314)" fill="#f5f5f5"/>
    <path id="Path_1751" data-name="Path 1751" d="M155.948,214.4l.118.353.373,0a.05.05,0,0,1,.029.091l-.3.221.112.355a.05.05,0,0,1-.077.056l-.3-.217-.3.217a.05.05,0,0,1-.077-.056l.112-.355-.3-.221a.05.05,0,0,1,.029-.091l.373,0,.118-.353A.05.05,0,0,1,155.948,214.4Z" transform="translate(-148.137 -203.806)" fill="#f5f5f5"/>
    <path id="Path_1752" data-name="Path 1752" d="M181.81,24.034l.118.353.373,0a.05.05,0,0,1,.029.091l-.3.221.112.355a.05.05,0,0,1-.077.056l-.3-.217-.3.217a.05.05,0,0,1-.077-.056l.112-.355-.3-.221a.05.05,0,0,1,.029-.091l.373,0,.118-.353A.05.05,0,0,1,181.81,24.034Z" transform="translate(-172.564 -24)" fill="#f5f5f5"/>
    <path id="Path_1753" data-name="Path 1753" d="M181.81,77.171l.118.353.373,0a.05.05,0,0,1,.029.091l-.3.221.112.355a.05.05,0,0,1-.077.056l-.3-.217-.3.217a.05.05,0,0,1-.077-.056l.112-.355-.3-.221a.05.05,0,0,1,.029-.091l.373,0,.118-.353A.05.05,0,0,1,181.81,77.171Z" transform="translate(-172.564 -74.188)" fill="#f5f5f5"/>
    <path id="Path_1754" data-name="Path 1754" d="M181.81,136.1l.118.353.373,0a.05.05,0,0,1,.029.091l-.3.221.112.355a.05.05,0,0,1-.077.056l-.3-.217-.3.217a.05.05,0,0,1-.077-.056l.112-.355-.3-.221a.05.05,0,0,1,.029-.091l.373,0,.118-.353A.05.05,0,0,1,181.81,136.1Z" transform="translate(-172.564 -129.851)" fill="#f5f5f5"/>
    <path id="Path_1755" data-name="Path 1755" d="M181.81,190.25l.118.353.373,0a.05.05,0,0,1,.029.091l-.3.221.112.355a.05.05,0,0,1-.077.056l-.3-.217-.3.217a.05.05,0,0,1-.077-.056l.112-.355-.3-.221a.05.05,0,0,1,.029-.091l.373,0,.118-.353A.05.05,0,0,1,181.81,190.25Z" transform="translate(-172.564 -180.993)" fill="#f5f5f5"/>
    <path id="Path_1756" data-name="Path 1756" d="M181.81,239.522l.118.353.373,0a.05.05,0,0,1,.029.091l-.3.221.112.355a.05.05,0,0,1-.077.056l-.3-.217-.3.217a.05.05,0,0,1-.077-.056l.112-.355-.3-.221a.05.05,0,0,1,.029-.091l.373,0,.118-.353A.05.05,0,0,1,181.81,239.522Z" transform="translate(-172.564 -227.531)" fill="#f5f5f5"/>
    <path id="Path_1757" data-name="Path 1757" d="M207.674,49.2l.118.353.373,0a.05.05,0,0,1,.029.091l-.3.221.112.355a.05.05,0,0,1-.077.056l-.3-.217-.3.217a.05.05,0,0,1-.077-.056l.112-.355-.3-.221a.05.05,0,0,1,.029-.091l.373,0,.118-.353A.05.05,0,0,1,207.674,49.2Z" transform="translate(-196.993 -47.766)" fill="#f5f5f5"/>
    <path id="Path_1758" data-name="Path 1758" d="M207.674,108.13l.118.353.373,0a.05.05,0,0,1,.029.091l-.3.221.112.355a.05.05,0,0,1-.077.056l-.3-.217-.3.217a.05.05,0,0,1-.077-.056l.112-.355-.3-.221a.05.05,0,0,1,.029-.091l.373,0,.118-.353A.05.05,0,0,1,207.674,108.13Z" transform="translate(-196.993 -103.429)" fill="#f5f5f5"/>
    <path id="Path_1759" data-name="Path 1759" d="M207.674,164.121l.118.353.373,0a.05.05,0,0,1,.029.091l-.3.221.112.355a.05.05,0,0,1-.077.056l-.3-.217-.3.217a.05.05,0,0,1-.077-.056l.112-.355-.3-.221a.05.05,0,0,1,.029-.091l.373,0,.118-.353A.05.05,0,0,1,207.674,164.121Z" transform="translate(-196.993 -156.314)" fill="#f5f5f5"/>
    <path id="Path_1760" data-name="Path 1760" d="M207.674,214.4l.118.353.373,0a.05.05,0,0,1,.029.091l-.3.221.112.355a.05.05,0,0,1-.077.056l-.3-.217-.3.217a.05.05,0,0,1-.077-.056l.112-.355-.3-.221a.05.05,0,0,1,.029-.091l.373,0,.118-.353A.05.05,0,0,1,207.674,214.4Z" transform="translate(-196.993 -203.806)" fill="#f5f5f5"/>
    <path id="Path_1761" data-name="Path 1761" d="M233.537,24.034l.118.353.373,0a.05.05,0,0,1,.029.091l-.3.221.112.355a.05.05,0,0,1-.077.056l-.3-.217-.3.217a.05.05,0,0,1-.077-.056l.112-.355-.3-.221a.05.05,0,0,1,.029-.091l.373,0,.118-.353A.05.05,0,0,1,233.537,24.034Z" transform="translate(-221.421 -24)" fill="#f5f5f5"/>
    <path id="Path_1762" data-name="Path 1762" d="M233.537,77.171l.118.353.373,0a.05.05,0,0,1,.029.091l-.3.221.112.355a.05.05,0,0,1-.077.056l-.3-.217-.3.217a.05.05,0,0,1-.077-.056l.112-.355-.3-.221a.05.05,0,0,1,.029-.091l.373,0,.118-.353A.05.05,0,0,1,233.537,77.171Z" transform="translate(-221.421 -74.188)" fill="#f5f5f5"/>
    <path id="Path_1763" data-name="Path 1763" d="M233.537,136.1l.118.353.373,0a.05.05,0,0,1,.029.091l-.3.221.112.355a.05.05,0,0,1-.077.056l-.3-.217-.3.217a.05.05,0,0,1-.077-.056l.112-.355-.3-.221a.05.05,0,0,1,.029-.091l.373,0,.118-.353A.05.05,0,0,1,233.537,136.1Z" transform="translate(-221.421 -129.851)" fill="#f5f5f5"/>
    <path id="Path_1764" data-name="Path 1764" d="M233.537,190.25l.118.353.373,0a.05.05,0,0,1,.029.091l-.3.221.112.355a.05.05,0,0,1-.077.056l-.3-.217-.3.217a.05.05,0,0,1-.077-.056l.112-.355-.3-.221a.05.05,0,0,1,.029-.091l.373,0,.118-.353A.05.05,0,0,1,233.537,190.25Z" transform="translate(-221.421 -180.993)" fill="#f5f5f5"/>
    <path id="Path_1765" data-name="Path 1765" d="M233.537,239.522l.118.353.373,0a.05.05,0,0,1,.029.091l-.3.221.112.355a.05.05,0,0,1-.077.056l-.3-.217-.3.217a.05.05,0,0,1-.077-.056l.112-.355-.3-.221a.05.05,0,0,1,.029-.091l.373,0,.118-.353A.05.05,0,0,1,233.537,239.522Z" transform="translate(-221.421 -227.531)" fill="#f5f5f5"/>
  </g>
</svg>
